<svg width="70.519531" height="70.520020" viewBox="0 0 70.5195 70.52" fill="none" xmlns="http://www.w3.org/2000/svg" xmlns:xlink="http://www.w3.org/1999/xlink">
	<desc>
			Created with Pixso.
	</desc>
	<defs/>
	<path id="Vector" d="M35.02 16.24L21.82 20.93C20.62 21.5 19.56 22.32 18.75 23.35C17.94 24.37 17.39 25.57 17.15 26.83C17.15 29.36 17.42 32.99 17.88 37.37C17.97 39.7 18.32 42.02 18.91 44.29C20.63 48.78 24.35 51.44 29 54.76C30.92 56.11 32.93 57.33 35.02 58.42C37.1 57.33 39.11 56.1 41.03 54.76C45.69 51.44 49.4 48.78 51.12 44.29C51.72 42.02 52.06 39.7 52.16 37.37C52.62 32.99 52.81 29.36 52.89 26.83C52.64 25.57 52.09 24.37 51.28 23.35C50.47 22.32 49.42 21.5 48.21 20.93L35.02 16.24Z" stroke="#666666" stroke-opacity="1.000000" stroke-width="1.760000" stroke-linejoin="round"/>
	<path id="Vector" d="M29.02 35.15L34.29 40.18L42.35 32.47" stroke="#666666" stroke-opacity="1.000000" stroke-width="1.760000" stroke-linejoin="round" stroke-linecap="round"/>
	<mask id="mask_7_18676" fill="white">
		<path id="Union" d="M40.6914 1.76001L41.5713 1.76001C41.5713 1.27393 41.1768 0.880127 40.6914 0.880127L40.6914 1.76001ZM29.8262 1.76001L29.8262 0.880127C29.3398 0.880127 28.9463 1.27393 28.9463 1.76001L29.8262 1.76001ZM40.6914 7.69946L39.8105 7.69946C39.8105 8.12231 40.1113 8.48535 40.5273 8.56421L40.6914 7.69946ZM51.001 11.8362L50.5225 12.5745C50.8701 12.8005 51.3291 12.752 51.623 12.4585L51.001 11.8362ZM55.1055 7.7312L55.7275 7.10913C55.5625 6.94409 55.3389 6.85132 55.1055 6.85132C54.8721 6.85132 54.6484 6.94409 54.4834 7.10913L55.1055 7.7312ZM62.7881 15.4138L63.4102 16.0361C63.7539 15.6926 63.7539 15.1353 63.4102 14.7917L62.7881 15.4138ZM58.8555 19.3469L58.2334 18.7246C57.9287 19.0288 57.8896 19.5081 58.1387 19.8582L58.8555 19.3469ZM63.5381 29.8259L62.6787 30.0176C62.7686 30.4199 63.125 30.7058 63.5381 30.7058L63.5381 29.8259ZM68.7598 29.8259L69.6396 29.8259C69.6396 29.3398 69.2461 28.9458 68.7598 28.9458L68.7598 29.8259ZM68.7598 40.6907L68.7598 41.5708C69.2461 41.5708 69.6396 41.1768 69.6396 40.6907L68.7598 40.6907ZM63.8818 40.6907L63.8818 39.8108C63.4482 39.8108 63.0791 40.1262 63.0117 40.5544L63.8818 40.6907ZM59.5879 51.905L58.8496 51.4263C58.624 51.7747 58.6729 52.2336 58.9658 52.5273L59.5879 51.905ZM62.7871 55.104L63.4092 55.7263C63.5742 55.5613 63.667 55.3374 63.667 55.104C63.667 54.8706 63.5742 54.6467 63.4092 54.4817L62.7871 55.104ZM55.1045 62.7866L54.4824 63.4089C54.8262 63.7527 55.3828 63.7527 55.7266 63.4089L55.1045 62.7866ZM52.0771 59.7595L52.7002 59.1375C52.3955 58.8333 51.916 58.7935 51.5664 59.0435L52.0771 59.7595ZM40.6914 64.6292L40.5273 63.7646C40.1113 63.8433 39.8105 64.2063 39.8105 64.6292L40.6914 64.6292ZM40.6914 68.76L40.6914 69.6399C41.1768 69.6399 41.5713 69.2461 41.5713 68.76L40.6914 68.76ZM29.8262 68.76L28.9463 68.76C28.9463 69.2461 29.3398 69.6399 29.8262 69.6399L29.8262 68.76ZM29.8262 64.6287L30.7061 64.6287C30.7061 64.2058 30.4053 63.8428 29.9902 63.7639L29.8262 64.6287ZM18.4424 59.7595L18.9541 59.0435C18.6035 58.7935 18.124 58.8333 17.8203 59.1375L18.4424 59.7595ZM15.4121 62.79L14.79 63.4124C14.9551 63.5774 15.1787 63.6702 15.4121 63.6702C15.6455 63.6702 15.8691 63.5774 16.0342 63.4124L15.4121 62.79ZM7.72949 55.1074L7.10742 54.4851C6.94238 54.6501 6.84961 54.874 6.84961 55.1074C6.84961 55.3408 6.94238 55.5647 7.10742 55.7297L7.72949 55.1074ZM10.9316 51.905L11.5537 52.5273C11.8477 52.2336 11.8965 51.7749 11.6699 51.4263L10.9316 51.905ZM6.63867 40.6907L7.50781 40.5544C7.44043 40.1262 7.07227 39.8108 6.63867 39.8108L6.63867 40.6907ZM1.75977 40.6907L0.879883 40.6907C0.879883 41.1768 1.27344 41.5708 1.75977 41.5708L1.75977 40.6907ZM1.75977 29.8259L1.75977 28.9458C1.27344 28.9458 0.879883 29.3398 0.879883 29.8259L1.75977 29.8259ZM6.98242 29.8259L6.98242 30.7058C7.39453 30.7058 7.75195 30.4199 7.8418 30.0176L6.98242 29.8259ZM11.665 19.3469L12.3809 19.8582C12.6309 19.5081 12.5908 19.0288 12.2871 18.7246L11.665 19.3469ZM7.72852 15.4104L7.10645 14.7883C6.7627 15.1318 6.7627 15.6892 7.10645 16.0327L7.72852 15.4104ZM15.4111 7.72778L16.0332 7.10571C15.6895 6.76196 15.1328 6.76196 14.7891 7.10571L15.4111 7.72778ZM19.5195 11.8362L18.8975 12.4585C19.1904 12.752 19.6494 12.8005 19.998 12.5745L19.5195 11.8362ZM29.8262 7.7002L29.9902 8.5647C30.4053 8.48584 30.7061 8.1228 30.7061 7.7002L29.8262 7.7002ZM40.6914 0.880127L29.8262 0.880127L29.8262 2.63989L40.6914 2.63989L40.6914 0.880127ZM41.5713 7.69946L41.5713 1.76001L39.8105 1.76001L39.8105 7.69946L41.5713 7.69946ZM51.4795 11.0977C48.3037 9.03857 44.7109 7.56616 40.8555 6.83496L40.5273 8.56421C44.1533 9.25195 47.5332 10.6367 50.5225 12.5745L51.4795 11.0977ZM51.623 12.4585L55.7275 8.35352L54.4834 7.10913L50.3789 11.2139L51.623 12.4585ZM54.4834 8.35352L62.166 16.0361L63.4102 14.7917L55.7275 7.10913L54.4834 8.35352ZM62.166 14.7917L58.2334 18.7246L59.4775 19.969L63.4102 16.0361L62.166 14.7917ZM64.3965 29.6343C63.5146 25.6814 61.8486 22.0247 59.5713 18.8354L58.1387 19.8582C60.2822 22.8599 61.8486 26.2998 62.6787 30.0176L64.3965 29.6343ZM68.7598 28.9458L63.5381 28.9458L63.5381 30.7058L68.7598 30.7058L68.7598 28.9458ZM69.6396 40.6907L69.6396 29.8259L67.8799 29.8259L67.8799 40.6907L69.6396 40.6907ZM63.8818 41.5708L68.7598 41.5708L68.7598 39.8108L63.8818 39.8108L63.8818 41.5708ZM60.3271 52.3838C62.5508 48.9529 64.0908 45.0359 64.751 40.8271L63.0117 40.5544C62.3906 44.5132 60.9434 48.1978 58.8496 51.4263L60.3271 52.3838ZM63.4092 54.4817L60.2109 51.2827L58.9658 52.5273L62.165 55.7263L63.4092 54.4817ZM55.7266 63.4089L63.4092 55.7263L62.165 54.4817L54.4824 62.1643L55.7266 63.4089ZM51.4551 60.3818L54.4824 63.4089L55.7266 62.1643L52.7002 59.1375L51.4551 60.3818ZM40.8555 65.4937C45.167 64.676 49.1494 62.9314 52.5889 60.4758L51.5664 59.0435C48.3291 61.3547 44.582 62.9956 40.5273 63.7646L40.8555 65.4937ZM41.5713 68.76L41.5713 64.6292L39.8105 64.6292L39.8105 68.76L41.5713 68.76ZM29.8262 69.6399L40.6914 69.6399L40.6914 67.8801L29.8262 67.8801L29.8262 69.6399ZM28.9463 64.6287L28.9463 68.76L30.7061 68.76L30.7061 64.6287L28.9463 64.6287ZM17.9316 60.4758C21.3691 62.9309 25.3516 64.6753 29.6621 65.4932L29.9902 63.7639C25.9365 62.9949 22.1904 61.354 18.9541 59.0435L17.9316 60.4758ZM17.8203 59.1375L14.79 62.1677L16.0342 63.4124L19.0645 60.3818L17.8203 59.1375ZM16.0342 62.1677L8.35156 54.4851L7.10742 55.7297L14.79 63.4124L16.0342 62.1677ZM8.35156 55.7297L11.5537 52.5273L10.3096 51.2827L7.10742 54.4851L8.35156 55.7297ZM5.76953 40.8271C6.42969 45.0359 7.96875 48.9529 10.1934 52.3838L11.6699 51.4263C9.57715 48.1978 8.12891 44.5132 7.50781 40.5544L5.76953 40.8271ZM1.75977 41.5708L6.63867 41.5708L6.63867 39.8108L1.75977 39.8108L1.75977 41.5708ZM0.879883 29.8259L0.879883 40.6907L2.63965 40.6907L2.63965 29.8259L0.879883 29.8259ZM6.98242 28.9458L1.75977 28.9458L1.75977 30.7058L6.98242 30.7058L6.98242 28.9458ZM10.9482 18.8354C8.67188 22.0244 7.00586 25.6814 6.12402 29.6343L7.8418 30.0176C8.6709 26.2998 10.2383 22.8596 12.3809 19.8582L10.9482 18.8354ZM7.10645 16.0327L11.043 19.969L12.2871 18.7246L8.35059 14.7883L7.10645 16.0327ZM14.7891 7.10571L7.10645 14.7883L8.35059 16.0327L16.0332 8.3501L14.7891 7.10571ZM20.1416 11.2139L16.0332 7.10571L14.7891 8.3501L18.8975 12.4585L20.1416 11.2139ZM29.6621 6.83545C25.8076 7.56689 22.2158 9.03906 19.041 11.0977L19.998 12.5745C22.9863 10.6372 26.3652 9.25269 29.9902 8.5647L29.6621 6.83545ZM28.9463 1.76001L28.9463 7.7002L30.7061 7.7002L30.7061 1.76001L28.9463 1.76001Z" fill="" fill-opacity="1.000000" fill-rule="nonzero"/>
	</mask>
	<path id="Union" d="M40.6914 0.880127L41.5713 0.880127L41.5713 1.76001L40.6914 1.76001Q40.6914 1.76001 40.6914 1.76001L40.6914 0.880127L41.5713 0.880127L41.5713 1.76001L40.6914 1.76001L40.6914 0.880127ZM40.6914 2.63989Q40.6046 2.63989 40.5196 2.62299Q40.4345 2.60608 40.3543 2.57292Q40.2742 2.53975 40.202 2.49161Q40.1299 2.44346 40.0685 2.38218Q40.0072 2.3209 39.959 2.24885Q39.9108 2.17679 39.8776 2.09673Q39.8444 2.01666 39.8275 1.93167Q39.8105 1.84667 39.8105 1.76001L39.8105 0.880127Q39.8105 0.793442 39.8275 0.708423Q39.8444 0.623403 39.8776 0.543317Q39.9108 0.46323 39.959 0.391155Q40.0072 0.319079 40.0685 0.257783Q40.1299 0.196488 40.202 0.148328Q40.2742 0.100169 40.3543 0.0669957Q40.4345 0.0338228 40.5196 0.0169114Q40.6046 0 40.6914 0Q41.0488 0 41.376 0.138672Q41.6924 0.272217 41.9355 0.515381Q42.1787 0.758545 42.3125 1.07471Q42.4512 1.40259 42.4512 1.76001Q42.4512 1.84667 42.4343 1.93167Q42.4174 2.01666 42.3842 2.09673Q42.351 2.17679 42.3029 2.24885Q42.2547 2.3209 42.1935 2.38218Q42.1322 2.44346 42.0601 2.49161Q41.9881 2.53975 41.908 2.57292Q41.8279 2.60608 41.7429 2.62299Q41.6579 2.63989 41.5713 2.63989L40.6914 2.63989ZM28.9463 1.76001L28.9463 0.880127L29.8262 0.880127L29.8262 1.76001L29.8262 1.76001L28.9463 1.76001L28.9463 0.880127L29.8262 0.880127L29.8262 1.76001L28.9463 1.76001ZM30.7061 1.76001Q30.7061 1.84667 30.6891 1.93167Q30.6722 2.01666 30.6391 2.09673Q30.6059 2.17679 30.5578 2.24885Q30.5096 2.3209 30.4483 2.38218Q30.3871 2.44346 30.315 2.49161Q30.2429 2.53975 30.1629 2.57292Q30.0828 2.60608 29.9978 2.62299Q29.9128 2.63989 29.8262 2.63989L28.9463 2.63989Q28.8596 2.63989 28.7746 2.62299Q28.6896 2.60608 28.6096 2.57292Q28.5295 2.53975 28.4575 2.49161Q28.3854 2.44346 28.3241 2.38218Q28.2628 2.3209 28.2147 2.24885Q28.1665 2.17679 28.1334 2.09673Q28.1002 2.01666 28.0833 1.93167Q28.0664 1.84667 28.0664 1.76001Q28.0664 1.40259 28.2051 1.07471Q28.3389 0.758545 28.582 0.515381Q28.8252 0.272217 29.1406 0.138672Q29.4688 0 29.8262 0Q29.9128 0 29.9978 0.0169114Q30.0828 0.0338228 30.1629 0.0669957Q30.2429 0.100169 30.315 0.148328Q30.3871 0.196488 30.4483 0.257783Q30.5096 0.319079 30.5578 0.391155Q30.6059 0.46323 30.6391 0.543317Q30.6722 0.623403 30.6891 0.708423Q30.7061 0.793442 30.7061 0.880127L30.7061 1.76001ZM40.6914 8.57959L39.8105 8.57959L39.8105 7.69946L40.6914 7.69946L40.6914 7.69946L40.5273 8.56421L39.6621 8.40015L39.8262 7.53564L40.6914 7.69946L40.6914 8.57959ZM40.6914 6.81958Q40.7734 6.81958 40.8555 6.83496Q40.9406 6.85112 41.0209 6.88358Q41.1013 6.91604 41.1737 6.96355Q41.2462 7.01106 41.308 7.0718Q41.3698 7.13254 41.4185 7.20418Q41.4673 7.27581 41.5012 7.35558Q41.535 7.43536 41.5527 7.52021Q41.5703 7.60505 41.5711 7.69172Q41.5718 7.77838 41.5557 7.86353L41.3916 8.72803Q41.3754 8.8132 41.343 8.89358Q41.3105 8.97396 41.263 9.04646Q41.2155 9.11897 41.1548 9.18081Q41.0941 9.24264 41.0224 9.29144Q40.9508 9.34024 40.8711 9.37412Q40.7913 9.408 40.7065 9.42567Q40.6217 9.44333 40.535 9.4441Q40.4484 9.44487 40.3633 9.42871Q40.0566 9.37061 39.7891 9.21094Q39.5293 9.05566 39.3359 8.82227Q39.1426 8.58862 39.0381 8.30444Q38.9307 8.01196 38.9307 7.69946Q38.9307 7.6128 38.9476 7.52781Q38.9645 7.44281 38.9976 7.36275Q39.0308 7.28268 39.0789 7.21063Q39.1271 7.13857 39.1884 7.07729Q39.2497 7.01601 39.3217 6.96787Q39.3938 6.91972 39.4738 6.88656Q39.5539 6.85339 39.6389 6.83649Q39.7239 6.81958 39.8105 6.81958L40.6914 6.81958ZM51.7393 12.3149L51.2607 13.0532L50.5225 12.5745L51.001 11.8362L51.001 11.8362L51.623 12.4585L51.001 13.0806L50.3789 12.4585L51.001 11.8362L51.7393 12.3149ZM50.2627 11.3574Q50.3125 11.2795 50.3789 11.2139Q50.4402 11.1526 50.5122 11.1044Q50.5843 11.0563 50.6643 11.0231Q50.7444 10.9899 50.8293 10.973Q50.9143 10.9561 51.001 10.9561Q51.0876 10.9561 51.1726 10.973Q51.2576 10.9899 51.3376 11.0231Q51.4177 11.0563 51.4897 11.1044Q51.5618 11.1526 51.623 11.2139L52.2451 11.8362Q52.3064 11.8975 52.3545 11.9695Q52.4027 12.0416 52.4358 12.1217Q52.469 12.2018 52.4859 12.2868Q52.5028 12.3718 52.5028 12.4584Q52.5028 12.5451 52.4859 12.6301Q52.469 12.7151 52.4358 12.7951Q52.4027 12.8752 52.3545 12.9472Q52.3064 13.0193 52.2451 13.0806Q52.0283 13.2976 51.751 13.4282Q51.4814 13.5552 51.1855 13.5864Q50.8887 13.6177 50.5986 13.5498Q50.3008 13.48 50.043 13.313Q49.9703 13.2658 49.9081 13.2054Q49.846 13.145 49.7969 13.0736Q49.7477 13.0022 49.7134 12.9225Q49.6792 12.8429 49.6611 12.7581Q49.643 12.6734 49.6418 12.5867Q49.6406 12.5 49.6563 12.4148Q49.672 12.3295 49.704 12.249Q49.7361 12.1684 49.7832 12.0957L50.2627 11.3574ZM54.4834 7.10913L55.1055 6.48682L55.7275 7.10913L55.1055 7.7312L55.1055 7.7312L55.1055 7.7312L54.4834 7.10913L55.1055 6.48682L55.7275 7.10913L55.1055 7.7312L54.4834 7.10913ZM55.7275 8.35352Q55.6663 8.41481 55.5942 8.46297Q55.5222 8.51112 55.4421 8.54429Q55.3621 8.57747 55.2771 8.59437Q55.1921 8.61129 55.1055 8.61129Q55.0188 8.61129 54.9338 8.59437Q54.8489 8.57747 54.7688 8.54429Q54.6888 8.51112 54.6167 8.46297Q54.5447 8.41481 54.4834 8.35352L53.8613 7.7312Q53.8001 7.66993 53.7519 7.59788Q53.7038 7.52583 53.6706 7.44577Q53.6375 7.36571 53.6206 7.28072Q53.6037 7.19572 53.6037 7.10906Q53.6037 7.0224 53.6206 6.93739Q53.6375 6.85239 53.6706 6.77232Q53.7038 6.69224 53.7519 6.62018Q53.8001 6.54811 53.8613 6.48682Q54.1084 6.23926 54.4316 6.10522Q54.7559 5.97119 55.1055 5.97119Q55.4561 5.97119 55.7793 6.10522Q56.1025 6.23926 56.3506 6.48682Q56.4119 6.54811 56.46 6.62018Q56.5081 6.69224 56.5413 6.77232Q56.5744 6.85239 56.5914 6.93739Q56.6083 7.0224 56.6083 7.10906Q56.6083 7.19572 56.5914 7.28072Q56.5744 7.36571 56.5413 7.44577Q56.5081 7.52583 56.46 7.59788Q56.4119 7.66993 56.3506 7.7312L55.7275 8.35352ZM63.4102 14.7917L64.0332 15.4138L63.4102 16.0361L62.7881 15.4138Q62.7881 15.4138 62.7881 15.4138L63.4102 14.7917L64.0332 15.4138L63.4102 16.0361L62.7881 15.4138L63.4102 14.7917ZM62.166 16.0361Q62.1047 15.9748 62.0566 15.9028Q62.0085 15.8307 61.9753 15.7506Q61.9422 15.6706 61.9252 15.5856Q61.9083 15.5006 61.9083 15.4139Q61.9083 15.3272 61.9252 15.2422Q61.9422 15.1572 61.9753 15.0772Q62.0085 14.9971 62.0566 14.9251Q62.1047 14.853 62.166 14.7917L62.7881 14.1694Q62.8494 14.1081 62.9214 14.06Q62.9935 14.0118 63.0736 13.9787Q63.1537 13.9455 63.2387 13.9286Q63.3237 13.9117 63.4104 13.9117Q63.4972 13.9117 63.5822 13.9286Q63.6673 13.9455 63.7474 13.9787Q63.8276 14.0118 63.8997 14.06Q63.9718 14.1081 64.0332 14.1694Q64.2852 14.4221 64.4189 14.7522Q64.5479 15.0701 64.5479 15.4138Q64.5479 15.7578 64.4189 16.0757Q64.2852 16.4058 64.0332 16.6584Q63.9718 16.7197 63.8997 16.7679Q63.8276 16.8161 63.7474 16.8492Q63.6673 16.8824 63.5822 16.8993Q63.4972 16.9162 63.4104 16.9162Q63.3237 16.9162 63.2387 16.8993Q63.1537 16.8824 63.0736 16.8492Q62.9935 16.8161 62.9214 16.7679Q62.8494 16.7197 62.7881 16.6584L62.166 16.0361ZM58.2334 19.969L57.6104 19.3469L58.2334 18.7246L58.8555 19.3469L58.8555 19.3469L58.8555 19.3472L58.8555 19.3469L58.1387 19.8582L57.6279 19.1421L58.3438 18.6306L58.8555 19.3469L58.2334 19.969ZM59.4775 18.7246Q59.5293 18.7761 59.5713 18.8354Q59.6217 18.906 59.6574 18.985Q59.693 19.064 59.7126 19.1485Q59.7322 19.2329 59.7349 19.3196Q59.7377 19.4062 59.7235 19.4917Q59.7092 19.5772 59.6786 19.6582Q59.648 19.7393 59.6022 19.8128Q59.5563 19.8863 59.497 19.9495Q59.4377 20.0126 59.3672 20.063L58.6504 20.5745Q58.5799 20.6248 58.5009 20.6604Q58.4219 20.6961 58.3375 20.7156Q58.2531 20.7351 58.1665 20.7378Q58.0798 20.7405 57.9943 20.7262Q57.9089 20.712 57.8278 20.6813Q57.7467 20.6506 57.6732 20.6047Q57.5996 20.5589 57.5364 20.4995Q57.4732 20.4402 57.4229 20.3696Q57.2383 20.1111 57.1562 19.8052Q57.0762 19.5083 57.1016 19.2017Q57.127 18.8948 57.2549 18.615Q57.3867 18.3269 57.6104 18.1023Q57.6717 18.041 57.7439 17.9928Q57.816 17.9447 57.8961 17.9115Q57.9763 17.8783 58.0613 17.8614Q58.1464 17.8445 58.2331 17.8445Q58.3198 17.8445 58.4049 17.8614Q58.4899 17.8783 58.57 17.9115Q58.6501 17.9447 58.7221 17.9928Q58.7942 18.041 58.8555 18.1023L59.4775 18.7246ZM63.7295 30.6848L62.8701 30.8765L62.6787 30.0176L63.5381 29.8259L63.5381 29.8259L63.5381 30.7058L62.6572 30.7058L62.6572 29.8259L63.5381 29.8259L63.7295 30.6848ZM63.3457 28.967Q63.4404 28.9458 63.5381 28.9458Q63.6247 28.9458 63.7097 28.9627Q63.7947 28.9796 63.8748 29.0128Q63.9549 29.046 64.0269 29.0941Q64.099 29.1423 64.1603 29.2036Q64.2215 29.2649 64.2697 29.337Q64.3178 29.409 64.351 29.4891Q64.3842 29.5692 64.4011 29.6542Q64.418 29.7392 64.418 29.8259L64.418 30.7058Q64.418 30.7925 64.4011 30.8775Q64.3842 30.9625 64.351 31.0426Q64.3178 31.1227 64.2697 31.1948Q64.2215 31.2669 64.1603 31.3282Q64.099 31.3894 64.0269 31.4376Q63.9549 31.4858 63.8748 31.5189Q63.7947 31.5521 63.7097 31.569Q63.6247 31.5859 63.5381 31.5859Q63.2324 31.5859 62.9463 31.4839Q62.668 31.3845 62.4365 31.1992Q62.2061 31.0142 62.0479 30.7639Q61.8867 30.5066 61.8203 30.2092Q61.8014 30.1246 61.7993 30.038Q61.7972 29.9513 61.8121 29.866Q61.827 29.7806 61.8583 29.6998Q61.8895 29.6189 61.936 29.5458Q61.9824 29.4726 62.0423 29.4099Q62.1021 29.3472 62.1731 29.2974Q62.244 29.2476 62.3233 29.2126Q62.4027 29.1776 62.4873 29.1587L63.3457 28.967ZM68.7598 28.9458L69.6396 28.9458L69.6396 29.8259L68.7598 29.8259L68.7598 29.8259L68.7598 28.9458L69.6396 28.9458L69.6396 29.8259L68.7598 29.8259L68.7598 28.9458ZM68.7598 30.7058Q68.6731 30.7058 68.5881 30.6889Q68.5031 30.672 68.423 30.6388Q68.343 30.6057 68.2709 30.5575Q68.1989 30.5094 68.1376 30.4481Q68.0763 30.3868 68.0282 30.3148Q67.98 30.2427 67.9468 30.1626Q67.9137 30.0826 67.8968 29.9976Q67.8799 29.9126 67.8799 29.8259L67.8799 28.9458Q67.8799 28.8591 67.8968 28.7741Q67.9137 28.6891 67.9468 28.6091Q67.98 28.529 68.0282 28.457Q68.0763 28.3849 68.1376 28.3236Q68.1989 28.2623 68.2709 28.2142Q68.343 28.1661 68.423 28.1329Q68.5031 28.0997 68.5881 28.0828Q68.6731 28.0659 68.7598 28.0659Q69.1172 28.0659 69.4453 28.2046Q69.7607 28.3381 70.0039 28.5813Q70.2471 28.8245 70.3809 29.1406Q70.5195 29.4685 70.5195 29.8259Q70.5195 29.9126 70.5026 29.9976Q70.4857 30.0826 70.4525 30.1626Q70.4194 30.2427 70.3712 30.3148Q70.3231 30.3868 70.2618 30.4481Q70.2005 30.5094 70.1285 30.5575Q70.0564 30.6057 69.9764 30.6388Q69.8963 30.672 69.8113 30.6889Q69.7263 30.7058 69.6396 30.7058L68.7598 30.7058ZM69.6396 40.6907L69.6396 41.5708L68.7598 41.5708L68.7598 40.6907L68.7598 40.6907L69.6396 40.6907L69.6396 41.5708L68.7598 41.5708L68.7598 40.6907L69.6396 40.6907ZM67.8799 40.6907Q67.8799 40.604 67.8968 40.519Q67.9137 40.434 67.9468 40.354Q67.98 40.2739 68.0282 40.2018Q68.0763 40.1298 68.1376 40.0685Q68.1989 40.0072 68.2709 39.9591Q68.343 39.9109 68.423 39.8778Q68.5031 39.8446 68.5881 39.8277Q68.6731 39.8108 68.7598 39.8108L69.6396 39.8108Q69.7263 39.8108 69.8113 39.8277Q69.8963 39.8446 69.9764 39.8778Q70.0564 39.9109 70.1285 39.9591Q70.2005 40.0072 70.2618 40.0685Q70.3231 40.1298 70.3712 40.2018Q70.4194 40.2739 70.4525 40.354Q70.4857 40.434 70.5026 40.519Q70.5195 40.604 70.5195 40.6907Q70.5195 41.0483 70.3809 41.3762Q70.2471 41.6921 70.0039 41.9353Q69.7607 42.1785 69.4453 42.312Q69.1172 42.4507 68.7598 42.4507Q68.6731 42.4507 68.5881 42.4338Q68.5031 42.4169 68.423 42.3837Q68.343 42.3505 68.2709 42.3024Q68.1989 42.2542 68.1376 42.193Q68.0763 42.1317 68.0282 42.0596Q67.98 41.9876 67.9468 41.9075Q67.9137 41.8274 67.8968 41.7425Q67.8799 41.6575 67.8799 41.5708L67.8799 40.6907ZM63.002 40.6907L63.002 39.8108L63.8818 39.8108L63.8818 40.6907L63.8818 40.6907L63.0117 40.5544L63.1484 39.6851L64.0176 39.8213L63.8818 40.6907L63.002 40.6907ZM64.7617 40.6907Q64.7617 40.7593 64.751 40.8271Q64.7375 40.9128 64.7076 40.9941Q64.6777 41.0755 64.6325 41.1495Q64.5873 41.2234 64.5285 41.2871Q64.4698 41.3509 64.3997 41.4019Q64.3297 41.453 64.251 41.4894Q64.1724 41.5258 64.0881 41.5461Q64.0039 41.5665 63.9173 41.57Q63.8307 41.5735 63.7451 41.5601L62.876 41.4238Q62.7904 41.4104 62.709 41.3805Q62.6277 41.3506 62.5537 41.3054Q62.4797 41.2602 62.416 41.2015Q62.3522 41.1427 62.3012 41.0727Q62.2501 41.0026 62.2136 40.924Q62.1772 40.8453 62.1568 40.7611Q62.1364 40.6768 62.1328 40.5902Q62.1292 40.5036 62.1426 40.418Q62.1924 40.1018 62.3496 39.8242Q62.502 39.5547 62.7373 39.3533Q62.9727 39.1519 63.2627 39.043Q63.5615 38.9307 63.8818 38.9307Q63.9685 38.9307 64.0535 38.9476Q64.1385 38.9645 64.2185 38.9977Q64.2986 39.0308 64.3707 39.079Q64.4427 39.1271 64.504 39.1884Q64.5653 39.2497 64.6134 39.3218Q64.6616 39.3939 64.6947 39.474Q64.7279 39.5541 64.7448 39.6391Q64.7617 39.7241 64.7617 39.8108L64.7617 40.6907ZM59.1094 52.6436L58.3711 52.1648L58.8496 51.4263L59.5879 51.905Q59.5879 51.905 59.5879 51.905L58.9658 52.5273L58.3438 51.905L58.9658 51.2827L59.5879 51.905L59.1094 52.6436ZM60.0674 51.1667Q60.1445 51.2173 60.2109 51.2827Q60.2722 51.344 60.3203 51.4161Q60.3685 51.4881 60.4016 51.5682Q60.4348 51.6483 60.4517 51.7333Q60.4686 51.8183 60.4686 51.905Q60.4686 51.9917 60.4517 52.0767Q60.4348 52.1617 60.4016 52.2418Q60.3685 52.3219 60.3203 52.394Q60.2722 52.466 60.2109 52.5273L59.5879 53.1497Q59.5266 53.2109 59.4546 53.2591Q59.3825 53.3072 59.3025 53.3404Q59.2224 53.3735 59.1374 53.3904Q59.0525 53.4073 58.9658 53.4073Q58.8792 53.4073 58.7942 53.3904Q58.7092 53.3735 58.6292 53.3404Q58.5491 53.3072 58.4771 53.2591Q58.405 53.2109 58.3438 53.1497Q58.127 52.9326 57.9961 52.6555Q57.8691 52.3862 57.8379 52.0896Q57.8066 51.7932 57.875 51.5032Q57.9443 51.2051 58.1113 50.9475Q58.1585 50.8748 58.2189 50.8127Q58.2793 50.7506 58.3507 50.7014Q58.4221 50.6523 58.5018 50.618Q58.5814 50.5838 58.6662 50.5657Q58.751 50.5476 58.8377 50.5464Q58.9245 50.5452 59.0098 50.561Q59.0951 50.5767 59.1757 50.6088Q59.2563 50.6408 59.3291 50.688L60.0674 51.1667ZM63.4092 54.4817L64.0322 55.104L63.4092 55.7263L62.7871 55.104L62.7871 55.104L62.7871 55.104L63.4092 54.4817L64.0322 55.104L63.4092 55.7263L62.7871 55.104L63.4092 54.4817ZM62.165 55.7263Q62.1038 55.665 62.0556 55.5929Q62.0075 55.5209 61.9743 55.4408Q61.9412 55.3607 61.9243 55.2757Q61.9074 55.1907 61.9074 55.104Q61.9074 55.0173 61.9243 54.9323Q61.9412 54.8473 61.9743 54.7672Q62.0075 54.6871 62.0556 54.6151Q62.1038 54.543 62.165 54.4817L62.7871 53.8596Q62.8484 53.7983 62.9204 53.7502Q62.9925 53.702 63.0726 53.6688Q63.1527 53.6357 63.2377 53.6187Q63.3227 53.6018 63.4095 53.6018Q63.4962 53.6018 63.5812 53.6187Q63.6663 53.6357 63.7464 53.6688Q63.8266 53.702 63.8987 53.7502Q63.9709 53.7983 64.0322 53.8596Q64.2793 54.1072 64.4131 54.4304Q64.5469 54.7539 64.5469 55.104Q64.5469 55.4541 64.4131 55.7776Q64.2793 56.1011 64.0322 56.3486Q63.9709 56.4099 63.8987 56.458Q63.8266 56.5062 63.7464 56.5393Q63.6663 56.5725 63.5812 56.5894Q63.4962 56.6063 63.4095 56.6063Q63.3227 56.6063 63.2377 56.5894Q63.1527 56.5725 63.0726 56.5393Q62.9925 56.5062 62.9204 56.458Q62.8484 56.4099 62.7871 56.3486L62.165 55.7263ZM55.7266 63.4089L55.1045 64.0312L54.4824 63.4089L55.1045 62.7866L55.1045 62.7866L55.7266 63.4089L55.1045 64.0312L54.4824 63.4089L55.1045 62.7866L55.7266 63.4089ZM54.4824 62.1643Q54.5437 62.103 54.6157 62.0549Q54.6878 62.0068 54.7678 61.9736Q54.8479 61.9404 54.9329 61.9235Q55.0178 61.9066 55.1045 61.9066Q55.1911 61.9066 55.2761 61.9235Q55.3611 61.9404 55.4411 61.9736Q55.5212 62.0068 55.5932 62.0549Q55.6653 62.103 55.7266 62.1643L56.3496 62.7866Q56.4109 62.8479 56.459 62.92Q56.5071 62.9921 56.5403 63.0721Q56.5735 63.1522 56.5904 63.2372Q56.6073 63.3222 56.6073 63.4089Q56.6073 63.4956 56.5904 63.5806Q56.5735 63.6656 56.5403 63.7457Q56.5071 63.8258 56.459 63.8979Q56.4109 63.97 56.3496 64.0312Q56.0967 64.2839 55.7666 64.4177Q55.4482 64.5466 55.1045 64.5466Q54.7607 64.5466 54.4424 64.4177Q54.1133 64.2839 53.8604 64.0312Q53.7991 63.97 53.7509 63.8979Q53.7028 63.8258 53.6696 63.7457Q53.6365 63.6656 53.6196 63.5806Q53.6027 63.4956 53.6027 63.4089Q53.6027 63.3222 53.6196 63.2372Q53.6365 63.1522 53.6696 63.0721Q53.7028 62.9921 53.7509 62.92Q53.7991 62.8479 53.8604 62.7866L54.4824 62.1643ZM51.4551 59.1375L52.0771 58.5151L52.7002 59.1375L52.0771 59.7595Q52.0771 59.7595 52.0771 59.7595L51.5664 59.0435L52.2822 58.532L52.7939 59.2483L52.0771 59.7595L51.4551 59.1375ZM52.7002 60.3818Q52.6484 60.4333 52.5889 60.4758Q52.5184 60.5262 52.4394 60.5618Q52.3604 60.5974 52.276 60.617Q52.1916 60.6365 52.1049 60.6392Q52.0183 60.6418 51.9328 60.6276Q51.8473 60.6133 51.7663 60.5826Q51.6852 60.552 51.6116 60.5061Q51.5381 60.4602 51.4749 60.4009Q51.4117 60.3415 51.3613 60.271L50.8496 59.5547Q50.7993 59.4842 50.7637 59.4052Q50.7281 59.3262 50.7086 59.2417Q50.6892 59.1573 50.6865 59.0707Q50.6838 58.984 50.6981 58.8985Q50.7124 58.8131 50.7431 58.732Q50.7737 58.6509 50.8196 58.5774Q50.8655 58.5039 50.9249 58.4407Q50.9842 58.3775 51.0547 58.3271Q51.3135 58.1426 51.6191 58.0603Q51.916 57.9802 52.2227 58.0056Q52.5303 58.031 52.8096 58.1589Q53.0977 58.2905 53.3223 58.5151Q53.3835 58.5764 53.4317 58.6485Q53.4798 58.7206 53.513 58.8006Q53.5461 58.8807 53.563 58.9657Q53.5799 59.0507 53.5799 59.1374Q53.5799 59.224 53.563 59.309Q53.5461 59.394 53.513 59.4741Q53.4798 59.5541 53.4317 59.6262Q53.3835 59.6982 53.3223 59.7595L52.7002 60.3818ZM39.8262 64.7932L39.6621 63.9285L40.5273 63.7646L40.6914 64.6292L40.6914 64.6292L39.8105 64.6292L39.8105 63.7493L40.6914 63.7493L40.6914 64.6292L39.8262 64.7932ZM41.5557 64.4651Q41.5713 64.5464 41.5713 64.6292Q41.5713 64.7158 41.5544 64.8008Q41.5375 64.8859 41.5043 64.966Q41.4711 65.046 41.423 65.1181Q41.3749 65.1902 41.3136 65.2515Q41.2523 65.3128 41.1802 65.3609Q41.1082 65.4091 41.0281 65.4423Q40.9481 65.4754 40.8631 65.4924Q40.7781 65.5093 40.6914 65.5093L39.8105 65.5093Q39.7239 65.5093 39.6389 65.4924Q39.5539 65.4754 39.4738 65.4423Q39.3938 65.4091 39.3217 65.3609Q39.2497 65.3128 39.1884 65.2515Q39.1271 65.1902 39.0789 65.1181Q39.0308 65.046 38.9976 64.966Q38.9645 64.8859 38.9476 64.8008Q38.9307 64.7158 38.9307 64.6292Q38.9307 64.3169 39.0381 64.0242Q39.1426 63.74 39.3359 63.5066Q39.5293 63.2732 39.7891 63.1179Q40.0566 62.9583 40.3633 62.8999Q40.4484 62.8838 40.535 62.8845Q40.6217 62.8853 40.7065 62.903Q40.7913 62.9207 40.8711 62.9546Q40.9508 62.9885 41.0224 63.0373Q41.0941 63.0861 41.1548 63.1479Q41.2155 63.2097 41.263 63.2822Q41.3105 63.3547 41.343 63.4351Q41.3754 63.5154 41.3916 63.6006L41.5557 64.4651ZM41.5713 68.76L41.5713 69.6399L40.6914 69.6399L40.6914 68.76L40.6914 68.76L41.5713 68.76L41.5713 69.6399L40.6914 69.6399L40.6914 68.76L41.5713 68.76ZM39.8105 68.76Q39.8105 68.6733 39.8275 68.5883Q39.8444 68.5033 39.8776 68.4233Q39.9108 68.3432 39.959 68.2712Q40.0072 68.1991 40.0685 68.1378Q40.1299 68.0766 40.202 68.0284Q40.2742 67.9803 40.3543 67.9471Q40.4345 67.9139 40.5196 67.897Q40.6046 67.8801 40.6914 67.8801L41.5713 67.8801Q41.6579 67.8801 41.7429 67.897Q41.8279 67.9139 41.908 67.9471Q41.9881 67.9803 42.0601 68.0284Q42.1322 68.0766 42.1935 68.1378Q42.2547 68.1991 42.3029 68.2712Q42.351 68.3432 42.3842 68.4233Q42.4174 68.5033 42.4343 68.5883Q42.4512 68.6733 42.4512 68.76Q42.4512 69.1174 42.3125 69.4453Q42.1787 69.7615 41.9355 70.0046Q41.6924 70.2478 41.376 70.3813Q41.0488 70.52 40.6914 70.52Q40.6046 70.52 40.5196 70.5031Q40.4345 70.4862 40.3543 70.453Q40.2742 70.4198 40.202 70.3717Q40.1299 70.3235 40.0685 70.2622Q40.0072 70.2009 39.959 70.1289Q39.9108 70.0568 39.8776 69.9767Q39.8444 69.8966 39.8275 69.8116Q39.8105 69.7266 39.8105 69.6399L39.8105 68.76ZM29.8262 69.6399L28.9463 69.6399L28.9463 68.76L29.8262 68.76L29.8262 68.76L29.8262 69.6399L28.9463 69.6399L28.9463 68.76L29.8262 68.76L29.8262 69.6399ZM29.8262 67.8801Q29.9128 67.8801 29.9978 67.897Q30.0828 67.9139 30.1629 67.9471Q30.2429 67.9803 30.315 68.0284Q30.3871 68.0766 30.4483 68.1378Q30.5096 68.1991 30.5578 68.2712Q30.6059 68.3432 30.6391 68.4233Q30.6722 68.5033 30.6891 68.5883Q30.7061 68.6733 30.7061 68.76L30.7061 69.6399Q30.7061 69.7266 30.6891 69.8116Q30.6722 69.8966 30.6391 69.9767Q30.6059 70.0568 30.5578 70.1289Q30.5096 70.2009 30.4483 70.2622Q30.3871 70.3235 30.315 70.3717Q30.2429 70.4198 30.1629 70.453Q30.0828 70.4862 29.9978 70.5031Q29.9128 70.52 29.8262 70.52Q29.4688 70.52 29.1406 70.3813Q28.8252 70.2478 28.582 70.0046Q28.3389 69.7615 28.2051 69.4453Q28.0664 69.1174 28.0664 68.76Q28.0664 68.6733 28.0833 68.5883Q28.1002 68.5033 28.1334 68.4233Q28.1665 68.3432 28.2147 68.2712Q28.2628 68.1991 28.3241 68.1378Q28.3854 68.0766 28.4575 68.0284Q28.5295 67.9803 28.6096 67.9471Q28.6896 67.9139 28.7746 67.897Q28.8596 67.8801 28.9463 67.8801L29.8262 67.8801ZM29.8262 63.7485L30.7061 63.7485L30.7061 64.6287L29.8262 64.6287L29.8262 64.6287L29.9902 63.7639L30.8545 63.928L30.6904 64.7927L29.8262 64.6287L29.8262 63.7485ZM29.8262 65.5085Q29.7432 65.5085 29.6621 65.4932Q29.577 65.477 29.4967 65.4445Q29.4163 65.4121 29.3439 65.3646Q29.2714 65.3171 29.2096 65.2563Q29.1478 65.1956 29.099 65.1239Q29.0503 65.0523 29.0164 64.9725Q28.9826 64.8928 28.9649 64.8079Q28.9473 64.7231 28.9465 64.6364Q28.9458 64.5497 28.9619 64.4646L29.126 63.5999Q29.1421 63.5147 29.1746 63.4343Q29.207 63.354 29.2545 63.2815Q29.302 63.209 29.3628 63.1472Q29.4235 63.0854 29.4951 63.0366Q29.5667 62.9878 29.6465 62.954Q29.7262 62.9201 29.8111 62.9024Q29.8959 62.8848 29.9825 62.884Q30.0692 62.8833 30.1543 62.8994Q30.4609 62.9578 30.7285 63.1174Q30.9883 63.2727 31.1816 63.5061Q31.375 63.7395 31.4795 64.0237Q31.5859 64.3162 31.5859 64.6287Q31.5859 64.7153 31.569 64.8003Q31.5521 64.8853 31.519 64.9654Q31.4858 65.0454 31.4376 65.1175Q31.3895 65.1895 31.3282 65.2508Q31.2669 65.3121 31.1949 65.3603Q31.1228 65.4084 31.0428 65.4416Q30.9627 65.4747 30.8777 65.4916Q30.7927 65.5085 30.7061 65.5085L29.8262 65.5085ZM17.7266 59.2483L18.2373 58.532L18.9541 59.0435L18.4424 59.7595Q18.4424 59.7595 18.4424 59.7595L17.8203 59.1375L18.4424 58.5151L19.0645 59.1375L18.4424 59.7595L17.7266 59.2483ZM19.1592 60.271Q19.1162 60.3303 19.0645 60.3818Q19.0032 60.4431 18.9311 60.4913Q18.8591 60.5394 18.779 60.5726Q18.699 60.6058 18.614 60.6227Q18.529 60.6396 18.4424 60.6396Q18.3557 60.6396 18.2708 60.6227Q18.1858 60.6058 18.1057 60.5726Q18.0257 60.5394 17.9536 60.4913Q17.8816 60.4431 17.8203 60.3818L17.1982 59.7595Q17.137 59.6982 17.0888 59.6262Q17.0407 59.5541 17.0075 59.4741Q16.9744 59.394 16.9575 59.309Q16.9406 59.224 16.9406 59.1374Q16.9406 59.0507 16.9575 58.9657Q16.9744 58.8807 17.0075 58.8006Q17.0407 58.7206 17.0888 58.6485Q17.137 58.5764 17.1982 58.5151Q17.4229 58.2905 17.7109 58.1589Q17.9902 58.031 18.2969 58.0056Q18.6045 57.9802 18.9014 58.0603Q19.207 58.1428 19.4648 58.3274Q19.5354 58.3777 19.5949 58.4409Q19.6543 58.504 19.7002 58.5775Q19.7461 58.6511 19.7768 58.7321Q19.8075 58.8132 19.8218 58.8987Q19.8361 58.9842 19.8334 59.0708Q19.8307 59.1574 19.8112 59.2419Q19.7916 59.3263 19.756 59.4054Q19.7203 59.4844 19.6699 59.5549L19.1592 60.271ZM16.0342 63.4124L15.4121 64.0347L14.79 63.4124L15.4121 62.79L15.4121 62.79L15.4121 62.79L16.0342 63.4124L15.4121 64.0347L14.79 63.4124L15.4121 62.79L16.0342 63.4124ZM14.79 62.1677Q14.8513 62.1065 14.9234 62.0583Q14.9954 62.0102 15.0754 61.977Q15.1555 61.9439 15.2405 61.927Q15.3255 61.9101 15.4121 61.9101Q15.4988 61.9101 15.5837 61.927Q15.6687 61.9439 15.7488 61.977Q15.8288 62.0102 15.9009 62.0583Q15.9729 62.1065 16.0342 62.1677L16.6562 62.79Q16.6562 62.79 16.6562 62.79Q16.7176 62.8513 16.7658 62.9234Q16.814 62.9955 16.8472 63.0756Q16.8805 63.1556 16.8974 63.2407Q16.9143 63.3257 16.9143 63.4124Q16.9143 63.499 16.8974 63.584Q16.8805 63.6691 16.8473 63.7491Q16.814 63.8292 16.7658 63.9013Q16.7176 63.9734 16.6562 64.0347Q16.4092 64.2822 16.0859 64.416Q15.7617 64.55 15.4121 64.55Q15.0625 64.55 14.7383 64.416Q14.415 64.2822 14.168 64.0347Q14.168 64.0347 14.168 64.0347Q14.1066 63.9734 14.0584 63.9013Q14.0102 63.8292 13.977 63.7491Q13.9438 63.6691 13.9268 63.584Q13.9099 63.499 13.9099 63.4124Q13.9099 63.3257 13.9268 63.2407Q13.9438 63.1556 13.977 63.0756Q14.0102 62.9955 14.0584 62.9234Q14.1066 62.8513 14.168 62.79L14.79 62.1677ZM7.10742 55.7297L6.48535 55.1074L7.10742 54.4851L7.72949 55.1074L7.72949 55.1074Q7.72949 55.1074 7.72949 55.1074L7.10742 55.7297L6.48535 55.1074L7.10742 54.4851L7.72949 55.1074L7.10742 55.7297ZM8.35156 54.4851Q8.41283 54.5464 8.46097 54.6185Q8.50911 54.6905 8.54227 54.7706Q8.57542 54.8507 8.59233 54.9357Q8.60923 55.0207 8.60923 55.1074Q8.60923 55.1941 8.59233 55.2791Q8.57542 55.3641 8.54227 55.4442Q8.50911 55.5243 8.46097 55.5964Q8.41283 55.6684 8.35156 55.7297L7.72949 56.3521Q7.66822 56.4133 7.59618 56.4615Q7.52414 56.5096 7.44408 56.5428Q7.36403 56.5759 7.27905 56.5928Q7.19407 56.6097 7.10742 56.6097Q7.02078 56.6097 6.93579 56.5928Q6.85081 56.5759 6.77076 56.5428Q6.69071 56.5096 6.61866 56.4615Q6.54662 56.4133 6.48535 56.3521Q6.2373 56.1045 6.10352 55.781Q5.96973 55.4575 5.96973 55.1074Q5.96973 54.7573 6.10352 54.4338Q6.2373 54.1106 6.48535 53.863Q6.54662 53.8017 6.61866 53.7536Q6.69071 53.7054 6.77076 53.6723Q6.85081 53.6391 6.93579 53.6222Q7.02078 53.6053 7.10742 53.6053Q7.19407 53.6053 7.27905 53.6222Q7.36403 53.6391 7.44408 53.6723Q7.52414 53.7054 7.59618 53.7536Q7.66822 53.8017 7.72949 53.863L8.35156 54.4851ZM11.5537 51.2827L12.1768 51.905L11.5537 52.5273L10.9316 51.905L10.9316 51.905L11.6699 51.4263L12.1494 52.1648L11.4102 52.6436L10.9316 51.905L11.5537 51.2827ZM10.3096 52.5273Q10.2441 52.4617 10.1934 52.3838Q10.1462 52.3111 10.1142 52.2306Q10.0822 52.15 10.0664 52.0648Q10.0507 51.9796 10.0519 51.8929Q10.0531 51.8063 10.0712 51.7215Q10.0893 51.6368 10.1236 51.5572Q10.1579 51.4776 10.207 51.4062Q10.2562 51.3348 10.3183 51.2743Q10.3804 51.2139 10.4531 51.1667L11.1914 50.688Q11.2641 50.6408 11.3446 50.6088Q11.4251 50.5767 11.5104 50.561Q11.5956 50.5452 11.6822 50.5464Q11.7689 50.5476 11.8536 50.5657Q11.9383 50.5838 12.0179 50.618Q12.0975 50.6523 12.1689 50.7014Q12.2403 50.7506 12.3007 50.8127Q12.3611 50.8748 12.4082 50.9475Q12.5752 51.2051 12.6455 51.5032Q12.7139 51.7932 12.6826 52.0896Q12.6514 52.3862 12.5244 52.6555Q12.3936 52.9326 12.1768 53.1497Q12.1154 53.2109 12.0433 53.2591Q11.9711 53.3072 11.891 53.3404Q11.8108 53.3735 11.7258 53.3904Q11.6407 53.4073 11.554 53.4073Q11.4673 53.4073 11.3822 53.3904Q11.2972 53.3735 11.2171 53.3404Q11.137 53.3072 11.065 53.2591Q10.9929 53.2109 10.9316 53.1497L10.3096 52.5273ZM6.50195 39.8213L7.37207 39.6851L7.50781 40.5544L6.63867 40.6907L6.63867 40.6907L6.63867 39.8108L7.51855 39.8108L7.51855 40.6907L6.63867 40.6907L6.50195 39.8213ZM6.77539 41.5601Q6.70703 41.5708 6.63867 41.5708Q6.55201 41.5708 6.46701 41.5539Q6.38202 41.537 6.30195 41.5038Q6.22189 41.4706 6.14983 41.4225Q6.07778 41.3743 6.0165 41.313Q5.95522 41.2517 5.90708 41.1796Q5.85893 41.1076 5.82577 41.0275Q5.7926 40.9474 5.7757 40.8624Q5.75879 40.7774 5.75879 40.6907L5.75879 39.8108Q5.75879 39.7241 5.7757 39.6391Q5.7926 39.5541 5.82577 39.474Q5.85893 39.3939 5.90707 39.3218Q5.95522 39.2497 6.0165 39.1884Q6.07778 39.1271 6.14983 39.079Q6.22189 39.0308 6.30195 38.9977Q6.38202 38.9645 6.46701 38.9476Q6.55201 38.9307 6.63867 38.9307Q6.95898 38.9307 7.25684 39.043Q7.54688 39.1519 7.78223 39.3533Q8.01855 39.5549 8.1709 39.8242Q8.32812 40.1018 8.37695 40.418Q8.39042 40.5036 8.38692 40.5902Q8.38343 40.6768 8.36311 40.7611Q8.34279 40.8453 8.30643 40.924Q8.27007 41.0026 8.21906 41.0727Q8.16805 41.1427 8.10436 41.2015Q8.04066 41.2602 7.96673 41.3054Q7.8928 41.3506 7.81146 41.3805Q7.73013 41.4104 7.64453 41.4238L6.77539 41.5601ZM1.75977 41.5708L0.879883 41.5708L0.879883 40.6907L1.75977 40.6907L1.75977 40.6907L1.75977 41.5708L0.879883 41.5708L0.879883 40.6907L1.75977 40.6907L1.75977 41.5708ZM1.75977 39.8108Q1.84643 39.8108 1.93142 39.8277Q2.01642 39.8446 2.09648 39.8778Q2.17655 39.9109 2.2486 39.9591Q2.32066 40.0072 2.38194 40.0685Q2.44321 40.1298 2.49136 40.2018Q2.53951 40.2739 2.57267 40.354Q2.60583 40.434 2.62274 40.519Q2.63965 40.604 2.63965 40.6907L2.63965 41.5708Q2.63965 41.6575 2.62274 41.7425Q2.60583 41.8274 2.57267 41.9075Q2.53951 41.9876 2.49136 42.0596Q2.44321 42.1317 2.38194 42.193Q2.32066 42.2542 2.2486 42.3024Q2.17655 42.3505 2.09648 42.3837Q2.01642 42.4169 1.93142 42.4338Q1.84643 42.4507 1.75977 42.4507Q1.40234 42.4507 1.07422 42.312Q0.758789 42.1785 0.515625 41.9353Q0.272461 41.6921 0.138672 41.3762Q0 41.0483 0 40.6907Q0 40.604 0.0169067 40.519Q0.0338134 40.434 0.0669771 40.354Q0.100141 40.2739 0.148287 40.2018Q0.196433 40.1298 0.257712 40.0685Q0.31899 40.0072 0.391046 39.9591Q0.463102 39.9109 0.543166 39.8778Q0.62323 39.8446 0.708226 39.8277Q0.793222 39.8108 0.879883 39.8108L1.75977 39.8108ZM0.879883 29.8259L0.879883 28.9458L1.75977 28.9458L1.75977 29.8259Q1.75977 29.8259 1.75977 29.8259L0.879883 29.8259L0.879883 28.9458L1.75977 28.9458L1.75977 29.8259L0.879883 29.8259ZM2.63965 29.8259Q2.63965 29.9126 2.62274 29.9976Q2.60583 30.0826 2.57267 30.1626Q2.53951 30.2427 2.49136 30.3148Q2.44321 30.3868 2.38194 30.4481Q2.32066 30.5094 2.2486 30.5575Q2.17655 30.6057 2.09648 30.6388Q2.01642 30.672 1.93142 30.6889Q1.84643 30.7058 1.75977 30.7058L0.879883 30.7058Q0.793222 30.7058 0.708226 30.6889Q0.62323 30.672 0.543166 30.6388Q0.463102 30.6057 0.391046 30.5575Q0.31899 30.5094 0.257712 30.4481Q0.196433 30.3868 0.148287 30.3148Q0.100141 30.2427 0.0669771 30.1626Q0.0338134 30.0826 0.0169067 29.9976Q0 29.9126 0 29.8259Q0 29.4685 0.138672 29.1406Q0.272461 28.8245 0.515625 28.5813Q0.758789 28.3381 1.07422 28.2046Q1.40234 28.0659 1.75977 28.0659Q1.84643 28.0659 1.93142 28.0828Q2.01642 28.0997 2.09648 28.1329Q2.17655 28.1661 2.2486 28.2142Q2.32066 28.2623 2.38194 28.3236Q2.44321 28.3849 2.49136 28.457Q2.53951 28.529 2.57267 28.6091Q2.60583 28.6891 2.62274 28.7741Q2.63965 28.8591 2.63965 28.9458L2.63965 29.8259ZM7.8623 29.8259L7.8623 30.7058L6.98242 30.7058L6.98242 29.8259L6.98242 29.8259L7.8418 30.0176L7.64941 30.8765L6.79102 30.6848L6.98242 29.8259L7.8623 29.8259ZM6.10254 29.8259Q6.10254 29.729 6.12402 29.6343Q6.14288 29.5497 6.17786 29.4704Q6.21284 29.3911 6.26261 29.3202Q6.31238 29.2493 6.37503 29.1894Q6.43767 29.1296 6.51079 29.0831Q6.5839 29.0366 6.66467 29.0053Q6.74544 28.974 6.83076 28.9591Q6.91609 28.9441 7.00268 28.9462Q7.08928 28.9482 7.17383 28.967L8.0332 29.1587Q8.11775 29.1776 8.19699 29.2126Q8.27623 29.2476 8.34713 29.2974Q8.41802 29.3472 8.47785 29.4099Q8.53767 29.4726 8.58412 29.5458Q8.63057 29.6189 8.66187 29.6998Q8.69316 29.7806 8.7081 29.866Q8.72304 29.9513 8.72104 30.038Q8.71905 30.1246 8.7002 30.2092Q8.63379 30.5066 8.47168 30.7639Q8.31445 31.0142 8.08301 31.1992Q7.85254 31.3845 7.57324 31.4839Q7.28711 31.5859 6.98242 31.5859Q6.89576 31.5859 6.81076 31.569Q6.72577 31.5521 6.6457 31.5189Q6.56564 31.4858 6.49358 31.4376Q6.42153 31.3894 6.36025 31.3282Q6.29897 31.2669 6.25083 31.1948Q6.20268 31.1227 6.16952 31.0426Q6.13635 30.9625 6.11944 30.8775Q6.10254 30.7925 6.10254 30.7058L6.10254 29.8259ZM12.1758 18.6306L12.8926 19.1421L12.3809 19.8582L11.665 19.3469L11.665 19.3469L12.2871 18.7246L12.9092 19.3469L12.2871 19.969L11.665 19.3469L12.1758 18.6306ZM11.1533 20.063Q11.0938 20.0208 11.043 19.969Q10.9816 19.9077 10.9334 19.8357Q10.8852 19.7636 10.852 19.6836Q10.8188 19.6035 10.8018 19.5185Q10.7849 19.4335 10.7849 19.3469Q10.7849 19.2602 10.8018 19.1752Q10.8188 19.0902 10.852 19.0101Q10.8852 18.93 10.9334 18.858Q10.9816 18.7859 11.043 18.7246L11.665 18.1023Q11.7263 18.041 11.7984 17.9928Q11.8704 17.9447 11.9504 17.9115Q12.0305 17.8783 12.1155 17.8614Q12.2005 17.8445 12.2871 17.8445Q12.3738 17.8445 12.4587 17.8614Q12.5437 17.8783 12.6238 17.9115Q12.7038 17.9447 12.7759 17.9928Q12.8479 18.041 12.9092 18.1023Q13.1338 18.3269 13.2656 18.615Q13.3936 18.8945 13.4189 19.2014Q13.4443 19.5083 13.3643 19.8052Q13.2822 20.1111 13.0977 20.3696Q13.0473 20.4402 12.9841 20.4995Q12.9209 20.5588 12.8473 20.6047Q12.7738 20.6506 12.6927 20.6813Q12.6116 20.712 12.5262 20.7262Q12.4407 20.7405 12.354 20.7378Q12.2674 20.7351 12.183 20.7156Q12.0986 20.6961 12.0196 20.6604Q11.9406 20.6248 11.8701 20.5745L11.1533 20.063ZM7.10645 16.0327L6.48438 15.4104L7.10645 14.7883L7.72852 15.4104L7.72852 15.4104L7.10645 16.0327L6.48438 15.4104L7.10645 14.7883L7.72852 15.4104L7.10645 16.0327ZM8.35059 14.7883Q8.41185 14.8496 8.45999 14.9216Q8.50813 14.9937 8.54129 15.0738Q8.57445 15.1538 8.59135 15.2388Q8.60826 15.3238 8.60826 15.4105Q8.60826 15.4971 8.59135 15.5821Q8.57445 15.6671 8.54129 15.7472Q8.50813 15.8273 8.45999 15.8994Q8.41185 15.9714 8.35059 16.0327L7.72852 16.655Q7.72852 16.655 7.72852 16.655Q7.66725 16.7163 7.5952 16.7645Q7.52316 16.8126 7.44311 16.8458Q7.36305 16.879 7.27807 16.8959Q7.19309 16.9128 7.10644 16.9128Q7.0198 16.9128 6.93481 16.8959Q6.84983 16.879 6.76978 16.8458Q6.68973 16.8126 6.61769 16.7645Q6.54564 16.7163 6.48438 16.655Q6.23145 16.4023 6.09766 16.0723Q5.96875 15.7544 5.96875 15.4104Q5.96875 15.0667 6.09766 14.7485Q6.23145 14.4187 6.48438 14.166Q6.48438 14.166 6.48438 14.166Q6.54564 14.1047 6.61769 14.0566Q6.68973 14.0084 6.76978 13.9752Q6.84983 13.9421 6.93481 13.9252Q7.0198 13.9082 7.10644 13.9082Q7.19309 13.9082 7.27807 13.9252Q7.36305 13.9421 7.44311 13.9752Q7.52316 14.0084 7.5952 14.0566Q7.66725 14.1047 7.72852 14.166L8.35059 14.7883ZM14.7891 7.10571L15.4111 6.4834L16.0332 7.10571L15.4111 7.72778Q15.4111 7.72778 15.4111 7.72778L14.7891 7.10571L15.4111 6.4834L16.0332 7.10571L15.4111 7.72778L14.7891 7.10571ZM16.0332 8.3501Q15.9719 8.41139 15.8999 8.45955Q15.8278 8.5077 15.7478 8.54087Q15.6677 8.57405 15.5828 8.59096Q15.4978 8.60787 15.4111 8.60787Q15.3245 8.60787 15.2395 8.59096Q15.1545 8.57405 15.0745 8.54087Q14.9944 8.5077 14.9224 8.45955Q14.8503 8.41139 14.7891 8.3501L14.167 7.72778Q14.167 7.72778 14.167 7.72778Q14.1056 7.66651 14.0574 7.59447Q14.0092 7.52242 13.976 7.44236Q13.9428 7.3623 13.9258 7.2773Q13.9089 7.1923 13.9089 7.10564Q13.9089 7.01898 13.9258 6.93397Q13.9428 6.84897 13.976 6.7689Q14.0092 6.68883 14.0574 6.61676Q14.1056 6.54469 14.167 6.4834Q14.4189 6.23071 14.749 6.09692Q15.0674 5.96777 15.4111 5.96777Q15.7549 5.96777 16.0732 6.09692Q16.4033 6.23071 16.6553 6.4834Q16.7166 6.54469 16.7649 6.61676Q16.8131 6.68883 16.8463 6.7689Q16.8795 6.84897 16.8964 6.93397Q16.9133 7.01898 16.9133 7.10564Q16.9133 7.1923 16.8964 7.2773Q16.8795 7.3623 16.8463 7.44236Q16.8131 7.52242 16.7649 7.59447Q16.7166 7.66651 16.6553 7.72778L16.0332 8.3501ZM20.1416 12.4585L19.5195 13.0806L18.8975 12.4585L19.5195 11.8362L19.5195 11.8362L19.998 12.5745L19.2598 13.0532L18.7812 12.3149L19.5195 11.8362L20.1416 12.4585ZM18.8975 11.2139Q18.9629 11.1482 19.041 11.0977Q19.1137 11.0505 19.1942 11.0184Q19.2748 10.9864 19.36 10.9707Q19.4452 10.9549 19.5318 10.9561Q19.6185 10.9573 19.7032 10.9754Q19.788 10.9935 19.8675 11.0278Q19.9471 11.0621 20.0185 11.1112Q20.0899 11.1604 20.1503 11.2225Q20.2107 11.2847 20.2578 11.3574L20.7363 12.0957Q20.7835 12.1684 20.8155 12.249Q20.8475 12.3295 20.8632 12.4148Q20.879 12.5 20.8778 12.5867Q20.8765 12.6734 20.8585 12.7581Q20.8404 12.8429 20.8061 12.9225Q20.7718 13.0022 20.7227 13.0736Q20.6735 13.145 20.6114 13.2054Q20.5493 13.2658 20.4766 13.313Q20.2197 13.48 19.9209 13.5498Q19.6309 13.6177 19.335 13.5864Q19.0381 13.5552 18.7686 13.4282Q18.4922 13.2976 18.2744 13.0806Q18.2131 13.0193 18.165 12.9472Q18.1169 12.8752 18.0837 12.7951Q18.0506 12.7151 18.0336 12.6301Q18.0167 12.5451 18.0167 12.4584Q18.0167 12.3718 18.0336 12.2868Q18.0506 12.2018 18.0837 12.1217Q18.1169 12.0416 18.165 11.9695Q18.2131 11.8975 18.2744 11.8362L18.8975 11.2139ZM30.6904 7.53613L30.8545 8.40063L29.9902 8.5647L29.8262 7.7002L29.8262 7.7002L30.7061 7.7002L30.7061 8.58008L29.8262 8.58008L29.8262 7.7002L30.6904 7.53613ZM28.9619 7.86426Q28.9463 7.78296 28.9463 7.7002Q28.9463 7.61351 28.9632 7.52849Q28.9801 7.44347 29.0133 7.36338Q29.0464 7.2833 29.0946 7.21122Q29.1427 7.13915 29.204 7.07785Q29.2653 7.01656 29.3373 6.9684Q29.4094 6.92024 29.4895 6.88706Q29.5695 6.85389 29.6545 6.83698Q29.7395 6.82007 29.8262 6.82007L30.7061 6.82007Q30.7927 6.82007 30.8777 6.83698Q30.9627 6.85389 31.0428 6.88706Q31.1228 6.92024 31.1949 6.9684Q31.2669 7.01656 31.3282 7.07785Q31.3895 7.13915 31.4376 7.21122Q31.4858 7.2833 31.519 7.36338Q31.5521 7.44347 31.569 7.52849Q31.5859 7.61351 31.5859 7.7002Q31.5859 8.01245 31.4795 8.30493Q31.375 8.58911 31.1816 8.82275Q30.9883 9.05615 30.7285 9.21143Q30.4609 9.37109 30.1543 9.4292Q30.0692 9.44536 29.9825 9.44459Q29.8959 9.44383 29.8111 9.42618Q29.7262 9.40852 29.6465 9.37465Q29.5667 9.34078 29.4951 9.292Q29.4235 9.24322 29.3628 9.1814Q29.302 9.11958 29.2545 9.0471Q29.207 8.97462 29.1746 8.89426Q29.1421 8.81391 29.126 8.72876L28.9619 7.86426ZM40.6914 1.76001L29.8262 1.76001L29.8262 0.880127L30.7061 0.880127L30.7061 2.63989L29.8262 2.63989L29.8262 1.76001L40.6914 1.76001L40.6914 2.63989L39.8105 2.63989L39.8105 0.880127L40.6914 0.880127L40.6914 1.76001ZM40.6914 0Q40.7781 0 40.8631 0.0169114Q40.9481 0.0338228 41.0281 0.0669957Q41.1082 0.100169 41.1802 0.148328Q41.2523 0.196488 41.3136 0.257783Q41.3749 0.319079 41.423 0.391155Q41.4711 0.46323 41.5043 0.543317Q41.5375 0.623403 41.5544 0.708423Q41.5713 0.793442 41.5713 0.880127L41.5713 2.63989Q41.5713 2.72658 41.5544 2.8116Q41.5375 2.89662 41.5043 2.9767Q41.4711 3.05679 41.423 3.12886Q41.3749 3.20094 41.3136 3.26224Q41.2523 3.32353 41.1802 3.37169Q41.1082 3.41985 41.0281 3.45302Q40.9481 3.4862 40.8631 3.50311Q40.7781 3.52002 40.6914 3.52002L29.8262 3.52002Q29.7395 3.52002 29.6545 3.50311Q29.5695 3.4862 29.4895 3.45302Q29.4094 3.41985 29.3373 3.37169Q29.2653 3.32353 29.204 3.26224Q29.1427 3.20094 29.0946 3.12886Q29.0464 3.05679 29.0133 2.9767Q28.9801 2.89662 28.9632 2.8116Q28.9463 2.72658 28.9463 2.63989L28.9463 0.880127Q28.9463 0.793442 28.9632 0.708423Q28.9801 0.623403 29.0133 0.543317Q29.0464 0.46323 29.0946 0.391155Q29.1427 0.319079 29.204 0.257783Q29.2653 0.196488 29.3373 0.148328Q29.4094 0.100169 29.4895 0.0669957Q29.5695 0.0338228 29.6545 0.0169114Q29.7395 0 29.8262 0L40.6914 0ZM40.6914 7.69946L40.6914 1.76001L41.5713 1.76001L41.5713 2.63989L39.8105 2.63989L39.8105 1.76001L40.6914 1.76001L40.6914 7.69946L39.8105 7.69946L39.8105 6.81958L41.5713 6.81958L41.5713 7.69946L40.6914 7.69946ZM42.4512 7.69946Q42.4512 7.78615 42.4343 7.87117Q42.4174 7.95619 42.3842 8.03627Q42.351 8.11636 42.3029 8.18843Q42.2547 8.26051 42.1935 8.32181Q42.1322 8.3831 42.0601 8.43126Q41.9881 8.47942 41.908 8.51259Q41.8279 8.54577 41.7429 8.56268Q41.6579 8.57959 41.5713 8.57959L39.8105 8.57959Q39.7239 8.57959 39.6389 8.56268Q39.5539 8.54577 39.4738 8.51259Q39.3938 8.47942 39.3217 8.43126Q39.2497 8.3831 39.1884 8.32181Q39.1271 8.26051 39.0789 8.18843Q39.0308 8.11636 38.9976 8.03627Q38.9645 7.95619 38.9476 7.87117Q38.9307 7.78615 38.9307 7.69946L38.9307 1.76001Q38.9307 1.67335 38.9476 1.58835Q38.9645 1.50336 38.9976 1.42329Q39.0308 1.34323 39.0789 1.27117Q39.1271 1.19912 39.1884 1.13784Q39.2497 1.07656 39.3217 1.02841Q39.3938 0.980268 39.4738 0.947104Q39.5539 0.91394 39.6389 0.897034Q39.7239 0.880127 39.8105 0.880127L41.5713 0.880127Q41.6579 0.880127 41.7429 0.897034Q41.8279 0.91394 41.908 0.947104Q41.9881 0.980268 42.0601 1.02841Q42.1322 1.07656 42.1935 1.13784Q42.2547 1.19912 42.3029 1.27117Q42.351 1.34323 42.3842 1.42329Q42.4174 1.50336 42.4343 1.58835Q42.4512 1.67335 42.4512 1.76001L42.4512 7.69946ZM51.001 11.8362Q48.666 10.3225 46.0928 9.28442Q43.4707 8.22681 40.6914 7.69946L40.8555 6.83496L41.7197 6.99902L41.3916 8.72803L40.5273 8.56421L40.6914 7.69946Q43.4707 8.22681 46.0928 9.28442Q48.666 10.3225 51.001 11.8362L50.5225 12.5745L49.7832 12.0957L50.7412 10.6191L51.4795 11.0977L51.001 11.8362ZM51.958 10.3594Q52.0307 10.4065 52.0928 10.467Q52.155 10.5274 52.2041 10.5988Q52.2533 10.6702 52.2875 10.7498Q52.3218 10.8294 52.3399 10.9141Q52.358 10.9989 52.3592 11.0856Q52.3604 11.1722 52.3447 11.2574Q52.329 11.3427 52.2969 11.4232Q52.2649 11.5037 52.2178 11.5764L51.2607 13.0532Q51.2135 13.126 51.153 13.1881Q51.0925 13.2502 51.021 13.2994Q50.9496 13.3486 50.8699 13.3828Q50.7903 13.4171 50.7054 13.4352Q50.6206 13.4533 50.5339 13.4545Q50.4472 13.4557 50.362 13.44Q50.2767 13.4243 50.1962 13.3922Q50.1157 13.3601 50.043 13.313Q47.8506 11.8914 45.4346 10.9167Q42.9727 9.92358 40.3633 9.42871Q40.2781 9.41258 40.1976 9.38014Q40.1172 9.3477 40.0447 9.30019Q39.9721 9.2527 39.9102 9.19196Q39.8484 9.13123 39.7995 9.0596Q39.7507 8.98796 39.7168 8.90818Q39.6829 8.8284 39.6652 8.74354Q39.6475 8.65868 39.6467 8.572Q39.646 8.48532 39.6621 8.40015L39.9902 6.67114Q40.0064 6.58597 40.0388 6.50559Q40.0713 6.42521 40.1188 6.35271Q40.1663 6.2802 40.227 6.21836Q40.2878 6.15653 40.3594 6.10773Q40.431 6.05893 40.5107 6.02505Q40.5905 5.99116 40.6753 5.9735Q40.7602 5.95583 40.8468 5.95507Q40.9334 5.9543 41.0186 5.97046Q43.9688 6.52979 46.751 7.65234Q49.4814 8.75366 51.958 10.3594ZM51.001 11.8362L55.1055 7.7312L55.7275 8.35352L55.1055 8.97583L53.8613 7.7312L54.4834 7.10913L55.1055 7.7312L51.001 11.8362L50.3789 11.2139L51.001 10.5916L52.2451 11.8362L51.623 12.4585L51.001 11.8362ZM52.2451 13.0806Q52.1838 13.1419 52.1118 13.19Q52.0397 13.2382 51.9597 13.2713Q51.8797 13.3045 51.7947 13.3214Q51.7097 13.3383 51.623 13.3383Q51.5364 13.3383 51.4514 13.3214Q51.3664 13.3045 51.2864 13.2713Q51.2063 13.2382 51.1343 13.19Q51.0622 13.1419 51.001 13.0806L49.7559 11.8362Q49.6946 11.7749 49.6465 11.7028Q49.5983 11.6307 49.5651 11.5507Q49.532 11.4706 49.5151 11.3856Q49.4982 11.3005 49.4982 11.2139Q49.4982 11.1272 49.5151 11.0422Q49.532 10.9572 49.5652 10.8771Q49.5983 10.797 49.6465 10.7249Q49.6946 10.6528 49.7559 10.5916L53.8613 6.48682Q53.9226 6.42552 53.9946 6.37737Q54.0667 6.32921 54.1467 6.29604Q54.2268 6.26287 54.3118 6.24596Q54.3967 6.22905 54.4834 6.22905Q54.57 6.22905 54.655 6.24596Q54.74 6.26287 54.8201 6.29604Q54.9001 6.32921 54.9722 6.37737Q55.0442 6.42552 55.1055 6.48682L56.3506 7.7312Q56.4119 7.79249 56.46 7.86457Q56.5081 7.93664 56.5413 8.01672Q56.5744 8.0968 56.5914 8.18182Q56.6083 8.26683 56.6083 8.35352Q56.6083 8.4402 56.5914 8.52521Q56.5744 8.61023 56.5413 8.69031Q56.5081 8.77039 56.46 8.84246Q56.4119 8.91454 56.3506 8.97583L52.2451 13.0806ZM55.1055 7.7312L62.7881 15.4138L62.166 16.0361L61.5439 15.4138L62.7881 14.1694L63.4102 14.7917L62.7881 15.4138L55.1055 7.7312L55.7275 7.10913L56.3506 7.7312L55.1055 8.97583L54.4834 8.35352L55.1055 7.7312ZM53.8613 8.97583Q53.8001 8.91454 53.7519 8.84246Q53.7038 8.77039 53.6706 8.69031Q53.6375 8.61023 53.6206 8.52521Q53.6037 8.4402 53.6037 8.35352Q53.6037 8.26683 53.6206 8.18182Q53.6375 8.0968 53.6706 8.01672Q53.7038 7.93664 53.7519 7.86457Q53.8001 7.79249 53.8613 7.7312L55.1055 6.48682Q55.1667 6.42552 55.2388 6.37737Q55.3109 6.32921 55.3909 6.29604Q55.471 6.26287 55.5561 6.24596Q55.6411 6.22905 55.7278 6.22905Q55.8145 6.22905 55.8996 6.24596Q55.9847 6.26287 56.0648 6.29604Q56.1449 6.32921 56.2171 6.37737Q56.2892 6.42552 56.3506 6.48682L64.0332 14.1694Q64.0945 14.2307 64.1426 14.3028Q64.1907 14.3749 64.2239 14.4549Q64.2571 14.535 64.274 14.62Q64.2909 14.705 64.2909 14.7917Q64.2909 14.8783 64.274 14.9633Q64.2571 15.0483 64.2239 15.1284Q64.1907 15.2085 64.1426 15.2805Q64.0945 15.3525 64.0332 15.4138L62.7881 16.6584Q62.7268 16.7197 62.6548 16.7679Q62.5827 16.8161 62.5027 16.8492Q62.4226 16.8824 62.3376 16.8993Q62.2527 16.9162 62.166 16.9162Q62.0794 16.9162 61.9944 16.8993Q61.9094 16.8824 61.8293 16.8492Q61.7493 16.8161 61.6773 16.7679Q61.6052 16.7197 61.5439 16.6584L53.8613 8.97583ZM62.7881 15.4138L58.8555 19.3469L58.2334 18.7246L58.8555 18.1023L60.0996 19.3469L59.4775 19.969L58.8555 19.3469L62.7881 15.4138L63.4102 16.0361L62.7881 16.6584L61.5439 15.4138L62.166 14.7917L62.7881 15.4138ZM61.5439 14.1694Q61.6052 14.1081 61.6773 14.06Q61.7493 14.0118 61.8293 13.9787Q61.9094 13.9455 61.9944 13.9286Q62.0794 13.9117 62.166 13.9117Q62.2527 13.9117 62.3376 13.9286Q62.4226 13.9455 62.5027 13.9787Q62.5827 14.0118 62.6548 14.06Q62.7268 14.1081 62.7881 14.1694L64.0332 15.4138Q64.0945 15.4751 64.1426 15.5472Q64.1907 15.6193 64.2239 15.6993Q64.2571 15.7794 64.274 15.8644Q64.2909 15.9495 64.2909 16.0361Q64.2909 16.1228 64.274 16.2078Q64.2571 16.2928 64.2239 16.3729Q64.1907 16.453 64.1426 16.5251Q64.0945 16.5972 64.0332 16.6584L60.0996 20.5913Q60.0383 20.6526 59.9663 20.7008Q59.8942 20.7489 59.8142 20.7821Q59.7341 20.8153 59.6492 20.8322Q59.5642 20.8491 59.4775 20.8491Q59.3909 20.8491 59.3059 20.8322Q59.2209 20.8153 59.1409 20.7821Q59.0608 20.7489 58.9888 20.7008Q58.9167 20.6526 58.8555 20.5913L57.6104 19.3469Q57.5491 19.2856 57.5009 19.2136Q57.4528 19.1415 57.4196 19.0614Q57.3865 18.9813 57.3696 18.8963Q57.3527 18.8113 57.3527 18.7246Q57.3527 18.6379 57.3696 18.5529Q57.3865 18.4679 57.4196 18.3878Q57.4528 18.3077 57.5009 18.2357Q57.5491 18.1636 57.6104 18.1023L61.5439 14.1694ZM63.5381 29.8259Q62.9014 26.9749 61.7041 24.3088Q60.5283 21.6899 58.8555 19.3469L59.5713 18.8354L60.083 19.5518L58.6504 20.5745L58.1387 19.8582L58.8555 19.3469Q60.5283 21.6899 61.7041 24.3088Q62.9014 26.9749 63.5381 29.8259L62.6787 30.0176L62.4873 29.1587L64.2051 28.7754L64.3965 29.6343L63.5381 29.8259ZM65.2549 29.4426Q65.2738 29.5272 65.2759 29.6139Q65.278 29.7005 65.2631 29.7859Q65.2482 29.8713 65.2169 29.9521Q65.1857 30.0329 65.1392 30.1061Q65.0928 30.1792 65.0329 30.2419Q64.9731 30.3046 64.9021 30.3544Q64.8312 30.4043 64.7518 30.4393Q64.6725 30.4743 64.5879 30.4932L62.8701 30.8765Q62.7856 30.8953 62.699 30.8973Q62.6124 30.8994 62.527 30.8844Q62.4417 30.8695 62.361 30.8382Q62.2802 30.8069 62.2071 30.7604Q62.134 30.7139 62.0713 30.6541Q62.0087 30.5942 61.9589 30.5233Q61.9091 30.4524 61.8741 30.3731Q61.8392 30.2938 61.8203 30.2092Q61.2227 27.5327 60.0986 25.0298Q58.9941 22.5703 57.4229 20.3696Q57.3725 20.2991 57.337 20.2201Q57.3014 20.141 57.2819 20.0566Q57.2624 19.9721 57.2597 19.8855Q57.2571 19.7989 57.2714 19.7134Q57.2856 19.6279 57.3163 19.5468Q57.347 19.4658 57.3929 19.3923Q57.4388 19.3187 57.4981 19.2556Q57.5574 19.1924 57.6279 19.1421L59.0605 18.1194Q59.131 18.069 59.21 18.0334Q59.289 17.9977 59.3734 17.9782Q59.4578 17.9586 59.5445 17.9559Q59.6311 17.9533 59.7166 17.9675Q59.8021 17.9818 59.8831 18.0125Q59.9642 18.0431 60.0378 18.089Q60.1113 18.1349 60.1745 18.1943Q60.2377 18.2537 60.2881 18.3242Q62.0625 20.8096 63.3096 23.5879Q64.5801 26.417 65.2549 29.4426ZM68.7598 29.8259L63.5381 29.8259L63.5381 28.9458L64.418 28.9458L64.418 30.7058L63.5381 30.7058L63.5381 29.8259L68.7598 29.8259L68.7598 30.7058L67.8799 30.7058L67.8799 28.9458L68.7598 28.9458L68.7598 29.8259ZM68.7598 28.0659Q68.8464 28.0659 68.9314 28.0828Q69.0164 28.0997 69.0965 28.1329Q69.1765 28.1661 69.2486 28.2142Q69.3206 28.2623 69.3819 28.3236Q69.4432 28.3849 69.4913 28.457Q69.5395 28.529 69.5727 28.6091Q69.6058 28.6891 69.6227 28.7741Q69.6396 28.8591 69.6396 28.9458L69.6396 30.7058Q69.6396 30.7925 69.6227 30.8775Q69.6058 30.9625 69.5727 31.0426Q69.5395 31.1227 69.4913 31.1948Q69.4432 31.2669 69.3819 31.3282Q69.3206 31.3894 69.2486 31.4376Q69.1765 31.4858 69.0965 31.5189Q69.0164 31.5521 68.9314 31.569Q68.8464 31.5859 68.7598 31.5859L63.5381 31.5859Q63.4513 31.5859 63.3662 31.569Q63.2811 31.5521 63.201 31.5189Q63.1208 31.4858 63.0487 31.4376Q62.9766 31.3894 62.9152 31.3282Q62.8539 31.2669 62.8057 31.1948Q62.7575 31.1227 62.7243 31.0426Q62.6911 30.9625 62.6741 30.8775Q62.6572 30.7925 62.6572 30.7058L62.6572 28.9458Q62.6572 28.8591 62.6741 28.7741Q62.6911 28.6891 62.7243 28.6091Q62.7575 28.529 62.8057 28.457Q62.8539 28.3849 62.9152 28.3236Q62.9766 28.2623 63.0487 28.2142Q63.1208 28.1661 63.201 28.1329Q63.2811 28.0997 63.3662 28.0828Q63.4513 28.0659 63.5381 28.0659L68.7598 28.0659ZM68.7598 40.6907L68.7598 29.8259L69.6396 29.8259L69.6396 30.7058L67.8799 30.7058L67.8799 29.8259L68.7598 29.8259L68.7598 40.6907L67.8799 40.6907L67.8799 39.8108L69.6396 39.8108L69.6396 40.6907L68.7598 40.6907ZM70.5195 40.6907Q70.5195 40.7774 70.5026 40.8624Q70.4857 40.9474 70.4525 41.0275Q70.4194 41.1076 70.3712 41.1796Q70.3231 41.2517 70.2618 41.313Q70.2005 41.3743 70.1285 41.4225Q70.0564 41.4706 69.9764 41.5038Q69.8963 41.537 69.8113 41.5539Q69.7263 41.5708 69.6396 41.5708L67.8799 41.5708Q67.7932 41.5708 67.7082 41.5539Q67.6232 41.537 67.5432 41.5038Q67.4631 41.4706 67.391 41.4225Q67.319 41.3743 67.2577 41.313Q67.1964 41.2517 67.1483 41.1796Q67.1001 41.1076 67.067 41.0275Q67.0338 40.9474 67.0169 40.8624Q67 40.7774 67 40.6907L67 29.8259Q67 29.7392 67.0169 29.6542Q67.0338 29.5692 67.067 29.4891Q67.1001 29.409 67.1483 29.337Q67.1964 29.2649 67.2577 29.2036Q67.319 29.1423 67.391 29.0941Q67.4631 29.046 67.5432 29.0128Q67.6232 28.9796 67.7082 28.9627Q67.7932 28.9458 67.8799 28.9458L69.6396 28.9458Q69.7263 28.9458 69.8113 28.9627Q69.8963 28.9796 69.9764 29.0128Q70.0564 29.046 70.1285 29.0941Q70.2005 29.1423 70.2618 29.2036Q70.3231 29.2649 70.3712 29.337Q70.4194 29.409 70.4525 29.4891Q70.4857 29.5692 70.5026 29.6542Q70.5195 29.7392 70.5195 29.8259L70.5195 40.6907ZM63.8818 40.6907L68.7598 40.6907L68.7598 41.5708L67.8799 41.5708L67.8799 39.8108L68.7598 39.8108L68.7598 40.6907L63.8818 40.6907L63.8818 39.8108L64.7617 39.8108L64.7617 41.5708L63.8818 41.5708L63.8818 40.6907ZM63.8818 42.4507Q63.7952 42.4507 63.7102 42.4338Q63.6252 42.4169 63.5451 42.3837Q63.465 42.3505 63.393 42.3024Q63.3209 42.2542 63.2597 42.193Q63.1984 42.1317 63.1502 42.0596Q63.1021 41.9876 63.0689 41.9075Q63.0358 41.8274 63.0189 41.7425Q63.0019 41.6575 63.002 41.5708L63.002 39.8108Q63.0019 39.7241 63.0189 39.6391Q63.0358 39.5541 63.0689 39.474Q63.1021 39.3939 63.1502 39.3218Q63.1984 39.2497 63.2597 39.1884Q63.3209 39.1271 63.393 39.079Q63.465 39.0308 63.5451 38.9977Q63.6252 38.9645 63.7102 38.9476Q63.7952 38.9307 63.8818 38.9307L68.7598 38.9307Q68.8464 38.9307 68.9314 38.9476Q69.0164 38.9645 69.0965 38.9977Q69.1765 39.0308 69.2486 39.079Q69.3206 39.1271 69.3819 39.1884Q69.4432 39.2497 69.4913 39.3218Q69.5395 39.3939 69.5727 39.474Q69.6058 39.5541 69.6227 39.6391Q69.6396 39.7241 69.6396 39.8108L69.6396 41.5708Q69.6396 41.6575 69.6227 41.7425Q69.6058 41.8274 69.5727 41.9075Q69.5395 41.9876 69.4913 42.0596Q69.4432 42.1317 69.3819 42.193Q69.3206 42.2542 69.2486 42.3024Q69.1765 42.3505 69.0965 42.3837Q69.0164 42.4169 68.9314 42.4338Q68.8464 42.4507 68.7598 42.4507L63.8818 42.4507ZM59.5879 51.905Q61.2256 49.3804 62.3047 46.5808Q63.4062 43.7219 63.8818 40.6907L64.751 40.8271L64.6143 41.6965L62.876 41.4238L63.0117 40.5544L63.8818 40.6907Q63.4062 43.7219 62.3047 46.5808Q61.2256 49.3804 59.5879 51.905L58.8496 51.4263L59.3291 50.688L60.8057 51.6455L60.3271 52.3838L59.5879 51.905ZM61.0654 52.8625Q61.0182 52.9353 60.9577 52.9974Q60.8972 53.0595 60.8257 53.1086Q60.7543 53.1578 60.6746 53.192Q60.5949 53.2263 60.5101 53.2444Q60.4253 53.2624 60.3386 53.2636Q60.2519 53.2648 60.1667 53.2491Q60.0814 53.2333 60.0009 53.2013Q59.9204 53.1692 59.8477 53.1221L58.3711 52.1648Q58.2984 52.1176 58.2362 52.0572Q58.1741 51.9968 58.125 51.9254Q58.0758 51.854 58.0416 51.7743Q58.0073 51.6947 57.9892 51.6099Q57.9711 51.5252 57.9699 51.4385Q57.9687 51.3518 57.9844 51.2666Q58.0001 51.1813 58.0322 51.1008Q58.0642 51.0202 58.1113 50.9475Q59.6484 48.5764 60.6621 45.9478Q61.6963 43.2639 62.1426 40.418Q62.156 40.3323 62.186 40.251Q62.2159 40.1696 62.2611 40.0957Q62.3063 40.0217 62.365 39.958Q62.4238 39.8942 62.4938 39.8432Q62.5639 39.7922 62.6425 39.7558Q62.7212 39.7194 62.8054 39.699Q62.8897 39.6787 62.9762 39.6751Q63.0628 39.6716 63.1484 39.6851L64.8877 39.9578Q64.9733 39.9712 65.0546 40.0011Q65.136 40.031 65.2099 40.0762Q65.2838 40.1213 65.3475 40.1801Q65.4112 40.2388 65.4622 40.3089Q65.5132 40.379 65.5496 40.4576Q65.5859 40.5363 65.6063 40.6205Q65.6266 40.7048 65.6301 40.7914Q65.6336 40.878 65.6201 40.9636Q65.1152 44.1802 63.9463 47.2136Q62.8018 50.1841 61.0654 52.8625ZM62.7871 55.104L59.5879 51.905L60.2109 51.2827L60.833 51.905L59.5879 53.1497L58.9658 52.5273L59.5879 51.905L62.7871 55.104L62.165 55.7263L61.543 55.104L62.7871 53.8596L63.4092 54.4817L62.7871 55.104ZM64.0322 53.8596Q64.0935 53.9209 64.1416 53.9929Q64.1898 54.065 64.2229 54.145Q64.2561 54.2251 64.273 54.3101Q64.2899 54.3951 64.2899 54.4818Q64.2899 54.5684 64.273 54.6534Q64.2561 54.7384 64.2229 54.8185Q64.1898 54.8986 64.1416 54.9706Q64.0935 55.0427 64.0322 55.104L62.7871 56.3486Q62.7258 56.4099 62.6538 56.458Q62.5817 56.5062 62.5017 56.5393Q62.4216 56.5725 62.3367 56.5894Q62.2517 56.6063 62.165 56.6063Q62.0784 56.6063 61.9934 56.5894Q61.9084 56.5725 61.8284 56.5393Q61.7483 56.5062 61.6763 56.458Q61.6042 56.4099 61.543 56.3486L58.3438 53.1497Q58.2825 53.0884 58.2343 53.0163Q58.1862 52.9442 58.153 52.8641Q58.1199 52.784 58.103 52.699Q58.0861 52.614 58.0861 52.5273Q58.0861 52.4407 58.103 52.3556Q58.1199 52.2706 58.153 52.1905Q58.1862 52.1105 58.2343 52.0384Q58.2825 51.9663 58.3438 51.905L59.5879 50.6606Q59.6493 50.5993 59.7214 50.5512Q59.7935 50.503 59.8737 50.4699Q59.9538 50.4367 60.0389 50.4198Q60.1239 50.4029 60.2106 50.4029Q60.2974 50.4029 60.3824 50.4198Q60.4674 50.4367 60.5475 50.4699Q60.6276 50.503 60.6997 50.5512Q60.7717 50.5993 60.833 50.6606L64.0322 53.8596ZM55.1045 62.7866L62.7871 55.104L63.4092 55.7263L62.7871 56.3486L61.543 55.104L62.165 54.4817L62.7871 55.104L55.1045 62.7866L54.4824 62.1643L55.1045 61.5422L56.3496 62.7866L55.7266 63.4089L55.1045 62.7866ZM56.3496 64.0312Q56.2882 64.0925 56.2161 64.1407Q56.144 64.1888 56.0638 64.222Q55.9837 64.2551 55.8986 64.272Q55.8136 64.2889 55.7268 64.2889Q55.6401 64.2889 55.5551 64.272Q55.4701 64.2551 55.39 64.222Q55.3099 64.1888 55.2378 64.1407Q55.1658 64.0925 55.1045 64.0312L53.8604 62.7866Q53.7991 62.7253 53.7509 62.6533Q53.7028 62.5812 53.6696 62.5011Q53.6365 62.421 53.6196 62.336Q53.6027 62.251 53.6027 62.1644Q53.6027 62.0777 53.6196 61.9927Q53.6365 61.9077 53.6696 61.8277Q53.7028 61.7476 53.7509 61.6755Q53.7991 61.6035 53.8604 61.5422L61.543 53.8596Q61.6042 53.7983 61.6763 53.7502Q61.7483 53.702 61.8284 53.6688Q61.9084 53.6357 61.9934 53.6188Q62.0784 53.6019 62.165 53.6019Q62.2517 53.6019 62.3367 53.6188Q62.4216 53.6357 62.5017 53.6688Q62.5817 53.702 62.6538 53.7502Q62.7258 53.7983 62.7871 53.8596L64.0322 55.104Q64.0935 55.1653 64.1416 55.2374Q64.1898 55.3094 64.2229 55.3895Q64.2561 55.4696 64.273 55.5546Q64.2899 55.6396 64.2899 55.7263Q64.2899 55.813 64.273 55.898Q64.2561 55.983 64.2229 56.0631Q64.1898 56.1432 64.1416 56.2153Q64.0935 56.2873 64.0322 56.3486L56.3496 64.0312ZM52.0771 59.7595L55.1045 62.7866L54.4824 63.4089L53.8604 62.7866L55.1045 61.5422L55.7266 62.1643L55.1045 62.7866L52.0771 59.7595L52.7002 59.1375L53.3223 59.7595L52.0771 61.0042L51.4551 60.3818L52.0771 59.7595ZM50.833 61.0042Q50.7717 60.9429 50.7236 60.8708Q50.6755 60.7987 50.6423 60.7186Q50.6091 60.6385 50.5922 60.5535Q50.5753 60.4685 50.5753 60.3818Q50.5753 60.2952 50.5922 60.2101Q50.6091 60.1251 50.6423 60.045Q50.6755 59.965 50.7236 59.8929Q50.7717 59.8208 50.833 59.7595L52.0771 58.5151Q52.1385 58.4538 52.2106 58.4057Q52.2828 58.3575 52.3629 58.3243Q52.4431 58.2912 52.5281 58.2743Q52.6132 58.2574 52.6999 58.2574Q52.7866 58.2574 52.8717 58.2743Q52.9567 58.2912 53.0368 58.3243Q53.1169 58.3575 53.1889 58.4057Q53.261 58.4538 53.3223 58.5151L56.3496 61.5422Q56.4109 61.6035 56.459 61.6755Q56.5071 61.7476 56.5403 61.8277Q56.5735 61.9077 56.5904 61.9927Q56.6073 62.0777 56.6073 62.1644Q56.6073 62.251 56.5904 62.336Q56.5735 62.421 56.5403 62.5011Q56.5071 62.5812 56.459 62.6533Q56.4109 62.7253 56.3496 62.7866L55.1045 64.0312Q55.0432 64.0925 54.9712 64.1406Q54.8991 64.1888 54.8191 64.2219Q54.739 64.2551 54.654 64.272Q54.5691 64.2889 54.4824 64.2889Q54.3958 64.2889 54.3108 64.272Q54.2258 64.2551 54.1458 64.2219Q54.0657 64.1888 53.9937 64.1406Q53.9216 64.0925 53.8604 64.0312L50.833 61.0042ZM40.6914 64.6292Q43.7979 64.04 46.7012 62.7908Q49.5479 61.5659 52.0771 59.7595L52.5889 60.4758L51.873 60.9871L50.8496 59.5547L51.5664 59.0435L52.0771 59.7595Q49.5479 61.5659 46.7012 62.7908Q43.7979 64.04 40.6914 64.6292L40.5273 63.7646L41.3916 63.6006L41.7197 65.3298L40.8555 65.4937L40.6914 64.6292ZM41.0186 66.3584Q40.9334 66.3745 40.8468 66.3737Q40.7602 66.373 40.6753 66.3553Q40.5905 66.3376 40.5107 66.3037Q40.431 66.2698 40.3594 66.221Q40.2878 66.1722 40.227 66.1104Q40.1663 66.0486 40.1188 65.9761Q40.0713 65.9036 40.0388 65.8232Q40.0064 65.7429 39.9902 65.6577L39.6621 63.9285Q39.646 63.8433 39.6467 63.7567Q39.6475 63.67 39.6652 63.5851Q39.6829 63.5003 39.7168 63.4205Q39.7507 63.3408 39.7995 63.2691Q39.8484 63.1975 39.9102 63.1367Q39.9721 63.076 40.0447 63.0285Q40.1172 62.981 40.1976 62.9485Q40.2781 62.9161 40.3633 62.8999Q43.2793 62.3469 46.0059 61.1741Q48.6787 60.0239 51.0547 58.3271Q51.1253 58.2768 51.2043 58.2412Q51.2834 58.2055 51.3679 58.186Q51.4523 58.1665 51.539 58.1638Q51.6256 58.1611 51.7111 58.1754Q51.7966 58.1896 51.8777 58.2203Q51.9587 58.251 52.0322 58.2969Q52.1057 58.3428 52.1688 58.4021Q52.2319 58.4615 52.2822 58.532L53.3047 59.9644Q53.3551 60.0349 53.3908 60.1139Q53.4264 60.1929 53.446 60.2774Q53.4656 60.3618 53.4683 60.4485Q53.4711 60.5351 53.4569 60.6206Q53.4426 60.7061 53.412 60.7871Q53.3814 60.8682 53.3356 60.9417Q53.2897 61.0152 53.2304 61.0784Q53.1711 61.1415 53.1006 61.1919Q50.417 63.1079 47.3965 64.4075Q44.3154 65.7332 41.0186 66.3584ZM40.6914 68.76L40.6914 64.6292L41.5713 64.6292L41.5713 65.5093L39.8105 65.5093L39.8105 64.6292L40.6914 64.6292L40.6914 68.76L39.8105 68.76L39.8105 67.8801L41.5713 67.8801L41.5713 68.76L40.6914 68.76ZM42.4512 68.76Q42.4512 68.8467 42.4343 68.9317Q42.4174 69.0167 42.3842 69.0967Q42.351 69.1768 42.3029 69.2488Q42.2547 69.3209 42.1935 69.3822Q42.1322 69.4435 42.0601 69.4916Q41.9881 69.5397 41.908 69.5729Q41.8279 69.6061 41.7429 69.623Q41.6579 69.6399 41.5713 69.6399L39.8105 69.6399Q39.7239 69.6399 39.6389 69.623Q39.5539 69.6061 39.4738 69.5729Q39.3938 69.5397 39.3217 69.4916Q39.2497 69.4435 39.1884 69.3822Q39.1271 69.3209 39.0789 69.2488Q39.0308 69.1768 38.9976 69.0967Q38.9645 69.0167 38.9476 68.9317Q38.9307 68.8467 38.9307 68.76L38.9307 64.6292Q38.9307 64.5425 38.9476 64.4575Q38.9645 64.3725 38.9976 64.2924Q39.0308 64.2124 39.0789 64.1403Q39.1271 64.0683 39.1884 64.007Q39.2497 63.9457 39.3217 63.8975Q39.3938 63.8494 39.4738 63.8162Q39.5539 63.7831 39.6389 63.7662Q39.7239 63.7493 39.8105 63.7493L41.5713 63.7493Q41.6579 63.7493 41.7429 63.7662Q41.8279 63.7831 41.908 63.8162Q41.9881 63.8494 42.0601 63.8975Q42.1322 63.9457 42.1935 64.007Q42.2547 64.0683 42.3029 64.1403Q42.351 64.2124 42.3842 64.2924Q42.4174 64.3725 42.4343 64.4575Q42.4512 64.5425 42.4512 64.6292L42.4512 68.76ZM29.8262 68.76L40.6914 68.76L40.6914 69.6399L39.8105 69.6399L39.8105 67.8801L40.6914 67.8801L40.6914 68.76L29.8262 68.76L29.8262 67.8801L30.7061 67.8801L30.7061 69.6399L29.8262 69.6399L29.8262 68.76ZM29.8262 70.52Q29.7395 70.52 29.6545 70.5031Q29.5695 70.4862 29.4895 70.453Q29.4094 70.4198 29.3373 70.3717Q29.2653 70.3235 29.204 70.2622Q29.1427 70.2009 29.0946 70.1289Q29.0464 70.0568 29.0133 69.9767Q28.9801 69.8966 28.9632 69.8116Q28.9463 69.7266 28.9463 69.6399L28.9463 67.8801Q28.9463 67.7934 28.9632 67.7084Q28.9801 67.6234 29.0133 67.5433Q29.0464 67.4632 29.0946 67.3912Q29.1427 67.3191 29.204 67.2578Q29.2653 67.1965 29.3373 67.1483Q29.4094 67.1002 29.4895 67.067Q29.5695 67.0338 29.6545 67.0169Q29.7395 67 29.8262 67L40.6914 67Q40.7781 67 40.8631 67.0169Q40.9481 67.0338 41.0281 67.067Q41.1082 67.1002 41.1802 67.1483Q41.2523 67.1965 41.3136 67.2578Q41.3749 67.3191 41.423 67.3912Q41.4711 67.4632 41.5043 67.5433Q41.5375 67.6234 41.5544 67.7084Q41.5713 67.7934 41.5713 67.8801L41.5713 69.6399Q41.5713 69.7266 41.5544 69.8116Q41.5375 69.8966 41.5043 69.9767Q41.4711 70.0568 41.423 70.1289Q41.3749 70.2009 41.3136 70.2622Q41.2523 70.3235 41.1802 70.3717Q41.1082 70.4198 41.0281 70.453Q40.9481 70.4862 40.8631 70.5031Q40.7781 70.52 40.6914 70.52L29.8262 70.52ZM29.8262 64.6287L29.8262 68.76L28.9463 68.76L28.9463 67.8801L30.7061 67.8801L30.7061 68.76L29.8262 68.76L29.8262 64.6287L30.7061 64.6287L30.7061 65.5085L28.9463 65.5085L28.9463 64.6287L29.8262 64.6287ZM28.0664 64.6287Q28.0664 64.542 28.0833 64.457Q28.1002 64.3719 28.1334 64.2918Q28.1665 64.2118 28.2147 64.1397Q28.2628 64.0676 28.3241 64.0063Q28.3854 63.945 28.4575 63.8969Q28.5295 63.8487 28.6096 63.8155Q28.6896 63.7824 28.7746 63.7654Q28.8596 63.7485 28.9463 63.7485L30.7061 63.7485Q30.7927 63.7485 30.8777 63.7654Q30.9627 63.7824 31.0428 63.8155Q31.1228 63.8487 31.1949 63.8969Q31.2669 63.945 31.3282 64.0063Q31.3895 64.0676 31.4376 64.1397Q31.4858 64.2118 31.519 64.2918Q31.5521 64.3719 31.569 64.457Q31.5859 64.542 31.5859 64.6287L31.5859 68.76Q31.5859 68.8467 31.569 68.9317Q31.5521 69.0167 31.519 69.0967Q31.4858 69.1768 31.4376 69.2488Q31.3895 69.3209 31.3282 69.3822Q31.2669 69.4435 31.1949 69.4916Q31.1228 69.5397 31.0428 69.5729Q30.9627 69.6061 30.8777 69.623Q30.7927 69.6399 30.7061 69.6399L28.9463 69.6399Q28.8596 69.6399 28.7746 69.623Q28.6896 69.6061 28.6096 69.5729Q28.5295 69.5397 28.4575 69.4916Q28.3854 69.4435 28.3241 69.3822Q28.2628 69.3209 28.2147 69.2488Q28.1665 69.1768 28.1334 69.0967Q28.1002 69.0167 28.0833 68.9317Q28.0664 68.8467 28.0664 68.76L28.0664 64.6287ZM18.4424 59.7595Q20.9717 61.5654 23.8174 62.79Q26.7207 64.0393 29.8262 64.6287L29.6621 65.4932L28.7979 65.3291L29.126 63.5999L29.9902 63.7639L29.8262 64.6287Q26.7207 64.0393 23.8174 62.79Q20.9717 61.5654 18.4424 59.7595L18.9541 59.0435L19.6699 59.5549L18.6475 60.9871L17.9316 60.4758L18.4424 59.7595ZM17.4199 61.1919Q17.3494 61.1415 17.2901 61.0784Q17.2308 61.0152 17.1849 60.9417Q17.139 60.8682 17.1083 60.7871Q17.0776 60.7061 17.0634 60.6206Q17.0491 60.5351 17.0517 60.4485Q17.0544 60.3618 17.0739 60.2774Q17.0934 60.1929 17.129 60.1139Q17.1645 60.0349 17.2148 59.9644L18.2373 58.532Q18.2877 58.4615 18.3509 58.4021Q18.4141 58.3428 18.4876 58.2969Q18.5612 58.251 18.6422 58.2204Q18.7233 58.1897 18.8088 58.1755Q18.8943 58.1612 18.9809 58.1639Q19.0675 58.1666 19.152 58.1862Q19.2364 58.2057 19.3154 58.2414Q19.3943 58.277 19.4648 58.3274Q21.8408 60.0234 24.5127 61.1733Q27.2383 62.3462 30.1543 62.8994Q30.2394 62.9156 30.3198 62.948Q30.4001 62.9805 30.4725 63.028Q30.545 63.0755 30.6068 63.1362Q30.6686 63.197 30.7174 63.2686Q30.7661 63.3403 30.8 63.42Q30.8338 63.4998 30.8515 63.5846Q30.8691 63.6695 30.8699 63.7562Q30.8707 63.8428 30.8545 63.928L30.5264 65.6572Q30.5102 65.7424 30.4778 65.8227Q30.4453 65.9031 30.3978 65.9756Q30.3503 66.048 30.2896 66.1099Q30.2288 66.1717 30.1572 66.2205Q30.0856 66.2692 30.0058 66.3031Q29.9261 66.337 29.8413 66.3546Q29.7564 66.3723 29.6698 66.3731Q29.5832 66.3738 29.498 66.3577Q26.2021 65.7324 23.1221 64.4067Q20.1025 63.1074 17.4199 61.1919ZM18.4424 59.7595L15.4121 62.79L14.79 62.1677L15.4121 61.5457L16.6562 62.79L16.0342 63.4124L15.4121 62.79L18.4424 59.7595L19.0645 60.3818L18.4424 61.0042L17.1982 59.7595L17.8203 59.1375L18.4424 59.7595ZM17.1982 58.5151Q17.2595 58.4538 17.3316 58.4057Q17.4036 58.3575 17.4836 58.3243Q17.5637 58.2912 17.6487 58.2743Q17.7337 58.2574 17.8203 58.2574Q17.907 58.2574 17.9919 58.2743Q18.0769 58.2912 18.157 58.3244Q18.237 58.3575 18.3091 58.4057Q18.3811 58.4538 18.4424 58.5151L19.6875 59.7595Q19.7488 59.8208 19.7969 59.8929Q19.845 59.965 19.8782 60.045Q19.9114 60.1251 19.9283 60.2101Q19.9452 60.2952 19.9452 60.3818Q19.9452 60.4685 19.9283 60.5535Q19.9114 60.6385 19.8782 60.7186Q19.845 60.7987 19.7969 60.8708Q19.7488 60.9429 19.6875 61.0042L16.6562 64.0347Q16.595 64.0959 16.5229 64.1441Q16.4509 64.1922 16.3708 64.2254Q16.2908 64.2585 16.2058 64.2754Q16.1208 64.2923 16.0342 64.2923Q15.9475 64.2923 15.8626 64.2754Q15.7776 64.2585 15.6975 64.2254Q15.6175 64.1922 15.5454 64.1441Q15.4734 64.0959 15.4121 64.0347L14.168 62.79Q14.1066 62.7287 14.0584 62.6567Q14.0102 62.5846 13.977 62.5045Q13.9438 62.4244 13.9268 62.3394Q13.9099 62.2544 13.9099 62.1678Q13.9099 62.0811 13.9268 61.9961Q13.9438 61.9111 13.977 61.8311Q14.0102 61.751 14.0584 61.679Q14.1066 61.6069 14.168 61.5457L17.1982 58.5151ZM15.4121 62.79L7.72949 55.1074L8.35156 54.4851L8.97363 55.1074L7.72949 56.3521L7.10742 55.7297L7.72949 55.1074L15.4121 62.79L14.79 63.4124L14.168 62.79L15.4121 61.5457L16.0342 62.1677L15.4121 62.79ZM16.6562 61.5457Q16.7176 61.6069 16.7658 61.679Q16.814 61.751 16.8472 61.8311Q16.8805 61.9111 16.8974 61.9961Q16.9143 62.0811 16.9143 62.1678Q16.9143 62.2544 16.8974 62.3395Q16.8805 62.4244 16.8473 62.5045Q16.814 62.5846 16.7658 62.6567Q16.7176 62.7287 16.6562 62.79L15.4121 64.0347Q15.3508 64.0959 15.2788 64.1441Q15.2068 64.1922 15.1267 64.2254Q15.0466 64.2585 14.9617 64.2754Q14.8767 64.2923 14.79 64.2923Q14.7034 64.2923 14.6184 64.2754Q14.5334 64.2585 14.4534 64.2254Q14.3733 64.1922 14.3013 64.1441Q14.2292 64.0959 14.168 64.0347L6.48535 56.3521Q6.42399 56.2908 6.37577 56.2187Q6.32756 56.1466 6.29435 56.0665Q6.26114 55.9864 6.24421 55.9014Q6.22728 55.8164 6.22728 55.7297Q6.22728 55.643 6.24421 55.558Q6.26114 55.473 6.29435 55.3929Q6.32756 55.3129 6.37577 55.2408Q6.42399 55.1687 6.48535 55.1074L7.72949 53.863Q7.79076 53.8017 7.8628 53.7536Q7.93485 53.7054 8.0149 53.6723Q8.09495 53.6391 8.17993 53.6222Q8.26491 53.6053 8.35156 53.6053Q8.43821 53.6053 8.52319 53.6222Q8.60817 53.6391 8.68822 53.6723Q8.76828 53.7054 8.84032 53.7536Q8.91236 53.8017 8.97363 53.863L16.6562 61.5457ZM7.72949 55.1074L10.9316 51.905L11.5537 52.5273L10.9316 53.1497L9.6875 51.905L10.3096 51.2827L10.9316 51.905L7.72949 55.1074L7.10742 54.4851L7.72949 53.863L8.97363 55.1074L8.35156 55.7297L7.72949 55.1074ZM8.97363 56.3521Q8.91236 56.4133 8.84032 56.4615Q8.76828 56.5096 8.68822 56.5428Q8.60817 56.5759 8.52319 56.5928Q8.43821 56.6097 8.35156 56.6097Q8.26492 56.6097 8.17993 56.5928Q8.09495 56.5759 8.0149 56.5428Q7.93485 56.5096 7.8628 56.4615Q7.79076 56.4133 7.72949 56.3521L6.48535 55.1074Q6.42399 55.0461 6.37577 54.9741Q6.32756 54.902 6.29435 54.8219Q6.26114 54.7418 6.24421 54.6568Q6.22728 54.5718 6.22728 54.4852Q6.22728 54.3985 6.24421 54.3135Q6.26114 54.2285 6.29435 54.1485Q6.32756 54.0684 6.37577 53.9963Q6.42399 53.9243 6.48535 53.863L9.6875 50.6606Q9.74877 50.5993 9.82081 50.5512Q9.89286 50.503 9.97291 50.4699Q10.053 50.4367 10.1379 50.4198Q10.2229 50.4029 10.3096 50.4029Q10.3962 50.4029 10.4812 50.4198Q10.5662 50.4367 10.6462 50.4699Q10.7263 50.503 10.7983 50.5512Q10.8704 50.5993 10.9316 50.6606L12.1768 51.905Q12.238 51.9663 12.2862 52.0384Q12.3343 52.1105 12.3675 52.1905Q12.4006 52.2706 12.4175 52.3556Q12.4344 52.4407 12.4344 52.5273Q12.4344 52.614 12.4175 52.699Q12.4006 52.784 12.3675 52.8641Q12.3343 52.9442 12.2862 53.0163Q12.238 53.0884 12.1768 53.1497L8.97363 56.3521ZM6.63867 40.6907Q7.11426 43.7219 8.21582 46.5808Q9.29492 49.3804 10.9316 51.905L10.1934 52.3838L9.71484 51.6455L11.1914 50.688L11.6699 51.4263L10.9316 51.905Q9.29492 49.3804 8.21582 46.5808Q7.11426 43.7219 6.63867 40.6907L7.50781 40.5544L7.64453 41.4238L5.90527 41.6965L5.76953 40.8271L6.63867 40.6907ZM4.89941 40.9636Q4.88604 40.878 4.88963 40.7914Q4.89322 40.7048 4.91363 40.6205Q4.93403 40.5363 4.97048 40.4576Q5.00692 40.379 5.05799 40.3089Q5.10907 40.2388 5.17282 40.1801Q5.23657 40.1213 5.31054 40.0762Q5.38451 40.031 5.46586 40.0011Q5.54721 39.9712 5.63281 39.9578L7.37207 39.6851Q7.45767 39.6716 7.54424 39.6751Q7.63081 39.6787 7.71501 39.699Q7.79921 39.7194 7.87781 39.7558Q7.95642 39.7921 8.0264 39.8432Q8.09639 39.8942 8.15506 39.958Q8.21374 40.0217 8.25885 40.0957Q8.30396 40.1696 8.33377 40.251Q8.36358 40.3323 8.37695 40.418Q8.82422 43.2639 9.8584 45.9478Q10.8711 48.5764 12.4082 50.9475Q12.4554 51.0202 12.4876 51.1008Q12.5197 51.1813 12.5355 51.2666Q12.5513 51.3518 12.5502 51.4385Q12.549 51.5252 12.531 51.6099Q12.513 51.6947 12.4788 51.7743Q12.4445 51.854 12.3954 51.9254Q12.3463 51.9968 12.2842 52.0572Q12.2221 52.1176 12.1494 52.1648L10.6719 53.1223Q10.5992 53.1694 10.5186 53.2015Q10.4381 53.2335 10.3529 53.2492Q10.2677 53.2649 10.1811 53.2637Q10.0944 53.2625 10.0097 53.2444Q9.92494 53.2263 9.84535 53.1921Q9.76577 53.1578 9.6944 53.1087Q9.62303 53.0595 9.56262 52.9974Q9.50221 52.9353 9.45508 52.8625Q7.71875 50.1841 6.57324 47.2136Q5.4043 44.1799 4.89941 40.9636ZM1.75977 40.6907L6.63867 40.6907L6.63867 41.5708L5.75879 41.5708L5.75879 39.8108L6.63867 39.8108L6.63867 40.6907L1.75977 40.6907L1.75977 39.8108L2.63965 39.8108L2.63965 41.5708L1.75977 41.5708L1.75977 40.6907ZM1.75977 42.4507Q1.6731 42.4507 1.58811 42.4338Q1.50311 42.4169 1.42305 42.3837Q1.34298 42.3505 1.27093 42.3024Q1.19887 42.2542 1.13759 42.193Q1.07632 42.1317 1.02817 42.0596Q0.980023 41.9876 0.94686 41.9075Q0.913696 41.8274 0.896789 41.7425Q0.879883 41.6575 0.879883 41.5708L0.879883 39.8108Q0.879883 39.7241 0.896789 39.6391Q0.913696 39.5541 0.94686 39.474Q0.980024 39.3939 1.02817 39.3218Q1.07632 39.2497 1.13759 39.1884Q1.19887 39.1271 1.27093 39.079Q1.34298 39.0308 1.42305 38.9977Q1.50311 38.9645 1.58811 38.9476Q1.6731 38.9307 1.75977 38.9307L6.63867 38.9307Q6.72533 38.9307 6.81033 38.9476Q6.89532 38.9645 6.97539 38.9977Q7.05545 39.0308 7.12751 39.079Q7.19956 39.1271 7.26084 39.1884Q7.32212 39.2497 7.37027 39.3218Q7.41841 39.3939 7.45158 39.474Q7.48474 39.5541 7.50165 39.6391Q7.51855 39.7241 7.51855 39.8108L7.51855 41.5708Q7.51855 41.6575 7.50165 41.7425Q7.48474 41.8274 7.45158 41.9075Q7.41841 41.9876 7.37027 42.0596Q7.32212 42.1317 7.26084 42.193Q7.19956 42.2542 7.12751 42.3024Q7.05545 42.3505 6.97539 42.3837Q6.89532 42.4169 6.81033 42.4338Q6.72533 42.4507 6.63867 42.4507L1.75977 42.4507ZM1.75977 29.8259L1.75977 40.6907L0.879883 40.6907L0.879883 39.8108L2.63965 39.8108L2.63965 40.6907L1.75977 40.6907L1.75977 29.8259L2.63965 29.8259L2.63965 30.7058L0.879883 30.7058L0.879883 29.8259L1.75977 29.8259ZM0 29.8259Q0 29.7392 0.0169067 29.6542Q0.0338134 29.5692 0.0669771 29.4891Q0.100141 29.409 0.148287 29.337Q0.196433 29.2649 0.257712 29.2036Q0.31899 29.1423 0.391046 29.0941Q0.463102 29.046 0.543166 29.0128Q0.62323 28.9796 0.708226 28.9627Q0.793222 28.9458 0.879883 28.9458L2.63965 28.9458Q2.72631 28.9458 2.8113 28.9627Q2.8963 28.9796 2.97636 29.0128Q3.05643 29.046 3.12849 29.0941Q3.20054 29.1423 3.26182 29.2036Q3.3231 29.2649 3.37124 29.337Q3.41939 29.409 3.45255 29.4891Q3.48572 29.5692 3.50262 29.6542Q3.51953 29.7392 3.51953 29.8259L3.51953 40.6907Q3.51953 40.7774 3.50262 40.8624Q3.48572 40.9474 3.45255 41.0275Q3.41939 41.1076 3.37124 41.1796Q3.3231 41.2517 3.26182 41.313Q3.20054 41.3743 3.12849 41.4225Q3.05643 41.4706 2.97636 41.5038Q2.8963 41.537 2.8113 41.5539Q2.72631 41.5708 2.63965 41.5708L0.879883 41.5708Q0.793222 41.5708 0.708226 41.5539Q0.62323 41.537 0.543166 41.5038Q0.463102 41.4706 0.391046 41.4225Q0.31899 41.3743 0.257712 41.313Q0.196433 41.2517 0.148287 41.1796Q0.100141 41.1076 0.0669771 41.0275Q0.0338134 40.9474 0.0169067 40.8624Q0 40.7774 0 40.6907L0 29.8259ZM6.98242 29.8259L1.75977 29.8259L1.75977 28.9458L2.63965 28.9458L2.63965 30.7058L1.75977 30.7058L1.75977 29.8259L6.98242 29.8259L6.98242 30.7058L6.10254 30.7058L6.10254 28.9458L6.98242 28.9458L6.98242 29.8259ZM6.98242 28.0659Q7.06908 28.0659 7.15408 28.0828Q7.23907 28.0997 7.31914 28.1329Q7.3992 28.1661 7.47126 28.2142Q7.54331 28.2623 7.60459 28.3236Q7.66587 28.3849 7.71402 28.457Q7.76216 28.529 7.79533 28.6091Q7.82849 28.6891 7.8454 28.7741Q7.8623 28.8591 7.8623 28.9458L7.8623 30.7058Q7.8623 30.7925 7.8454 30.8775Q7.82849 30.9625 7.79533 31.0426Q7.76216 31.1227 7.71402 31.1948Q7.66587 31.2669 7.60459 31.3282Q7.54331 31.3894 7.47126 31.4376Q7.3992 31.4858 7.31914 31.5189Q7.23907 31.5521 7.15408 31.569Q7.06908 31.5859 6.98242 31.5859L1.75977 31.5859Q1.6731 31.5859 1.58811 31.569Q1.50311 31.5521 1.42305 31.5189Q1.34298 31.4858 1.27093 31.4376Q1.19887 31.3894 1.13759 31.3282Q1.07632 31.2669 1.02817 31.1948Q0.980023 31.1227 0.94686 31.0426Q0.913696 30.9625 0.896789 30.8775Q0.879883 30.7925 0.879883 30.7058L0.879883 28.9458Q0.879883 28.8591 0.896789 28.7741Q0.913696 28.6891 0.94686 28.6091Q0.980024 28.529 1.02817 28.457Q1.07632 28.3849 1.13759 28.3236Q1.19887 28.2623 1.27093 28.2142Q1.34298 28.1661 1.42305 28.1329Q1.50311 28.0997 1.58811 28.0828Q1.6731 28.0659 1.75977 28.0659L6.98242 28.0659ZM11.665 19.3469Q9.99219 21.6899 8.81543 24.3088Q7.61914 26.9749 6.98242 29.8259L6.12402 29.6343L6.31543 28.7754L8.0332 29.1587L7.8418 30.0176L6.98242 29.8259Q7.61914 26.9749 8.81543 24.3088Q9.99219 21.6899 11.665 19.3469L12.3809 19.8582L11.8701 20.5745L10.4375 19.5518L10.9482 18.8354L11.665 19.3469ZM10.2324 18.3242Q10.2828 18.2537 10.346 18.1943Q10.4092 18.1349 10.4827 18.089Q10.5563 18.0431 10.6374 18.0125Q10.7184 17.9818 10.8039 17.9675Q10.8894 17.9533 10.976 17.9559Q11.0627 17.9586 11.1471 17.9782Q11.2315 17.9977 11.3105 18.0334Q11.3895 18.069 11.46 18.1194L12.8926 19.1421Q12.9631 19.1924 13.0224 19.2556Q13.0817 19.3187 13.1276 19.3923Q13.1735 19.4658 13.2042 19.5468Q13.2349 19.6279 13.2491 19.7134Q13.2634 19.7989 13.2608 19.8855Q13.2581 19.9721 13.2386 20.0566Q13.2191 20.141 13.1835 20.2201Q13.148 20.2991 13.0977 20.3696Q11.5254 22.5703 10.4219 25.0298Q9.29785 27.5327 8.7002 30.2092Q8.68134 30.2938 8.64634 30.3731Q8.61134 30.4524 8.56153 30.5233Q8.51172 30.5942 8.44902 30.6541Q8.38632 30.7139 8.31314 30.7604Q8.23996 30.8069 8.15911 30.8382Q8.07826 30.8695 7.99285 30.8844Q7.90744 30.8994 7.82075 30.8973Q7.73405 30.8953 7.64941 30.8765L5.93164 30.4932Q5.8471 30.4743 5.76785 30.4393Q5.68861 30.4043 5.61772 30.3544Q5.54682 30.3046 5.487 30.2419Q5.42718 30.1792 5.38072 30.1061Q5.33427 30.0329 5.30298 29.9521Q5.27168 29.8713 5.25674 29.7859Q5.2418 29.7005 5.2438 29.6139Q5.2458 29.5272 5.26465 29.4426Q5.94043 26.417 7.20996 23.5879Q8.45801 20.8096 10.2324 18.3242ZM7.72852 15.4104L11.665 19.3469L11.043 19.969L10.4199 19.3469L11.665 18.1023L12.2871 18.7246L11.665 19.3469L7.72852 15.4104L8.35059 14.7883L8.97266 15.4104L7.72852 16.655L7.10645 16.0327L7.72852 15.4104ZM6.48438 16.655Q6.42301 16.5937 6.3748 16.5217Q6.32658 16.4496 6.29337 16.3695Q6.26016 16.2894 6.24323 16.2044Q6.2263 16.1194 6.2263 16.0327Q6.2263 15.946 6.24323 15.861Q6.26016 15.776 6.29337 15.6959Q6.32658 15.6158 6.3748 15.5438Q6.42301 15.4717 6.48438 15.4104L7.72852 14.166Q7.78978 14.1047 7.86183 14.0566Q7.93387 14.0084 8.01392 13.9752Q8.09397 13.9421 8.17896 13.9252Q8.26394 13.9082 8.35059 13.9082Q8.43723 13.9082 8.52221 13.9252Q8.6072 13.9421 8.68725 13.9752Q8.7673 14.0084 8.83934 14.0566Q8.91139 14.1047 8.97266 14.166L12.9092 18.1023Q12.9704 18.1636 13.0186 18.2357Q13.0667 18.3077 13.0999 18.3878Q13.133 18.4679 13.1499 18.5529Q13.1668 18.6379 13.1668 18.7246Q13.1668 18.8113 13.1499 18.8963Q13.133 18.9813 13.0999 19.0614Q13.0667 19.1415 13.0186 19.2136Q12.9704 19.2856 12.9092 19.3469L11.665 20.5913Q11.6038 20.6526 11.5317 20.7008Q11.4596 20.7489 11.3796 20.7821Q11.2995 20.8153 11.2144 20.8322Q11.1294 20.8491 11.0427 20.8491Q10.956 20.8491 10.8709 20.8322Q10.7858 20.8153 10.7057 20.7821Q10.6256 20.7489 10.5534 20.7008Q10.4813 20.6526 10.4199 20.5913L6.48438 16.655ZM15.4111 7.72778L7.72852 15.4104L7.10645 14.7883L7.72852 14.166L8.97266 15.4104L8.35059 16.0327L7.72852 15.4104L15.4111 7.72778L16.0332 8.3501L15.4111 8.97241L14.167 7.72778L14.7891 7.10571L15.4111 7.72778ZM14.167 6.4834Q14.2283 6.42211 14.3003 6.37395Q14.3723 6.32579 14.4524 6.29262Q14.5325 6.25945 14.6174 6.24254Q14.7024 6.22563 14.7891 6.22563Q14.8757 6.22563 14.9607 6.24254Q15.0457 6.25945 15.1257 6.29262Q15.2058 6.32579 15.2778 6.37395Q15.3499 6.42211 15.4111 6.4834L16.6553 7.72778Q16.6553 7.72778 16.6553 7.72778Q16.7166 7.78908 16.7649 7.86115Q16.8131 7.93322 16.8463 8.0133Q16.8795 8.09338 16.8964 8.1784Q16.9133 8.26342 16.9133 8.3501Q16.9133 8.43678 16.8964 8.52179Q16.8795 8.60681 16.8463 8.68689Q16.8131 8.76697 16.7649 8.83905Q16.7166 8.91112 16.6553 8.97241L8.97266 16.655Q8.97266 16.655 8.97266 16.655Q8.91139 16.7163 8.83934 16.7645Q8.7673 16.8126 8.68725 16.8458Q8.6072 16.879 8.52221 16.8959Q8.43723 16.9128 8.35059 16.9128Q8.26394 16.9128 8.17896 16.8959Q8.09397 16.879 8.01392 16.8458Q7.93387 16.8126 7.86183 16.7645Q7.78978 16.7163 7.72852 16.655L6.48438 15.4104Q6.42301 15.3491 6.3748 15.2771Q6.32658 15.205 6.29337 15.125Q6.26016 15.0449 6.24323 14.9599Q6.2263 14.8749 6.2263 14.7883Q6.2263 14.7016 6.24323 14.6166Q6.26016 14.5316 6.29337 14.4515Q6.32658 14.3714 6.3748 14.2994Q6.42301 14.2273 6.48438 14.166L14.167 6.4834ZM19.5195 11.8362L15.4111 7.72778L16.0332 7.10571L16.6553 7.72778L15.4111 8.97241L14.7891 8.3501L15.4111 7.72778L19.5195 11.8362L18.8975 12.4585L18.2744 11.8362L19.5195 10.5916L20.1416 11.2139L19.5195 11.8362ZM20.7637 10.5916Q20.8249 10.6528 20.8731 10.7249Q20.9212 10.797 20.9544 10.8771Q20.9875 10.9572 21.0044 11.0422Q21.0213 11.1272 21.0213 11.2139Q21.0213 11.3005 21.0044 11.3856Q20.9875 11.4706 20.9544 11.5507Q20.9212 11.6307 20.8731 11.7028Q20.8249 11.7749 20.7637 11.8362L19.5195 13.0806Q19.4583 13.1419 19.3862 13.19Q19.3141 13.2382 19.234 13.2713Q19.154 13.3045 19.0689 13.3214Q18.9839 13.3383 18.8972 13.3383Q18.8105 13.3383 18.7254 13.3214Q18.6403 13.3045 18.5602 13.2713Q18.4801 13.2382 18.4079 13.19Q18.3358 13.1419 18.2744 13.0806L14.167 8.97241Q14.1056 8.91112 14.0574 8.83905Q14.0092 8.76697 13.976 8.68689Q13.9428 8.60681 13.9258 8.52179Q13.9089 8.43678 13.9089 8.3501Q13.9089 8.26342 13.9258 8.1784Q13.9428 8.09339 13.976 8.0133Q14.0092 7.93322 14.0574 7.86115Q14.1056 7.78908 14.167 7.72778L15.4111 6.4834Q15.4724 6.42211 15.5444 6.37395Q15.6165 6.32579 15.6965 6.29262Q15.7766 6.25945 15.8616 6.24254Q15.9466 6.22563 16.0332 6.22563Q16.1198 6.22563 16.2048 6.24254Q16.2898 6.25945 16.3699 6.29262Q16.4499 6.32579 16.522 6.37395Q16.594 6.42211 16.6553 6.4834L20.7637 10.5916ZM29.8262 7.7002Q27.0479 8.22729 24.4258 9.28491Q21.8535 10.323 19.5195 11.8362L19.041 11.0977L19.7793 10.6189L20.7363 12.0957L19.998 12.5745L19.5195 11.8362Q21.8535 10.323 24.4258 9.28491Q27.0479 8.22729 29.8262 7.7002L29.9902 8.5647L29.126 8.72876L28.7979 6.99951L29.6621 6.83545L29.8262 7.7002ZM29.498 5.97095Q29.5832 5.95479 29.6698 5.95556Q29.7564 5.95632 29.8413 5.97399Q29.9261 5.99165 30.0058 6.02553Q30.0856 6.05942 30.1572 6.10822Q30.2288 6.15701 30.2896 6.21885Q30.3503 6.28069 30.3978 6.35319Q30.4453 6.4257 30.4778 6.50608Q30.5102 6.58646 30.5264 6.67163L30.8545 8.40063Q30.8707 8.48578 30.8699 8.57244Q30.8691 8.6591 30.8515 8.74395Q30.8338 8.8288 30.8 8.90858Q30.7661 8.98835 30.7174 9.05998Q30.6686 9.13161 30.6068 9.19236Q30.545 9.2531 30.4725 9.30061Q30.4001 9.34812 30.3197 9.38058Q30.2394 9.41304 30.1543 9.4292Q27.5459 9.92432 25.085 10.9172Q22.6689 11.8918 20.4766 13.313Q20.4038 13.3601 20.3233 13.3922Q20.2428 13.4243 20.1576 13.44Q20.0724 13.4557 19.9857 13.4545Q19.8991 13.4533 19.8144 13.4352Q19.7296 13.4171 19.65 13.3828Q19.5704 13.3486 19.4991 13.2994Q19.4277 13.2502 19.3673 13.1881Q19.3069 13.126 19.2598 13.0532L18.3027 11.5764Q18.2555 11.5037 18.2234 11.4232Q18.1912 11.3427 18.1754 11.2574Q18.1596 11.1722 18.1608 11.0856Q18.1619 10.9989 18.1799 10.9141Q18.1979 10.8294 18.2322 10.7498Q18.2664 10.6702 18.3155 10.5988Q18.3646 10.5274 18.4267 10.467Q18.4888 10.4065 18.5615 10.3594Q21.0381 8.75415 23.7676 7.65283Q26.5488 6.53052 29.498 5.97095ZM29.8262 1.76001L29.8262 7.7002L28.9463 7.7002L28.9463 6.82007L30.7061 6.82007L30.7061 7.7002L29.8262 7.7002L29.8262 1.76001L30.7061 1.76001L30.7061 2.63989L28.9463 2.63989L28.9463 1.76001L29.8262 1.76001ZM28.0664 1.76001Q28.0664 1.67335 28.0833 1.58835Q28.1002 1.50336 28.1334 1.42329Q28.1665 1.34323 28.2147 1.27117Q28.2628 1.19912 28.3241 1.13784Q28.3854 1.07656 28.4575 1.02841Q28.5295 0.980268 28.6096 0.947104Q28.6896 0.91394 28.7746 0.897034Q28.8596 0.880127 28.9463 0.880127L30.7061 0.880127Q30.7927 0.880127 30.8777 0.897034Q30.9627 0.91394 31.0428 0.947104Q31.1228 0.980268 31.1949 1.02841Q31.2669 1.07656 31.3282 1.13784Q31.3895 1.19912 31.4376 1.27117Q31.4858 1.34323 31.519 1.42329Q31.5521 1.50336 31.569 1.58835Q31.5859 1.67335 31.5859 1.76001L31.5859 7.7002Q31.5859 7.78686 31.569 7.87185Q31.5521 7.95685 31.519 8.03691Q31.4858 8.11697 31.4376 8.18903Q31.3895 8.26109 31.3282 8.32237Q31.2669 8.38364 31.1949 8.43179Q31.1228 8.47994 31.0428 8.5131Q30.9627 8.54626 30.8777 8.56317Q30.7927 8.58008 30.7061 8.58008L28.9463 8.58008Q28.8596 8.58008 28.7746 8.56317Q28.6896 8.54626 28.6096 8.5131Q28.5295 8.47994 28.4575 8.43179Q28.3854 8.38364 28.3241 8.32237Q28.2628 8.26109 28.2147 8.18903Q28.1665 8.11697 28.1334 8.03691Q28.1002 7.95685 28.0833 7.87185Q28.0664 7.78686 28.0664 7.7002L28.0664 1.76001Z" fill="#666666" fill-opacity="1.000000" fill-rule="nonzero"/>
</svg>
