<svg width="24.000000" height="24.000000" viewBox="0 0 24 24" fill="none" xmlns="http://www.w3.org/2000/svg" xmlns:xlink="http://www.w3.org/1999/xlink">
	<desc>
			Created with Pixso.
	</desc>
	<defs>
		<clipPath id="clip43_18257">
			<rect id="fi-rr-marker" rx="0.000000" width="23.000000" height="23.000000" transform="translate(0.500000 0.500000)" fill="white" fill-opacity="0"/>
		</clipPath>
	</defs>
	<rect id="fi-rr-marker" rx="0.000000" width="23.000000" height="23.000000" transform="translate(0.500000 0.500000)" fill="#FFFFFF" fill-opacity="0"/>
	<g clip-path="url(#clip43_18257)">
		<path id="Vector" d="M12 6C11.2 6 10.43 6.23 9.77 6.67C9.12 7.11 8.6 7.73 8.3 8.46C8 9.2 7.92 10 8.07 10.78C8.23 11.55 8.61 12.26 9.17 12.82C9.73 13.38 10.44 13.76 11.21 13.92C11.99 14.07 12.79 13.99 13.53 13.69C14.26 13.39 14.88 12.88 15.32 12.22C15.76 11.56 16 10.79 16 10C16 8.93 15.57 7.92 14.82 7.17C14.07 6.42 13.06 6 12 6ZM12 12C11.6 12 11.21 11.88 10.88 11.66C10.55 11.44 10.3 11.13 10.15 10.76C10 10.39 9.96 9.99 10.03 9.6C10.11 9.22 10.3 8.86 10.58 8.58C10.86 8.3 11.22 8.11 11.6 8.03C11.99 7.96 12.4 8 12.76 8.15C13.13 8.3 13.44 8.55 13.66 8.88C13.88 9.21 14 9.6 14 10C14 10.53 13.78 11.03 13.41 11.41C13.03 11.78 12.53 12 12 12Z" fill="#BB8E34" fill-opacity="1.000000" fill-rule="nonzero"/>
		<path id="Vector" d="M12 24C11.15 24 10.32 23.8 9.57 23.42C8.82 23.04 8.17 22.48 7.68 21.8C3.87 16.54 1.94 12.59 1.94 10.05C1.94 7.38 3 4.82 4.89 2.94C6.77 1.05 9.33 -0.01 12 -0.01C14.66 -0.01 17.22 1.05 19.11 2.94C20.99 4.82 22.05 7.38 22.05 10.05C22.05 12.59 20.12 16.54 16.31 21.8C15.82 22.48 15.17 23.04 14.42 23.42C13.67 23.8 12.84 24 12 24ZM12 2.18C9.91 2.18 7.91 3.01 6.43 4.48C4.95 5.96 4.12 7.96 4.12 10.05C4.12 12.06 6.01 15.78 9.45 20.52C9.74 20.92 10.12 21.24 10.57 21.47C11.01 21.7 11.5 21.81 12 21.81C12.49 21.81 12.98 21.7 13.42 21.47C13.87 21.24 14.25 20.92 14.54 20.52C17.98 15.78 19.87 12.06 19.87 10.05C19.87 7.96 19.04 5.96 17.56 4.48C16.08 3.01 14.08 2.18 12 2.18Z" fill="#BB8E34" fill-opacity="1.000000" fill-rule="nonzero"/>
	</g>
</svg>
