<svg width="33.333984" height="20.000000" viewBox="0 0 33.334 20" fill="none" xmlns="http://www.w3.org/2000/svg" xmlns:xlink="http://www.w3.org/1999/xlink">
	<desc>
			Created with Pixso.
	</desc>
	<defs/>
	<path id="Vector" d="M33.33 10C33.33 15.48 28.87 20 23.33 20C17.84 20 13.33 15.48 13.33 10C13.33 4.51 17.79 0 23.28 0C28.87 0 33.33 4.51 33.33 10Z" fill="#F9B50B" fill-opacity="1.000000" fill-rule="nonzero"/>
	<path id="Vector" d="M19.94 10.05C19.94 9.33 19.84 8.61 19.74 7.94L13.58 7.94C13.64 7.58 13.74 7.28 13.84 6.87L19.33 6.87C19.23 6.51 19.07 6.15 18.92 5.79L14.25 5.79C14.41 5.43 14.61 5.12 14.82 4.71L18.35 4.71C18.15 4.35 17.89 4 17.58 3.64L15.64 3.64C15.94 3.28 16.25 2.97 16.66 2.61C14.92 0.97 12.56 0 9.94 0C4.51 0.15 0 4.51 0 10C0 15.48 4.46 20 10 20C12.61 20 14.92 18.97 16.71 17.38C17.07 17.07 17.38 16.71 17.74 16.3L15.69 16.3C15.43 16 15.17 15.64 14.97 15.28L18.46 15.28C18.66 14.97 18.87 14.61 19.02 14.2L14.35 14.2C14.2 13.89 14.05 13.53 13.94 13.12L19.43 13.12C19.74 12.2 19.94 11.17 19.94 10.05Z" fill="#C8191C" fill-opacity="1.000000" fill-rule="nonzero"/>
	<path id="Vector" d="M13.53 12.56L13.69 11.64C13.64 11.64 13.53 11.69 13.43 11.69C13.07 11.69 13.02 11.48 13.07 11.38L13.38 9.53L13.94 9.53L14.1 8.51L13.58 8.51L13.69 7.89L12.61 7.89C12.61 7.89 12 11.38 12 11.79C12 12.41 12.35 12.71 12.87 12.71C13.17 12.71 13.43 12.61 13.53 12.56Z" fill="#FFFFFF" fill-opacity="1.000000" fill-rule="nonzero"/>
	<path id="Vector" d="M13.89 10.87C13.89 12.35 14.92 12.71 15.74 12.71C16.51 12.71 16.87 12.56 16.87 12.56L17.07 11.53C17.07 11.53 16.51 11.79 15.94 11.79C14.76 11.79 14.97 10.92 14.97 10.92L17.12 10.92C17.12 10.92 17.28 10.25 17.28 9.94C17.28 9.28 16.92 8.41 15.74 8.41C14.71 8.35 13.89 9.53 13.89 10.87ZM15.74 9.33C16.3 9.33 16.2 10 16.2 10.05L15.02 10.05C15.07 10 15.17 9.33 15.74 9.33Z" fill="#FFFFFF" fill-opacity="1.000000" fill-rule="nonzero"/>
	<path id="Vector" d="M22.46 12.56L22.66 11.38C22.66 11.38 22.15 11.64 21.74 11.64C21.02 11.64 20.66 11.07 20.66 10.41C20.66 9.12 21.28 8.46 22.05 8.46C22.56 8.46 23.02 8.76 23.02 8.76L23.17 7.64C23.17 7.64 22.56 7.38 21.94 7.38C20.71 7.38 19.53 8.46 19.53 10.46C19.53 11.79 20.15 12.66 21.43 12.66C21.89 12.71 22.46 12.56 22.46 12.56Z" fill="#FFFFFF" fill-opacity="1.000000" fill-rule="nonzero"/>
	<path id="Vector" d="M7.74 8.35C7.02 8.35 6.46 8.56 6.46 8.56L6.3 9.48C6.3 9.48 6.76 9.28 7.48 9.28C7.84 9.28 8.15 9.33 8.15 9.64C8.15 9.84 8.1 9.89 8.1 9.89L7.64 9.89C6.71 9.89 5.74 10.25 5.74 11.48C5.74 12.46 6.35 12.66 6.76 12.66C7.48 12.66 7.84 12.2 7.89 12.2L7.84 12.61L8.71 12.61L9.12 9.69C9.12 8.41 8.1 8.35 7.74 8.35ZM7.94 10.71C7.94 10.87 7.84 11.74 7.23 11.74C6.92 11.74 6.82 11.48 6.82 11.33C6.82 11.07 6.97 10.71 7.79 10.71C7.89 10.71 7.94 10.71 7.94 10.71Z" fill="#FFFFFF" fill-opacity="1.000000" fill-rule="nonzero"/>
	<path id="Vector" d="M10.15 12.66C10.41 12.66 11.74 12.71 11.74 11.28C11.74 9.94 10.46 10.2 10.46 9.69C10.46 9.43 10.66 9.33 11.02 9.33C11.17 9.33 11.74 9.38 11.74 9.38L11.89 8.41C11.89 8.41 11.53 8.3 10.87 8.3C10.1 8.3 9.28 8.61 9.28 9.69C9.28 10.92 10.61 10.82 10.61 11.28C10.61 11.58 10.25 11.64 10 11.64C9.53 11.64 9.02 11.48 9.02 11.48L8.87 12.46C8.97 12.56 9.28 12.66 10.15 12.66Z" fill="#FFFFFF" fill-opacity="1.000000" fill-rule="nonzero"/>
	<path id="Vector" d="M31.28 7.53L31.07 8.97C31.07 8.97 30.66 8.46 30.05 8.46C29.07 8.46 28.25 9.64 28.25 11.02C28.25 11.89 28.66 12.76 29.58 12.76C30.2 12.76 30.61 12.35 30.61 12.35L30.56 12.71L31.64 12.71L32.41 7.64L31.28 7.53ZM30.76 10.3C30.76 10.87 30.51 11.64 29.89 11.64C29.53 11.64 29.33 11.33 29.33 10.76C29.33 9.89 29.69 9.38 30.2 9.38C30.56 9.43 30.76 9.69 30.76 10.3Z" fill="#FFFFFF" fill-opacity="1.000000" fill-rule="nonzero"/>
	<path id="Vector" d="M1.94 12.61L2.56 8.82L2.66 12.61L3.38 12.61L4.76 8.82L4.2 12.61L5.33 12.61L6.2 7.53L4.46 7.53L3.38 10.66L3.33 7.53L1.79 7.53L0.92 12.61L1.94 12.61Z" fill="#FFFFFF" fill-opacity="1.000000" fill-rule="nonzero"/>
	<path id="Vector" d="M18.35 12.61C18.66 10.87 18.71 9.43 19.48 9.69C19.58 9.02 19.74 8.71 19.84 8.46L19.64 8.46C19.17 8.46 18.76 9.07 18.76 9.07L18.87 8.51L17.84 8.51L17.17 12.61L18.35 12.61Z" fill="#FFFFFF" fill-opacity="1.000000" fill-rule="nonzero"/>
	<path id="Vector" d="M24.92 8.35C24.2 8.35 23.64 8.56 23.64 8.56L23.48 9.48C23.48 9.48 23.94 9.28 24.66 9.28C25.02 9.28 25.33 9.33 25.33 9.64C25.33 9.84 25.28 9.89 25.28 9.89L24.82 9.89C23.89 9.89 22.92 10.25 22.92 11.48C22.92 12.46 23.53 12.66 23.94 12.66C24.66 12.66 25.02 12.2 25.07 12.2L25.02 12.61L26 12.61L26.41 9.69C26.41 8.41 25.28 8.35 24.92 8.35ZM25.18 10.71C25.18 10.87 25.07 11.74 24.46 11.74C24.15 11.74 24.05 11.48 24.05 11.33C24.05 11.07 24.2 10.71 25.02 10.71C25.12 10.71 25.12 10.71 25.18 10.71Z" fill="#FFFFFF" fill-opacity="1.000000" fill-rule="nonzero"/>
	<path id="Vector" d="M27.23 12.61C27.53 10.87 27.58 9.43 28.35 9.69C28.46 9.02 28.61 8.71 28.71 8.46L28.51 8.46C28.05 8.46 27.64 9.07 27.64 9.07L27.74 8.51L26.71 8.51L26.05 12.61L27.23 12.61Z" fill="#FFFFFF" fill-opacity="1.000000" fill-rule="nonzero"/>
</svg>
