<svg width="14.000000" height="12.800049" viewBox="0 0 14 12.8" fill="none" xmlns="http://www.w3.org/2000/svg" xmlns:xlink="http://www.w3.org/1999/xlink">
	<desc>
			Created with Pixso.
	</desc>
	<defs/>
	<rect id="Vector" rx="0.000000" width="13.000000" height="11.800003" transform="translate(0.500000 0.500000)" fill="#FFFFFF" fill-opacity="0"/>
	<path id="Vector" d="M14 4.91C14 4.52 13.94 4.07 13.94 3.55C13.89 3.03 13.84 2.52 13.79 2.06C13.69 1.55 13.54 1.16 13.23 0.84C12.97 0.51 12.62 0.32 12.26 0.25C11.08 0.06 9.35 0 7 0C4.64 0 2.86 0.06 1.73 0.25C1.37 0.32 1.02 0.51 0.76 0.84C0.51 1.16 0.3 1.55 0.2 2.06C0.1 2.52 0.05 2.97 0.05 3.55C0 4.07 0 4.52 0 4.91C0 5.3 0 5.75 0 6.39C0 7.04 0 7.56 0 7.88C0 8.27 0.05 8.72 0.05 9.24C0.1 9.76 0.15 10.27 0.2 10.73C0.3 11.24 0.45 11.63 0.76 11.95C1.02 12.28 1.37 12.47 1.73 12.54C2.91 12.73 4.64 12.8 7 12.8C9.35 12.8 11.13 12.73 12.26 12.54C12.62 12.47 12.97 12.28 13.23 11.95C13.48 11.63 13.69 11.24 13.79 10.73C13.89 10.27 13.94 9.82 13.94 9.24C14 8.72 14 8.27 14 7.88C14 7.49 14 7.04 14 6.39C14 5.75 14 5.23 14 4.91ZM9.7 6.91L5.67 10.08C5.62 10.14 5.51 10.21 5.41 10.21C5.31 10.21 5.26 10.21 5.16 10.14C5 10.02 4.9 9.82 4.9 9.56L4.9 3.16C4.9 2.9 5 2.71 5.16 2.58C5.31 2.45 5.51 2.45 5.67 2.58L9.7 5.75C9.86 5.88 9.96 6.07 9.96 6.27C9.96 6.46 9.86 6.78 9.7 6.91Z" fill="#748191" fill-opacity="1.000000" fill-rule="nonzero"/>
</svg>
