<svg width="9.480469" height="15.529297" viewBox="0 0 9.48047 15.5293" fill="none" xmlns="http://www.w3.org/2000/svg" xmlns:xlink="http://www.w3.org/1999/xlink">
	<desc>
			Created with Pixso.
	</desc>
	<defs/>
	<rect id="Vector" rx="0.000000" width="8.480289" height="14.529246" transform="translate(0.500000 0.500000)" fill="#FFFFFF" fill-opacity="0"/>
	<path id="Vector" d="M4.7 8.1C6.93 8.1 8.75 6.33 8.75 4.1C8.75 3.01 8.34 1.97 7.56 1.19C6.78 0.41 5.79 0 4.75 0C2.52 0 0.75 1.81 0.7 3.99C0.7 5.08 1.12 6.07 1.9 6.85C2.62 7.68 3.61 8.1 4.7 8.1ZM3.56 2.9C3.87 2.59 4.29 2.44 4.7 2.44C5.63 2.44 6.31 3.16 6.31 4.05C6.31 4.98 5.58 5.66 4.7 5.66C3.77 5.66 3.09 4.93 3.09 4.05C3.09 3.63 3.25 3.22 3.56 2.9ZM6.78 11.89L5.89 11.01C6.36 10.95 6.88 10.85 7.35 10.64C8.13 10.38 8.7 10.02 9.17 9.55C9.53 9.19 9.58 8.67 9.27 8.15C9.01 7.73 8.54 7.53 8.02 7.63C7.82 7.68 7.61 7.79 7.4 7.94C5.79 9.03 3.61 8.98 2 7.89L1.69 7.73C1.12 7.47 0.54 7.58 0.23 8.1C-0.13 8.62 -0.08 9.19 0.39 9.66C0.49 9.76 0.6 9.81 0.65 9.91L0.7 9.97C1.43 10.54 2.31 10.9 3.45 11.06L2.78 11.73L1.01 13.5C0.86 13.65 0.65 13.91 0.65 14.28C0.65 14.75 0.91 15.21 1.38 15.42C1.53 15.52 1.69 15.52 1.84 15.52C2.1 15.52 2.41 15.42 2.62 15.16C3.4 14.38 4.03 13.76 4.65 13.14L4.7 13.08C4.7 13.08 4.75 13.08 4.75 13.14C5.17 13.6 5.63 14.02 6.05 14.49L6.67 15.11C6.93 15.37 7.14 15.47 7.45 15.47C7.92 15.52 8.44 15.21 8.65 14.75C8.86 14.33 8.75 13.81 8.39 13.5C7.87 12.98 7.35 12.41 6.78 11.89Z" fill="#798797" fill-opacity="1.000000" fill-rule="evenodd"/>
</svg>
