<svg width="14.458008" height="8.398438" viewBox="0 0 14.458 8.39844" fill="none" xmlns="http://www.w3.org/2000/svg" xmlns:xlink="http://www.w3.org/1999/xlink">
	<desc>
			Created with Pixso.
	</desc>
	<defs/>
	<rect id="Vector" rx="0.000000" width="13.457529" height="7.398356" transform="translate(0.500000 0.500000)" fill="#FFFFFF" fill-opacity="0"/>
	<path id="Vector" d="M14.32 7.53C14.32 7.47 14.26 7.47 14.26 7.42C14.03 6.96 13.51 6.38 12.82 5.75C12.48 5.46 12.3 5.23 12.19 5.11C12.02 4.88 12.02 4.71 12.08 4.48C12.13 4.31 12.36 4.02 12.77 3.5C13 3.22 13.11 3.04 13.28 2.87C14.15 1.72 14.55 0.97 14.43 0.63L14.38 0.57C14.32 0.51 14.26 0.46 14.15 0.46C14.03 0.4 13.86 0.4 13.69 0.46L11.5 0.46C11.44 0.46 11.44 0.46 11.33 0.46C11.27 0.46 11.21 0.46 11.21 0.46L11.15 0.46L11.1 0.46L11.04 0.51C10.98 0.57 10.98 0.57 10.98 0.63C10.75 1.26 10.46 1.78 10.18 2.35C10 2.64 9.83 2.93 9.66 3.16C9.49 3.39 9.37 3.56 9.26 3.68C9.14 3.79 9.03 3.85 8.97 3.96C8.91 4.02 8.8 4.08 8.8 4.02C8.74 4.02 8.68 4.02 8.68 3.96C8.62 3.91 8.57 3.85 8.51 3.79C8.45 3.73 8.45 3.62 8.39 3.5C8.39 3.39 8.39 3.27 8.39 3.22C8.39 3.16 8.39 2.99 8.39 2.87C8.39 2.7 8.39 2.58 8.39 2.53C8.39 2.35 8.39 2.12 8.39 1.89C8.39 1.66 8.39 1.49 8.39 1.38C8.39 1.26 8.39 1.09 8.39 0.97C8.39 0.8 8.39 0.69 8.39 0.63C8.39 0.57 8.34 0.46 8.34 0.4C8.28 0.34 8.22 0.28 8.16 0.22C8.11 0.17 7.99 0.17 7.93 0.11C7.65 0.05 7.3 0 6.9 0C5.98 0 5.34 0.05 5.11 0.17C5 0.22 4.88 0.28 4.83 0.4C4.71 0.51 4.71 0.57 4.77 0.57C5.06 0.63 5.29 0.74 5.4 0.92L5.46 1.03C5.52 1.09 5.52 1.2 5.58 1.38C5.63 1.55 5.63 1.72 5.63 1.95C5.63 2.3 5.63 2.64 5.63 2.87C5.63 3.16 5.58 3.33 5.58 3.5C5.58 3.68 5.52 3.79 5.46 3.85C5.4 3.96 5.4 4.02 5.34 4.02C5.34 4.02 5.34 4.08 5.29 4.08C5.23 4.08 5.17 4.14 5.06 4.14C5 4.14 4.88 4.08 4.83 4.02C4.71 3.96 4.6 3.85 4.54 3.73C4.42 3.62 4.31 3.45 4.19 3.22C4.08 2.99 3.91 2.76 3.79 2.41L3.68 2.18C3.62 2.07 3.5 1.84 3.39 1.55C3.27 1.26 3.16 1.03 3.04 0.74C2.99 0.63 2.93 0.57 2.87 0.51L2.81 0.51C2.81 0.51 2.76 0.46 2.7 0.46C2.64 0.46 2.58 0.4 2.53 0.4L0.45 0.4C0.23 0.4 0.11 0.46 0.05 0.51L0 0.57C0 0.57 0 0.63 0 0.69C0 0.74 0 0.8 0.05 0.92C0.34 1.61 0.69 2.3 1.03 2.99C1.38 3.62 1.72 4.19 1.95 4.6C2.24 5 2.47 5.4 2.76 5.75C3.04 6.09 3.22 6.32 3.27 6.44C3.39 6.55 3.45 6.61 3.5 6.67L3.68 6.84C3.79 6.96 3.96 7.13 4.19 7.3C4.42 7.47 4.71 7.65 5 7.82C5.29 7.99 5.63 8.11 5.98 8.22C6.38 8.34 6.73 8.39 7.07 8.34L7.93 8.34C8.11 8.34 8.22 8.28 8.34 8.16L8.39 8.11C8.39 8.05 8.45 8.05 8.45 7.99C8.45 7.93 8.45 7.88 8.45 7.76C8.45 7.53 8.45 7.36 8.51 7.19C8.57 7.01 8.57 6.9 8.62 6.78C8.68 6.67 8.74 6.61 8.8 6.55C8.85 6.5 8.91 6.44 8.91 6.44L8.97 6.44C9.08 6.38 9.26 6.44 9.37 6.55C9.54 6.67 9.72 6.84 9.83 7.01C9.95 7.19 10.12 7.36 10.35 7.59C10.58 7.82 10.75 7.99 10.87 8.05L11.04 8.16C11.15 8.22 11.27 8.28 11.44 8.34C11.62 8.39 11.73 8.39 11.84 8.39L13.8 8.34C13.97 8.34 14.15 8.28 14.26 8.22C14.38 8.16 14.43 8.11 14.43 7.99C14.43 7.93 14.43 7.82 14.43 7.76C14.32 7.65 14.32 7.59 14.32 7.53Z" fill="#798797" fill-opacity="1.000000" fill-rule="nonzero"/>
</svg>
