<svg width="65.142578" height="20.000000" viewBox="0 0 65.1426 20" fill="none" xmlns="http://www.w3.org/2000/svg" xmlns:xlink="http://www.w3.org/1999/xlink">
	<desc>
			Created with Pixso.
	</desc>
	<defs/>
	<path id="Vector" d="M60.76 0.28L56.66 0.28C55.42 0.28 54.47 0.66 53.9 1.9L46.09 19.71L51.61 19.71C51.61 19.71 52.57 17.33 52.76 16.76C53.33 16.76 58.76 16.76 59.52 16.76C59.71 17.42 60.19 19.61 60.19 19.61L65.14 19.61L60.76 0.28ZM54.28 12.76C54.76 11.61 56.38 7.33 56.38 7.33C56.38 7.42 56.85 6.19 57.04 5.52L57.42 7.23C57.42 7.23 58.47 11.9 58.66 12.85L54.28 12.85L54.28 12.76Z" fill="#798797" fill-opacity="1.000000" fill-rule="nonzero"/>
	<path id="Vector" d="M46.47 13.33C46.47 17.33 42.85 20 37.23 20C34.85 20 32.57 19.52 31.33 18.95L32.09 14.57L32.76 14.85C34.47 15.61 35.61 15.9 37.71 15.9C39.23 15.9 40.85 15.33 40.85 14C40.85 13.14 40.19 12.57 38.09 11.61C36.09 10.66 33.42 9.14 33.42 6.38C33.42 2.57 37.14 0 42.38 0C44.38 0 46.09 0.38 47.14 0.85L46.38 5.04L46 4.66C45.04 4.28 43.8 3.9 42 3.9C40 4 39.04 4.85 39.04 5.61C39.04 6.47 40.19 7.14 42 8C45.04 9.42 46.47 11.04 46.47 13.33Z" fill="#798797" fill-opacity="1.000000" fill-rule="nonzero"/>
	<path id="Vector" d="M0 0.47L0.09 0.09L8.28 0.09C9.42 0.09 10.28 0.47 10.57 1.71L12.38 10.28C10.57 5.71 6.38 2 0 0.47Z" fill="#FFFFFF" fill-opacity="1.000000" fill-rule="nonzero"/>
	<path id="Vector" d="M23.9 0.28L15.61 19.61L9.99 19.61L5.23 3.42C8.66 5.61 11.52 9.04 12.57 11.42L13.14 13.42L18.28 0.19L23.9 0.19L23.9 0.28Z" fill="#798797" fill-opacity="1.000000" fill-rule="nonzero"/>
	<path id="Vector" d="M26.09 0.19L31.33 0.19L28 19.61L22.76 19.61L26.09 0.19Z" fill="#798797" fill-opacity="1.000000" fill-rule="nonzero"/>
</svg>
