<svg width="69.032227" height="20.000244" viewBox="0 0 69.0322 20.0002" fill="none" xmlns="http://www.w3.org/2000/svg" xmlns:xlink="http://www.w3.org/1999/xlink">
	<desc>
			Created with Pixso.
	</desc>
	<defs/>
	<path id="path10 2" d="M61.93 0L48.64 0C49.41 4.38 53.67 8.51 58.32 8.51L68.9 8.51C69.03 8.12 69.03 7.48 69.03 7.09C69.03 3.22 65.8 0 61.93 0Z" fill="#FFFFFF" fill-opacity="1.000000" fill-rule="nonzero"/>
	<path id="path12 3" d="M49.8 9.29L49.8 20L56.25 20L56.25 14.32L61.93 14.32C65.03 14.32 67.74 12.12 68.64 9.29L49.8 9.29Z" fill="#798797" fill-opacity="1.000000" fill-rule="nonzero"/>
	<path id="path14 2" d="M27.09 0L27.09 19.87L32.77 19.87C32.77 19.87 34.19 19.87 34.96 18.45C38.83 10.83 40 8.51 40 8.51L40.77 8.51L40.77 19.87L47.22 19.87L47.22 0L41.54 0C41.54 0 40.12 0.12 39.35 1.41C36.12 8 34.32 11.35 34.32 11.35L33.54 11.35L33.54 0L27.09 0Z" fill="#798797" fill-opacity="1.000000" fill-rule="nonzero"/>
	<path id="path16 2" d="M0 19.99L0 0.12L6.45 0.12C6.45 0.12 8.25 0.12 9.29 2.96C11.87 10.45 12.12 11.48 12.12 11.48C12.12 11.48 12.64 9.67 14.96 2.96C16 0.12 17.8 0.12 17.8 0.12L24.25 0.12L24.25 19.99L17.8 19.99L17.8 9.29L17.03 9.29L13.41 19.99L10.58 19.99L6.96 9.29L6.19 9.29L6.19 19.99L0 19.99Z" fill="#798797" fill-opacity="1.000000" fill-rule="nonzero"/>
</svg>
