<svg width="123.804688" height="123.804565" viewBox="0 0 123.805 123.805" fill="none" xmlns="http://www.w3.org/2000/svg" xmlns:xlink="http://www.w3.org/1999/xlink">
	<desc>
			Created with Pixso.
	</desc>
	<defs>
		<filter id="filter_45_12959_dd" x="0.000000" y="0.000000" width="123.804688" height="123.804565" filterUnits="userSpaceOnUse" color-interpolation-filters="sRGB">
			<feFlood flood-opacity="0" result="BackgroundImageFix"/>
			<feColorMatrix in="SourceAlpha" type="matrix" values="0 0 0 0 0 0 0 0 0 0 0 0 0 0 0 0 0 0 127 0" result="hardAlpha"/>
			<feOffset dx="0" dy="4.56092"/>
			<feGaussianBlur stdDeviation="3.80077"/>
			<feComposite in2="hardAlpha" operator="out" k2="-1" k3="1"/>
			<feColorMatrix type="matrix" values="0 0 0 0 0.4 0 0 0 0 0.4 0 0 0 0 0.4 0 0 0 0.25 0"/>
			<feBlend mode="normal" in2="BackgroundImageFix" result="effect_dropShadow_1"/>
			<feBlend mode="normal" in="SourceGraphic" in2="effect_dropShadow_1" result="shape"/>
		</filter>
		<clipPath id="clip45_12963">
			<rect id="Frame 306/fi-rr-shield-check" rx="0.000000" width="76.000000" height="76.000000" transform="translate(23.953125 19.392151)" fill="white" fill-opacity="0"/>
		</clipPath>
	</defs>
	<g filter="url(#filter_45_12959_dd)">
		<rect id="Rectangle 524" x="11.402344" y="6.841370" rx="6.841379" width="101.000000" height="101.000000" fill="#FAFAFA" fill-opacity="1.000000"/>
	</g>
	<rect id="Frame 306/fi-rr-shield-check" rx="0.000000" width="76.000000" height="76.000000" transform="translate(23.953125 19.392151)" fill="#FFFFFF" fill-opacity="0"/>
	<g clip-path="url(#clip45_12963)">
		<path id="Vector" d="M83.06 25.75L62.96 19.05C62.3 18.83 61.59 18.83 60.93 19.05L40.83 25.75C37.64 26.81 34.86 28.86 32.89 31.59C30.92 34.32 29.86 37.6 29.86 40.97L29.86 57.39C29.86 81.65 59.38 95.05 60.64 95.61C61.05 95.79 61.5 95.89 61.95 95.89C62.4 95.89 62.84 95.79 63.25 95.61C64.51 95.05 94.03 81.65 94.03 57.39L94.03 40.97C94.03 37.6 92.98 34.32 91.01 31.59C89.04 28.86 86.26 26.81 83.06 25.75ZM87.61 57.39C87.61 74.89 67.34 86.37 61.95 89.11C56.55 86.38 36.28 74.93 36.28 57.39L36.28 40.97C36.28 38.95 36.92 36.98 38.1 35.34C39.28 33.7 40.95 32.48 42.86 31.84L61.95 25.48L81.03 31.84C82.95 32.48 84.62 33.7 85.8 35.34C86.98 36.98 87.61 38.95 87.61 40.97L87.61 57.39Z" fill="#BB8E34" fill-opacity="1.000000" fill-rule="nonzero"/>
		<path id="Vector" d="M72.54 45.52L59.1 58.99L51.9 51.48C51.61 51.17 51.26 50.91 50.87 50.73C50.48 50.56 50.06 50.46 49.63 50.44C49.21 50.43 48.78 50.5 48.38 50.65C47.98 50.81 47.62 51.04 47.31 51.34C47 51.63 46.75 51.99 46.58 52.38C46.41 52.78 46.33 53.2 46.32 53.63C46.32 54.06 46.4 54.48 46.57 54.88C46.73 55.27 46.97 55.63 47.28 55.93L54.67 63.63C55.23 64.23 55.89 64.7 56.63 65.04C57.38 65.37 58.18 65.54 58.99 65.56L59.1 65.56C59.89 65.56 60.68 65.4 61.41 65.1C62.15 64.79 62.82 64.35 63.38 63.78L77.08 50.08C77.38 49.78 77.62 49.42 77.78 49.03C77.95 48.64 78.03 48.22 78.03 47.8C78.03 47.38 77.95 46.96 77.79 46.57C77.62 46.18 77.39 45.82 77.09 45.52C76.79 45.22 76.44 44.98 76.04 44.82C75.65 44.66 75.24 44.58 74.81 44.58C74.39 44.58 73.97 44.66 73.58 44.82C73.19 44.98 72.83 45.22 72.54 45.52Z" fill="#BB8E34" fill-opacity="1.000000" fill-rule="nonzero"/>
	</g>
</svg>
