<svg width="123.804688" height="123.804565" viewBox="0 0 123.805 123.805" fill="none" xmlns="http://www.w3.org/2000/svg" xmlns:xlink="http://www.w3.org/1999/xlink">
	<desc>
			Created with Pixso.
	</desc>
	<defs>
		<filter id="filter_45_12969_dd" x="0.000000" y="0.000000" width="123.804688" height="123.804565" filterUnits="userSpaceOnUse" color-interpolation-filters="sRGB">
			<feFlood flood-opacity="0" result="BackgroundImageFix"/>
			<feColorMatrix in="SourceAlpha" type="matrix" values="0 0 0 0 0 0 0 0 0 0 0 0 0 0 0 0 0 0 127 0" result="hardAlpha"/>
			<feOffset dx="0" dy="4.56092"/>
			<feGaussianBlur stdDeviation="3.80077"/>
			<feComposite in2="hardAlpha" operator="out" k2="-1" k3="1"/>
			<feColorMatrix type="matrix" values="0 0 0 0 0.4 0 0 0 0 0.4 0 0 0 0 0.4 0 0 0 0.25 0"/>
			<feBlend mode="normal" in2="BackgroundImageFix" result="effect_dropShadow_1"/>
			<feBlend mode="normal" in="SourceGraphic" in2="effect_dropShadow_1" result="shape"/>
		</filter>
		<clipPath id="clip45_12973">
			<rect id="Frame 306/fi-rr-settings" rx="0.000000" width="75.897720" height="75.897720" transform="translate(23.953125 19.392151)" fill="white" fill-opacity="0"/>
		</clipPath>
	</defs>
	<g filter="url(#filter_45_12969_dd)">
		<rect id="Rectangle 524" x="11.402344" y="6.841370" rx="6.841379" width="101.000000" height="101.000000" fill="#FAFAFA" fill-opacity="1.000000"/>
	</g>
	<rect id="Frame 306/fi-rr-settings" rx="0.000000" width="75.897720" height="75.897720" transform="translate(23.953125 19.392151)" fill="#FFFFFF" fill-opacity="0"/>
	<g clip-path="url(#clip45_12973)">
		<path id="Vector" d="M61.9 44.52C59.36 44.52 56.88 45.27 54.78 46.68C52.67 48.09 51.03 50.09 50.06 52.43C49.09 54.77 48.83 57.35 49.33 59.84C49.82 62.32 51.04 64.61 52.83 66.4C54.63 68.19 56.91 69.41 59.4 69.91C61.88 70.4 64.46 70.15 66.8 69.18C69.14 68.21 71.15 66.56 72.55 64.46C73.96 62.35 74.71 59.87 74.71 57.34C74.71 53.94 73.36 50.68 70.96 48.27C68.56 45.87 65.3 44.52 61.9 44.52ZM61.9 63.74C60.63 63.74 59.39 63.37 58.34 62.66C57.28 61.96 56.46 60.96 55.98 59.79C55.49 58.62 55.37 57.33 55.61 56.09C55.86 54.84 56.47 53.7 57.37 52.8C58.26 51.91 59.4 51.3 60.65 51.05C61.89 50.8 63.18 50.93 64.35 51.42C65.52 51.9 66.52 52.72 67.23 53.78C67.93 54.83 68.31 56.07 68.31 57.34C68.31 59.04 67.63 60.67 66.43 61.87C65.23 63.07 63.6 63.74 61.9 63.74Z" fill="#BB8E34" fill-opacity="1.000000" fill-rule="nonzero"/>
		<path id="Vector" d="M91.68 63.42L90.25 62.6C90.89 59.12 90.89 55.55 90.25 52.06L91.68 51.24C92.77 50.61 93.73 49.77 94.5 48.77C95.27 47.77 95.83 46.62 96.16 45.4C96.49 44.18 96.57 42.91 96.41 41.66C96.24 40.41 95.83 39.2 95.2 38.11C94.57 37.01 93.73 36.05 92.73 35.28C91.73 34.51 90.58 33.95 89.36 33.62C88.14 33.3 86.87 33.21 85.62 33.38C84.37 33.54 83.16 33.95 82.06 34.58L80.64 35.4C77.95 33.1 74.85 31.32 71.51 30.14L71.51 28.5C71.51 25.95 70.5 23.51 68.7 21.7C66.89 19.9 64.45 18.89 61.9 18.89C59.35 18.89 56.9 19.9 55.1 21.7C53.3 23.51 52.29 25.95 52.29 28.5L52.29 30.14C48.95 31.32 45.85 33.11 43.16 35.42L41.73 34.59C39.52 33.31 36.89 32.97 34.43 33.63C31.97 34.29 29.87 35.9 28.59 38.11C27.32 40.32 26.97 42.95 27.63 45.41C28.29 47.87 29.91 49.97 32.12 51.25L33.54 52.07C32.9 55.55 32.9 59.13 33.54 62.61L32.12 63.43C29.91 64.7 28.29 66.8 27.63 69.27C26.97 71.73 27.32 74.36 28.59 76.57C29.87 78.78 31.97 80.39 34.43 81.05C36.89 81.71 39.52 81.37 41.73 80.09L43.15 79.27C45.85 81.57 48.94 83.35 52.29 84.53L52.29 86.17C52.29 88.72 53.3 91.17 55.1 92.97C56.9 94.77 59.35 95.78 61.9 95.78C64.45 95.78 66.89 94.77 68.7 92.97C70.5 91.17 71.51 88.72 71.51 86.17L71.51 84.53C74.85 83.35 77.94 81.56 80.64 79.26L82.07 80.08C84.28 81.36 86.9 81.7 89.37 81.04C91.83 80.38 93.93 78.77 95.2 76.56C96.48 74.35 96.82 71.72 96.16 69.26C95.5 66.8 93.89 64.7 91.68 63.42L91.68 63.42ZM83.51 51.33C84.6 55.26 84.6 59.41 83.51 63.34C83.32 64.02 83.37 64.75 83.64 65.41C83.9 66.07 84.38 66.62 85 66.97L88.47 68.98C89.21 69.4 89.75 70.1 89.97 70.92C90.19 71.74 90.07 72.62 89.65 73.35C89.22 74.09 88.52 74.63 87.7 74.85C86.88 75.07 86 74.95 85.27 74.53L81.79 72.52C81.17 72.16 80.46 72.02 79.75 72.11C79.05 72.21 78.39 72.54 77.9 73.05C75.04 75.96 71.45 78.03 67.5 79.05C66.82 79.23 66.21 79.63 65.77 80.19C65.33 80.76 65.1 81.45 65.1 82.16L65.1 86.17C65.1 87.02 64.76 87.84 64.16 88.44C63.56 89.04 62.74 89.38 61.89 89.38C61.04 89.38 60.23 89.04 59.63 88.44C59.03 87.84 58.69 87.02 58.69 86.17L58.69 82.16C58.69 81.45 58.46 80.76 58.02 80.2C57.58 79.63 56.97 79.23 56.28 79.06C52.34 78.03 48.75 75.95 45.9 73.04C45.4 72.53 44.75 72.2 44.04 72.11C43.34 72.01 42.62 72.15 42 72.51L38.53 74.52C38.17 74.73 37.76 74.87 37.34 74.93C36.93 74.98 36.5 74.96 36.09 74.85C35.68 74.74 35.3 74.55 34.96 74.3C34.63 74.04 34.35 73.72 34.14 73.35C33.92 72.99 33.79 72.58 33.73 72.17C33.68 71.75 33.71 71.32 33.82 70.91C33.93 70.5 34.12 70.12 34.38 69.79C34.64 69.46 34.96 69.18 35.33 68.97L38.8 66.96C39.41 66.61 39.89 66.06 40.16 65.4C40.43 64.74 40.48 64.02 40.29 63.33C39.2 59.4 39.2 55.25 40.29 51.32C40.47 50.63 40.43 49.91 40.16 49.25C39.89 48.6 39.41 48.05 38.8 47.7L35.32 45.69C34.59 45.27 34.05 44.57 33.83 43.75C33.61 42.93 33.72 42.05 34.15 41.31C34.57 40.58 35.27 40.04 36.09 39.82C36.92 39.6 37.79 39.71 38.53 40.14L42.01 42.15C42.62 42.51 43.34 42.65 44.04 42.56C44.74 42.47 45.4 42.14 45.9 41.64C48.75 38.72 52.34 36.65 56.29 35.63C56.98 35.45 57.59 35.05 58.03 34.48C58.46 33.92 58.7 33.22 58.69 32.51L58.69 28.5C58.69 27.65 59.03 26.83 59.63 26.23C60.23 25.63 61.05 25.3 61.9 25.3C62.75 25.3 63.56 25.63 64.16 26.23C64.76 26.83 65.1 27.65 65.1 28.5L65.1 32.51C65.1 33.22 65.34 33.91 65.77 34.48C66.21 35.04 66.82 35.44 67.51 35.62C71.46 36.64 75.05 38.72 77.9 41.64C78.4 42.14 79.05 42.47 79.75 42.57C80.46 42.66 81.18 42.52 81.79 42.16L85.27 40.16C85.63 39.94 86.03 39.8 86.45 39.75C86.87 39.69 87.3 39.71 87.71 39.82C88.11 39.93 88.5 40.12 88.83 40.37C89.17 40.63 89.45 40.95 89.66 41.32C89.87 41.68 90.01 42.09 90.06 42.51C90.12 42.93 90.09 43.35 89.98 43.76C89.87 44.17 89.68 44.55 89.42 44.88C89.16 45.22 88.84 45.5 88.47 45.71L85 47.71C84.38 48.07 83.91 48.61 83.64 49.27C83.37 49.92 83.33 50.65 83.51 51.33L83.51 51.33Z" fill="#BB8E34" fill-opacity="1.000000" fill-rule="nonzero"/>
	</g>
</svg>
