<svg width="23.969727" height="20.000000" viewBox="0 0 23.9697 20" fill="none" xmlns="http://www.w3.org/2000/svg" xmlns:xlink="http://www.w3.org/1999/xlink">
	<desc>
			Created with Pixso.
	</desc>
	<defs/>
	<path id="Vector" d="M20.98 10.42L20.98 9C20.98 6.61 20.03 4.32 18.34 2.63C16.66 0.94 14.37 0 11.98 0C9.59 0 7.3 0.94 5.62 2.63C3.93 4.32 2.98 6.61 2.98 9L2.98 10.42C1.93 10.88 1.07 11.69 0.55 12.71C0.02 13.73 -0.13 14.9 0.1 16.02C0.33 17.14 0.95 18.15 1.84 18.87C2.72 19.59 3.83 19.99 4.98 20C5.51 20 6.02 19.78 6.39 19.41C6.77 19.03 6.98 18.53 6.98 18L6.98 12C6.98 11.46 6.77 10.96 6.39 10.58C6.02 10.21 5.51 10 4.98 10L4.98 9C4.98 7.14 5.72 5.36 7.03 4.05C8.34 2.73 10.12 2 11.98 2C13.84 2 15.62 2.73 16.93 4.05C18.24 5.36 18.98 7.14 18.98 9L18.98 10C18.45 10 17.94 10.21 17.57 10.58C17.19 10.96 16.98 11.46 16.98 12L16.98 18L13.98 18C13.71 18 13.46 18.1 13.27 18.29C13.09 18.48 12.98 18.73 12.98 19C12.98 19.26 13.09 19.51 13.27 19.7C13.46 19.89 13.71 20 13.98 20L18.98 20C20.13 19.99 21.24 19.59 22.12 18.87C23.01 18.15 23.62 17.14 23.86 16.02C24.09 14.9 23.94 13.73 23.41 12.71C22.89 11.69 22.03 10.88 20.98 10.42ZM4.98 18C4.18 18 3.42 17.68 2.86 17.12C2.3 16.55 1.98 15.79 1.98 15C1.98 14.2 2.3 13.44 2.86 12.87C3.42 12.31 4.18 12 4.98 12L4.98 18ZM18.98 18L18.98 12C19.78 12 20.54 12.31 21.1 12.87C21.66 13.44 21.98 14.2 21.98 15C21.98 15.79 21.66 16.55 21.1 17.12C20.54 17.68 19.78 18 18.98 18Z" fill="#BB8E34" fill-opacity="1.000000" fill-rule="nonzero"/>
</svg>
