<svg width="138.219727" height="33.988281" viewBox="0 0 138.22 33.9883" fill="none" xmlns="http://www.w3.org/2000/svg" xmlns:xlink="http://www.w3.org/1999/xlink">
	<desc>
			Created with Pixso.
	</desc>
	<defs>
		<clipPath id="clip7_18523">
			<rect id="Vector Smart Object 1" rx="0.000000" width="32.288868" height="24.924740" transform="translate(0.283236 4.531771)" fill="white" fill-opacity="0"/>
		</clipPath>
		<clipPath id="clip7_18524">
			<rect id="Logotype" rx="0.000000" width="32.288868" height="33.421810" transform="translate(0.283236 0.283236)" fill="white" fill-opacity="0"/>
		</clipPath>
	</defs>
	<rect id="Logotype" rx="0.000000" width="32.288868" height="33.421810" transform="translate(0.283236 0.283236)" fill="#FFFFFF" fill-opacity="0"/>
	<g clip-path="url(#clip7_18524)">
		<rect id="Vector Smart Object 1" rx="0.000000" width="32.288868" height="24.924740" transform="translate(0.283236 4.531771)" fill="#FFFFFF" fill-opacity="0"/>
		<g clip-path="url(#clip7_18523)">
			<path id="Vector" d="M14.37 10.52L14.37 25.3C14.38 25.4 14.36 25.5 14.32 25.59C14.28 25.69 14.22 25.77 14.14 25.85C14.07 25.92 13.98 25.98 13.87 26.02C13.77 26.06 13.66 26.08 13.55 26.08C13.44 26.08 13.33 26.06 13.23 26.02C13.12 25.98 13.03 25.92 12.96 25.85C12.88 25.77 12.82 25.69 12.78 25.59C12.74 25.5 12.72 25.4 12.73 25.3L12.73 14.22C12.72 13.74 12.5 13.28 12.11 12.94C11.73 12.6 11.21 12.41 10.68 12.41C10.14 12.41 9.62 12.6 9.24 12.94C8.86 13.28 8.63 13.74 8.62 14.22L8.62 25.3C8.63 25.4 8.61 25.5 8.57 25.59C8.53 25.69 8.47 25.77 8.4 25.85C8.32 25.92 8.23 25.98 8.13 26.02C8.02 26.06 7.91 26.08 7.8 26.08C7.69 26.08 7.58 26.06 7.48 26.02C7.38 25.98 7.28 25.92 7.21 25.85C7.13 25.77 7.07 25.69 7.03 25.59C6.99 25.5 6.98 25.4 6.98 25.3L6.98 17.91C6.99 17.67 6.94 17.42 6.84 17.19C6.74 16.96 6.59 16.76 6.4 16.58C6.2 16.4 5.98 16.26 5.72 16.17C5.47 16.07 5.2 16.02 4.93 16.02C4.65 16.02 4.38 16.07 4.13 16.17C3.88 16.26 3.65 16.4 3.46 16.58C3.27 16.76 3.12 16.96 3.02 17.19C2.92 17.42 2.87 17.67 2.87 17.91L2.87 25.3C2.87 26.48 3.39 27.6 4.32 28.44C5.24 29.27 6.5 29.73 7.8 29.73L27.92 29.73C29.23 29.73 30.48 29.27 31.41 28.44C32.33 27.6 32.85 26.48 32.85 25.3L32.85 17.54C32.85 16.83 32.66 16.12 32.29 15.48C31.92 14.85 31.38 14.3 30.73 13.9L30.7 13.88L30.66 13.86L19.29 6.92C19.22 6.87 19.15 6.83 19.08 6.79L19.08 6.79C18.28 6.33 17.36 6.09 16.42 6.09C15.48 6.09 14.56 6.33 13.77 6.79C13.63 6.87 13.5 6.95 13.37 7.04L12.73 7.45L12.73 6.09C12.73 5.85 12.68 5.6 12.58 5.37C12.48 5.14 12.33 4.94 12.14 4.76C11.95 4.58 11.72 4.44 11.47 4.35C11.22 4.25 10.95 4.2 10.67 4.2C10.4 4.2 10.13 4.25 9.88 4.35C9.62 4.44 9.4 4.58 9.2 4.76C9.01 4.94 8.86 5.14 8.76 5.37C8.66 5.6 8.61 5.85 8.62 6.09L8.62 10.09L2.13 14.26C1.47 14.67 0.93 15.21 0.56 15.85C0.19 16.49 -0.01 17.2 0 17.91L0 25.55C0 25.82 0.27 26.04 0.61 26.04C0.95 26.04 1.23 25.82 1.23 25.55L1.23 17.91C1.23 17.38 1.37 16.86 1.64 16.39C1.9 15.92 2.29 15.52 2.77 15.21L9.85 10.66L9.85 6.09C9.85 5.99 9.86 5.89 9.9 5.8C9.94 5.7 10 5.62 10.08 5.55C10.15 5.47 10.25 5.42 10.35 5.38C10.45 5.34 10.56 5.32 10.67 5.32C10.78 5.32 10.89 5.34 11 5.38C11.1 5.42 11.19 5.47 11.27 5.55C11.34 5.62 11.4 5.7 11.44 5.8C11.48 5.89 11.5 5.99 11.49 6.09L11.49 9.61L11.62 9.53L12.18 9.17L14.41 7.73C15.01 7.38 15.71 7.2 16.42 7.2C17.14 7.2 17.83 7.38 18.43 7.73L30.08 14.84C30.56 15.15 30.95 15.56 31.21 16.03C31.48 16.5 31.62 17.01 31.62 17.54L31.62 25.3C31.62 25.74 31.52 26.17 31.34 26.57C31.15 26.98 30.88 27.34 30.54 27.65C30.19 27.96 29.79 28.2 29.34 28.37C28.89 28.54 28.41 28.62 27.92 28.62L7.8 28.62C7.31 28.62 6.83 28.54 6.38 28.37C5.94 28.2 5.53 27.96 5.19 27.65C4.84 27.34 4.57 26.98 4.38 26.57C4.2 26.17 4.1 25.74 4.1 25.3L4.1 17.91C4.11 17.72 4.2 17.54 4.36 17.41C4.51 17.28 4.71 17.21 4.92 17.21C5.13 17.21 5.34 17.28 5.49 17.41C5.64 17.54 5.73 17.72 5.74 17.91L5.74 25.3C5.74 25.55 5.79 25.79 5.89 26.02C5.99 26.25 6.14 26.46 6.33 26.63C6.52 26.81 6.75 26.95 7 27.04C7.25 27.14 7.52 27.19 7.8 27.19C8.07 27.19 8.34 27.14 8.59 27.04C8.85 26.95 9.07 26.81 9.27 26.63C9.46 26.46 9.61 26.25 9.71 26.02C9.81 25.79 9.86 25.55 9.85 25.3L9.85 14.22C9.85 14.12 9.86 14.02 9.9 13.92C9.94 13.83 10 13.75 10.08 13.67C10.15 13.6 10.25 13.54 10.35 13.5C10.45 13.46 10.56 13.44 10.67 13.44C10.78 13.44 10.89 13.46 11 13.5C11.1 13.54 11.19 13.6 11.27 13.67C11.34 13.75 11.4 13.83 11.44 13.92C11.48 14.02 11.5 14.12 11.49 14.22L11.49 25.3C11.49 25.55 11.54 25.79 11.64 26.02C11.74 26.25 11.89 26.46 12.08 26.63C12.27 26.81 12.5 26.95 12.75 27.04C13 27.14 13.27 27.19 13.55 27.19C13.82 27.19 14.09 27.14 14.34 27.04C14.59 26.95 14.82 26.81 15.01 26.63C15.21 26.46 15.36 26.25 15.46 26.02C15.56 25.79 15.61 25.55 15.6 25.3L15.6 10.52C15.59 10.42 15.61 10.32 15.65 10.23C15.69 10.13 15.75 10.05 15.83 9.97C15.9 9.9 15.99 9.84 16.1 9.81C16.2 9.77 16.31 9.75 16.42 9.75C16.53 9.75 16.64 9.77 16.74 9.81C16.85 9.84 16.94 9.9 17.01 9.97C17.09 10.05 17.15 10.13 17.19 10.23C17.23 10.32 17.25 10.42 17.24 10.52L17.24 25.3C17.23 25.55 17.28 25.79 17.38 26.02C17.48 26.25 17.63 26.46 17.83 26.63C18.02 26.81 18.25 26.95 18.5 27.04C18.75 27.14 19.02 27.19 19.29 27.19C19.57 27.19 19.84 27.14 20.09 27.04C20.34 26.95 20.57 26.81 20.76 26.63C20.95 26.46 21.1 26.25 21.2 26.02C21.3 25.79 21.35 25.55 21.35 25.3L21.35 14.22C21.36 14.03 21.45 13.85 21.6 13.72C21.75 13.59 21.96 13.52 22.17 13.52C22.38 13.52 22.58 13.59 22.73 13.72C22.89 13.85 22.98 14.03 22.99 14.22L22.99 25.3C22.99 25.54 23.04 25.78 23.14 26.01C23.25 26.23 23.4 26.44 23.59 26.61C23.78 26.78 24.01 26.91 24.26 27.01C24.5 27.1 24.77 27.15 25.04 27.15C25.31 27.15 25.58 27.1 25.83 27.01C26.08 26.91 26.3 26.78 26.49 26.61C26.68 26.44 26.83 26.23 26.94 26.01C27.04 25.78 27.09 25.54 27.09 25.3L27.09 17.54C27.1 17.35 27.2 17.17 27.35 17.04C27.5 16.91 27.7 16.84 27.91 16.84C28.13 16.84 28.33 16.91 28.48 17.04C28.63 17.17 28.73 17.35 28.74 17.54L28.74 25.49C28.74 25.63 28.81 25.76 28.92 25.86C29.04 25.96 29.19 26.02 29.35 26.02C29.51 26.02 29.66 25.96 29.78 25.86C29.89 25.76 29.96 25.63 29.97 25.49L29.97 17.54C29.96 17.06 29.74 16.6 29.35 16.26C28.97 15.92 28.45 15.74 27.91 15.74C27.38 15.74 26.86 15.92 26.48 16.26C26.09 16.6 25.87 17.06 25.86 17.54L25.86 25.3C25.87 25.4 25.85 25.5 25.81 25.59C25.77 25.69 25.71 25.77 25.64 25.85C25.56 25.92 25.47 25.98 25.36 26.02C25.26 26.06 25.15 26.08 25.04 26.08C24.93 26.08 24.82 26.06 24.72 26.02C24.62 25.98 24.52 25.92 24.45 25.85C24.37 25.77 24.31 25.69 24.27 25.59C24.23 25.5 24.21 25.4 24.22 25.3L24.22 14.22C24.21 13.74 23.99 13.28 23.6 12.94C23.22 12.6 22.7 12.41 22.17 12.41C21.63 12.41 21.11 12.6 20.73 12.94C20.35 13.28 20.12 13.74 20.11 14.22L20.11 25.3C20.12 25.4 20.1 25.5 20.06 25.59C20.02 25.69 19.96 25.77 19.89 25.85C19.81 25.92 19.72 25.98 19.62 26.02C19.51 26.06 19.4 26.08 19.29 26.08C19.18 26.08 19.07 26.06 18.97 26.02C18.87 25.98 18.77 25.92 18.7 25.85C18.62 25.77 18.56 25.69 18.52 25.59C18.48 25.5 18.47 25.4 18.47 25.3L18.47 10.52C18.47 10.03 18.26 9.56 17.87 9.21C17.49 8.87 16.96 8.67 16.42 8.67C15.87 8.67 15.35 8.87 14.97 9.21C14.58 9.56 14.37 10.03 14.37 10.52L14.37 10.52Z" fill="#FAF39E" fill-opacity="1.000000" fill-rule="evenodd"/>
		</g>
	</g>
	<path id="STOPRADIATORS" d="M105.98 14.26Q106.75 13.36 106.75 11.74L106.75 10.36Q106.73 8.71 105.96 7.79Q105.7 7.48 105.36 7.27Q104.73 6.88 103.84 6.88Q102.93 6.88 102.29 7.29Q101.96 7.5 101.71 7.81Q100.94 8.74 100.94 10.4L100.94 11.78Q100.95 13.38 101.72 14.26Q101.96 14.53 102.24 14.72Q102.9 15.15 103.85 15.15Q104.8 15.15 105.46 14.71Q105.75 14.53 105.98 14.26ZM117.48 12.2Q117.72 12.45 117.72 12.93Q117.72 13.4 117.49 13.63Q117.27 13.83 116.87 13.83Q116.28 13.83 116 13.53Q115.99 13.52 115.99 13.51Q115.72 13.2 115.72 12.5L114.08 12.5Q114.08 13.3 114.44 13.9Q114.44 13.9 114.45 13.91Q114.6 14.16 114.79 14.36Q115.07 14.64 115.45 14.83Q115.52 14.87 115.6 14.9Q116.18 15.15 116.87 15.15Q117.97 15.15 118.63 14.62Q118.66 14.59 118.69 14.56Q118.87 14.4 119 14.21Q119.36 13.69 119.36 12.92Q119.36 12.14 119.01 11.59Q118.93 11.46 118.83 11.34Q118.29 10.72 117.12 10.3Q116.44 10.01 116.17 9.74Q115.98 9.55 115.93 9.32Q115.91 9.23 115.91 9.14Q115.91 8.78 116.08 8.54Q116.11 8.5 116.15 8.46Q116.19 8.41 116.24 8.38Q116.47 8.21 116.81 8.21Q117.14 8.21 117.36 8.37Q117.44 8.42 117.51 8.51Q117.75 8.8 117.75 9.37L119.37 9.37Q119.37 8.7 119.1 8.16Q119.08 8.12 119.05 8.07Q118.91 7.81 118.72 7.61Q118.48 7.36 118.16 7.19Q118.14 7.18 118.12 7.17Q117.55 6.88 116.84 6.88Q115.93 6.88 115.29 7.29Q115.14 7.38 115 7.49Q114.71 7.74 114.54 8.05Q114.28 8.52 114.28 9.13Q114.28 9.6 114.45 10.01Q114.58 10.32 114.81 10.59Q115.34 11.2 116.56 11.66Q117.22 11.93 117.47 12.18Q117.48 12.19 117.48 12.2ZM67.6 12.1L68.4 12.1L69.62 15.04L71.36 15.04L71.36 14.96L69.95 11.67Q70.33 11.46 70.59 11.15Q71.12 10.5 71.12 9.42Q71.12 8.42 70.63 7.82Q70.55 7.71 70.45 7.62Q70.43 7.59 70.4 7.57Q69.73 6.99 68.56 6.99L65.97 6.99L65.97 15.04L67.6 15.04L67.6 12.1ZM73.93 13.39L76.15 13.39L76.58 15.04L78.32 15.04L75.79 6.99L74.3 6.99L71.78 15.04L73.5 15.04L73.93 13.39ZM79.14 6.99L79.14 15.04L81.22 15.04Q82.35 15.04 83.1 14.51Q83.34 14.35 83.53 14.14Q83.6 14.07 83.65 14Q84.37 13.12 84.37 11.64L84.37 10.34Q84.36 8.91 83.65 8.04Q83.59 7.96 83.52 7.88Q83.28 7.63 82.99 7.44Q82.28 6.99 81.27 6.99L79.14 6.99ZM85.68 15.04L87.31 15.04L87.31 6.99L85.68 6.99L85.68 15.04ZM90.47 13.39L92.68 13.39L93.12 15.04L94.85 15.04L92.32 6.99L90.83 6.99L88.31 15.04L90.04 15.04L90.47 13.39ZM98.23 8.34L100.23 8.34L100.23 6.99L94.64 6.99L94.64 8.34L96.6 8.34L96.6 15.04L98.23 15.04L98.23 8.34ZM109.61 12.1L110.42 12.1L111.63 15.04L113.38 15.04L113.38 14.96L111.97 11.67Q112.35 11.46 112.6 11.15Q113.14 10.5 113.14 9.42Q113.14 8.42 112.65 7.82Q112.57 7.71 112.47 7.62Q112.44 7.59 112.41 7.57Q111.75 6.99 110.58 6.99L107.99 6.99L107.99 15.04L109.61 15.04L109.61 12.1ZM104.8 8.77Q105.11 9.3 105.11 10.39L105.11 11.79Q105.11 12.82 104.8 13.31Q104.67 13.5 104.5 13.62Q104.23 13.8 103.85 13.8Q103.45 13.8 103.17 13.61Q103 13.49 102.88 13.3Q102.56 12.8 102.56 11.74L102.56 10.31Q102.57 9.26 102.88 8.75Q103.01 8.53 103.2 8.41Q103.46 8.24 103.84 8.24Q104.21 8.24 104.46 8.4Q104.67 8.53 104.8 8.77ZM68.52 10.74L67.6 10.74L67.6 8.34L68.55 8.34Q68.91 8.34 69.13 8.52Q69.49 8.8 69.49 9.55Q69.49 10.1 69.25 10.42Q69.18 10.51 69.1 10.57Q68.87 10.74 68.52 10.74ZM80.77 13.69L80.77 8.34L81.36 8.34Q82.02 8.36 82.34 8.7Q82.39 8.75 82.43 8.81Q82.75 9.25 82.75 10.38L82.75 11.78Q82.73 12.83 82.4 13.26Q82.38 13.29 82.36 13.31Q82.02 13.69 81.25 13.69L80.77 13.69ZM110.54 10.74L109.61 10.74L109.61 8.34L110.56 8.34Q110.92 8.34 111.14 8.52Q111.51 8.8 111.51 9.55Q111.51 10.1 111.27 10.42Q111.2 10.51 111.11 10.57Q110.89 10.74 110.54 10.74ZM75.79 12.04L74.29 12.04L75.04 9.17L75.79 12.04ZM92.33 12.04L90.82 12.04L91.57 9.17L92.33 12.04Z" fill="#FFFFFF" fill-opacity="1.000000" fill-rule="evenodd"/>
	<path id="STOPRADIATORS" d="M43.46 12.2Q43.7 12.45 43.7 12.93Q43.7 13.4 43.46 13.63Q43.25 13.83 42.85 13.83Q42.25 13.83 41.98 13.53Q41.97 13.52 41.96 13.51Q41.69 13.2 41.69 12.5L40.06 12.5Q40.06 13.3 40.41 13.9Q40.42 13.9 40.42 13.91Q40.57 14.16 40.77 14.36Q41.05 14.64 41.42 14.83Q41.5 14.87 41.58 14.9Q42.16 15.15 42.85 15.15Q43.94 15.15 44.6 14.62Q44.63 14.59 44.67 14.56Q44.84 14.4 44.98 14.21Q45.34 13.69 45.34 12.92Q45.34 12.14 44.99 11.59Q44.9 11.46 44.8 11.34Q44.27 10.72 43.09 10.3Q42.41 10.01 42.15 9.74Q41.96 9.55 41.9 9.32Q41.88 9.23 41.88 9.14Q41.88 8.78 42.06 8.54Q42.09 8.5 42.12 8.46Q42.17 8.41 42.22 8.38Q42.44 8.21 42.78 8.21Q43.11 8.21 43.33 8.37Q43.41 8.42 43.48 8.51Q43.72 8.8 43.72 9.37L45.34 9.37Q45.34 8.7 45.07 8.16Q45.05 8.12 45.03 8.07Q44.89 7.81 44.69 7.61Q44.45 7.36 44.13 7.19Q44.11 7.18 44.09 7.17Q43.53 6.88 42.81 6.88Q41.91 6.88 41.26 7.29Q41.11 7.38 40.98 7.49Q40.69 7.74 40.52 8.05Q40.26 8.52 40.26 9.13Q40.26 9.6 40.43 10.01Q40.56 10.32 40.79 10.59Q41.32 11.2 42.53 11.66Q43.19 11.93 43.45 12.18Q43.45 12.19 43.46 12.2ZM57.45 14.26Q58.22 13.36 58.22 11.74L58.22 10.36Q58.21 8.71 57.43 7.79Q57.17 7.48 56.84 7.27Q56.2 6.88 55.31 6.88Q54.4 6.88 53.76 7.29Q53.43 7.5 53.18 7.81Q52.41 8.74 52.41 10.4L52.41 11.78Q52.42 13.38 53.19 14.26Q53.43 14.53 53.71 14.72Q54.38 15.15 55.32 15.15Q56.28 15.15 56.94 14.71Q57.22 14.53 57.45 14.26ZM49.71 8.34L51.7 8.34L51.7 6.99L46.12 6.99L46.12 8.34L48.08 8.34L48.08 15.04L49.71 15.04L49.71 8.34ZM61.08 15.04L61.08 12.21L62.16 12.21Q63.26 12.21 63.94 11.67Q64.03 11.6 64.11 11.52Q64.25 11.38 64.37 11.22Q64.81 10.59 64.81 9.65Q64.81 8.77 64.42 8.13Q64.28 7.92 64.1 7.73Q63.92 7.53 63.7 7.39Q63.08 6.99 62.2 6.99L59.45 6.99L59.45 15.04L61.08 15.04ZM56.28 8.77Q56.58 9.3 56.58 10.39L56.58 11.79Q56.58 12.82 56.27 13.31Q56.15 13.5 55.97 13.62Q55.71 13.8 55.32 13.8Q54.92 13.8 54.65 13.61Q54.47 13.49 54.35 13.3Q54.03 12.8 54.03 11.74L54.03 10.31Q54.05 9.26 54.36 8.75Q54.49 8.53 54.67 8.41Q54.94 8.24 55.31 8.24Q55.68 8.24 55.94 8.4Q56.14 8.53 56.28 8.77ZM62.2 10.85L61.08 10.85L61.08 8.34L62.21 8.34Q62.43 8.34 62.6 8.43Q62.78 8.52 62.91 8.7Q63.17 9.06 63.17 9.66Q63.17 10.25 62.91 10.55Q62.84 10.64 62.75 10.7Q62.53 10.85 62.2 10.85Z" fill="#F3F3F3" fill-opacity="1.000000" fill-rule="evenodd"/>
	<path id="все инженерные сети" d="M47.92 24.57Q48.28 24.17 48.35 23.51L47.71 23.51Q47.62 24.11 47.34 24.35Q47.05 24.59 46.52 24.59Q46.2 24.59 45.96 24.45Q45.75 24.33 45.6 24.12Q45.27 23.66 45.27 22.87L45.27 22.4Q45.27 21.57 45.62 21.12Q45.76 20.93 45.95 20.82Q46.22 20.67 46.58 20.67Q47.05 20.67 47.33 20.9Q47.34 20.91 47.35 20.93Q47.63 21.18 47.71 21.76L48.35 21.76Q48.29 21.11 47.94 20.71Q47.88 20.64 47.81 20.57Q47.74 20.51 47.66 20.45Q47.23 20.14 46.58 20.14Q46.08 20.14 45.69 20.34Q45.62 20.38 45.56 20.42Q45.45 20.48 45.35 20.56Q45.06 20.82 44.87 21.2Q44.63 21.71 44.63 22.39L44.63 22.85Q44.63 23.85 45.12 24.46Q45.14 24.48 45.15 24.49Q45.36 24.74 45.63 24.89Q46.02 25.11 46.52 25.11Q47.24 25.11 47.7 24.76Q47.75 24.73 47.79 24.69Q47.86 24.63 47.92 24.57ZM109.8 24.57Q110.17 24.17 110.24 23.51L109.6 23.51Q109.51 24.11 109.23 24.35Q108.94 24.59 108.41 24.59Q108.09 24.59 107.85 24.45Q107.64 24.33 107.49 24.12Q107.16 23.66 107.16 22.87L107.16 22.4Q107.16 21.57 107.51 21.12Q107.65 20.93 107.84 20.82Q108.11 20.67 108.47 20.67Q108.94 20.67 109.21 20.9Q109.23 20.91 109.24 20.93Q109.52 21.18 109.6 21.76L110.24 21.76Q110.18 21.11 109.83 20.71Q109.77 20.64 109.7 20.57Q109.63 20.51 109.55 20.45Q109.12 20.14 108.47 20.14Q107.97 20.14 107.57 20.34Q107.51 20.38 107.45 20.42Q107.34 20.48 107.24 20.56Q106.95 20.82 106.76 21.2Q106.52 21.71 106.52 22.39L106.52 22.85Q106.52 23.85 107.01 24.46Q107.03 24.48 107.04 24.49Q107.25 24.74 107.52 24.89Q107.91 25.11 108.41 25.11Q109.13 25.11 109.59 24.76Q109.64 24.73 109.68 24.69Q109.75 24.63 109.8 24.57ZM40.33 20.21L40.33 25.04L42 25.04Q42.78 25.04 43.2 24.67Q43.32 24.56 43.41 24.43Q43.62 24.11 43.62 23.65Q43.62 23.32 43.49 23.07Q43.44 22.99 43.39 22.92Q43.31 22.81 43.21 22.72Q43.03 22.57 42.77 22.5Q43.07 22.37 43.25 22.15Q43.27 22.13 43.3 22.1Q43.37 21.99 43.42 21.88Q43.49 21.7 43.49 21.5Q43.49 21 43.25 20.69Q43.18 20.61 43.09 20.53Q42.7 20.21 41.91 20.21L40.33 20.21ZM50.1 22.81L52.19 22.81L52.19 22.29L50.1 22.29L50.1 20.73L52.5 20.73L52.5 20.21L49.46 20.21L49.46 25.04L52.53 25.04L52.53 24.52L50.1 24.52L50.1 22.81ZM58.93 20.21L58.3 20.21L55.92 23.93L55.92 20.21L55.28 20.21L55.28 25.04L55.92 25.04L58.3 21.32L58.3 25.04L58.93 25.04L58.93 20.21ZM63.41 25.04L64.05 25.04L64.05 20.21L63.41 20.21L63.41 22.29L60.97 22.29L60.97 20.21L60.33 20.21L60.33 25.04L60.97 25.04L60.97 22.81L63.41 22.81L63.41 25.04ZM68.35 22.84L68.87 22.84L70.24 25.04L71.04 25.04L69.41 22.49L70.91 20.21L70.16 20.21L68.88 22.31L68.35 22.31L68.35 20.21L67.72 20.21L67.72 22.31L67.17 22.31L65.88 20.21L65.13 20.21L66.63 22.49L65 25.04L65.8 25.04L67.17 22.84L67.72 22.84L67.72 25.04L68.35 25.04L68.35 22.84ZM72.52 22.81L74.62 22.81L74.62 22.29L72.52 22.29L72.52 20.73L74.92 20.73L74.92 20.21L71.88 20.21L71.88 25.04L74.95 25.04L74.95 24.52L72.52 24.52L72.52 22.81ZM79.06 25.04L79.7 25.04L79.7 20.21L79.06 20.21L79.06 22.29L76.62 22.29L76.62 20.21L75.99 20.21L75.99 25.04L76.62 25.04L76.62 22.81L79.06 22.81L79.06 25.04ZM81.71 22.81L83.8 22.81L83.8 22.29L81.71 22.29L81.71 20.73L84.11 20.73L84.11 20.21L81.07 20.21L81.07 25.04L84.14 25.04L84.14 24.52L81.71 24.52L81.71 22.81ZM85.81 25.04L85.81 23.15L86.95 23.15Q87.77 23.15 88.21 22.77Q88.31 22.68 88.39 22.57Q88.65 22.22 88.65 21.69Q88.65 21.26 88.46 20.93Q88.36 20.76 88.2 20.61Q88.18 20.6 88.17 20.59Q87.72 20.21 86.96 20.21L85.17 20.21L85.17 25.04L85.81 25.04ZM92.77 25.04L93.42 25.04L93.42 20.21L92.77 20.21L92.77 22.29L90.34 22.29L90.34 20.21L89.7 20.21L89.7 25.04L90.34 25.04L90.34 22.81L92.77 22.81L92.77 25.04ZM96.66 22.18L95.45 22.18L95.45 20.21L94.82 20.21L94.82 25.04L96.67 25.04Q97.37 25.03 97.79 24.68Q97.81 24.66 97.83 24.64Q97.97 24.52 98.06 24.37Q98.26 24.04 98.26 23.6Q98.26 23.15 98.06 22.82Q97.97 22.68 97.84 22.57Q97.41 22.19 96.66 22.18ZM98.85 25.04L99.48 25.04L99.48 20.21L98.85 20.21L98.85 25.04ZM101.54 22.81L103.64 22.81L103.64 22.29L101.54 22.29L101.54 20.73L103.94 20.73L103.94 20.21L100.9 20.21L100.9 25.04L103.97 25.04L103.97 24.52L101.54 24.52L101.54 22.81ZM111.99 22.81L114.08 22.81L114.08 22.29L111.99 22.29L111.99 20.73L114.39 20.73L114.39 20.21L111.35 20.21L111.35 25.04L114.42 25.04L114.42 24.52L111.99 24.52L111.99 22.81ZM117.31 20.73L118.86 20.73L118.86 20.21L115.12 20.21L115.12 20.73L116.67 20.73L116.67 25.04L117.31 25.04L117.31 20.73ZM123.5 20.21L122.86 20.21L120.48 23.93L120.48 20.21L119.84 20.21L119.84 25.04L120.48 25.04L122.86 21.32L122.86 25.04L123.5 25.04L123.5 20.21ZM41.93 22.27L40.97 22.27L40.97 20.73L41.91 20.73Q42.38 20.73 42.62 20.91Q42.65 20.94 42.68 20.97Q42.85 21.15 42.85 21.49Q42.85 21.72 42.75 21.89Q42.69 21.98 42.6 22.06Q42.59 22.07 42.59 22.07Q42.34 22.27 41.93 22.27ZM86.96 22.63L85.81 22.63L85.81 20.73L86.99 20.73Q87.42 20.74 87.69 20.96Q87.72 20.98 87.74 21Q87.82 21.08 87.87 21.16Q88.01 21.38 88.01 21.69Q88.01 22.06 87.83 22.29Q87.79 22.34 87.74 22.39Q87.47 22.63 86.96 22.63ZM95.45 24.52L95.45 22.7L96.65 22.7Q97.11 22.71 97.37 22.95Q97.43 23.01 97.48 23.08Q97.62 23.29 97.62 23.59Q97.62 23.9 97.48 24.12Q97.43 24.2 97.36 24.27Q97.34 24.29 97.32 24.3Q97.06 24.52 96.62 24.52L95.45 24.52ZM40.97 24.52L40.97 22.78L42.03 22.78Q42.54 22.78 42.78 23.04Q42.98 23.25 42.98 23.65Q42.98 23.95 42.84 24.15Q42.79 24.23 42.72 24.29Q42.71 24.3 42.69 24.31Q42.44 24.52 42.02 24.52L40.97 24.52Z" fill="#C9CCCF" fill-opacity="1.000000" fill-rule="evenodd"/>
</svg>
