<svg width="24.000000" height="22.000000" viewBox="0 0 24 22" fill="none" xmlns="http://www.w3.org/2000/svg" xmlns:xlink="http://www.w3.org/1999/xlink">
	<desc>
			Created with Pixso.
	</desc>
	<defs/>
	<path id="Vector" d="M19 0L5 0C3.67 0 2.4 0.52 1.46 1.46C0.52 2.4 0 3.67 0 5L0 17C0 18.32 0.52 19.59 1.46 20.53C2.4 21.47 3.67 21.99 5 22L19 22C20.32 21.99 21.59 21.47 22.53 20.53C23.47 19.59 23.99 18.32 24 17L24 5C23.99 3.67 23.47 2.4 22.53 1.46C21.59 0.52 20.32 0 19 0ZM5 2L19 2C19.59 2 20.18 2.18 20.67 2.51C21.17 2.85 21.55 3.33 21.78 3.88L14.12 11.54C13.55 12.1 12.79 12.42 12 12.42C11.2 12.42 10.44 12.1 9.87 11.54L2.21 3.88C2.44 3.33 2.82 2.85 3.32 2.51C3.81 2.18 4.4 2 5 2ZM19 20L5 20C4.2 20 3.44 19.68 2.87 19.12C2.31 18.55 2 17.79 2 17L2 6.5L8.46 12.96C9.4 13.89 10.67 14.42 12 14.42C13.32 14.42 14.59 13.89 15.53 12.96L22 6.5L22 17C22 17.79 21.68 18.55 21.12 19.12C20.55 19.68 19.79 20 19 20Z" fill="#BB8E34" fill-opacity="1.000000" fill-rule="nonzero"/>
</svg>
