<svg width="24.000000" height="24.000000" viewBox="0 0 24 24" fill="none" xmlns="http://www.w3.org/2000/svg" xmlns:xlink="http://www.w3.org/1999/xlink">
	<desc>
			Created with Pixso.
	</desc>
	<defs>
		<clipPath id="clip7_18519">
			<rect id="fi-rr-menu-burger" rx="0.000000" width="23.000000" height="23.000000" transform="translate(0.500000 0.500000)" fill="white" fill-opacity="0"/>
		</clipPath>
	</defs>
	<rect id="fi-rr-menu-burger" rx="0.000000" width="23.000000" height="23.000000" transform="translate(0.500000 0.500000)" fill="#FFFFFF" fill-opacity="0"/>
	<g clip-path="url(#clip7_18519)">
		<path id="Vector" d="M1 11L23 11C23.55 11 24 11.44 24 12C24 12.55 23.55 13 23 13L1 13C0.44 13 0 12.55 0 12C0 11.44 0.44 11 1 11Z" fill="#BB8E34" fill-opacity="1.000000" fill-rule="evenodd"/>
		<path id="Vector" d="M1 4L23 4C23.55 4 24 4.44 24 5C24 5.55 23.55 6 23 6L1 6C0.44 6 0 5.55 0 5C0 4.44 0.44 4 1 4Z" fill="#BB8E34" fill-opacity="1.000000" fill-rule="evenodd"/>
		<path id="Vector" d="M1 18L23 18C23.55 18 24 18.44 24 19C24 19.55 23.55 20 23 20L1 20C0.44 20 0 19.55 0 19C0 18.44 0.44 18 1 18Z" fill="#BB8E34" fill-opacity="1.000000" fill-rule="evenodd"/>
	</g>
</svg>
