<svg width="24.000000" height="24.000000" viewBox="0 0 24 24" fill="none" xmlns="http://www.w3.org/2000/svg" xmlns:xlink="http://www.w3.org/1999/xlink">
	<desc>
			Created with Pixso.
	</desc>
	<defs>
		<clipPath id="clip2_20540">
			<rect id="Location and Map / location" rx="0.000000" width="23.000000" height="23.000000" transform="translate(0.500000 0.500000)" fill="white" fill-opacity="0"/>
		</clipPath>
	</defs>
	<rect id="Location and Map / location" rx="0.000000" width="23.000000" height="23.000000" transform="translate(0.500000 0.500000)" fill="#FFFFFF" fill-opacity="0"/>
	<g clip-path="url(#clip2_20540)">
		<path id="Vector" d="M12 2C9.87 2 7.84 2.84 6.34 4.34C4.84 5.84 4 7.87 4 10C4 15.39 11.04 21.5 11.34 21.75C11.53 21.91 11.76 22 12 22C12.23 22 12.46 21.91 12.65 21.75C13 21.5 20 15.39 20 10C20 7.87 19.15 5.84 17.65 4.34C16.15 2.84 14.12 2 12 2ZM12 19.64C9.87 17.64 6 13.33 6 10C6 8.4 6.63 6.88 7.75 5.75C8.88 4.63 10.4 4 12 4C13.59 4 15.11 4.63 16.24 5.75C17.36 6.88 18 8.4 18 10C18 13.33 14.12 17.66 12 19.64ZM12 6C11.2 6 10.43 6.23 9.77 6.67C9.12 7.11 8.6 7.73 8.3 8.46C8 9.2 7.92 10 8.07 10.78C8.23 11.55 8.61 12.26 9.17 12.82C9.73 13.38 10.44 13.76 11.21 13.92C11.99 14.07 12.79 13.99 13.53 13.69C14.26 13.39 14.88 12.87 15.32 12.22C15.76 11.56 16 10.79 16 10C16 8.93 15.57 7.92 14.82 7.17C14.07 6.42 13.06 6 12 6ZM12 12C11.6 12 11.21 11.88 10.88 11.66C10.55 11.44 10.3 11.13 10.15 10.76C10 10.39 9.96 9.99 10.03 9.6C10.11 9.22 10.3 8.86 10.58 8.58C10.86 8.3 11.22 8.11 11.6 8.03C11.99 7.96 12.4 8 12.76 8.15C13.13 8.3 13.44 8.56 13.66 8.88C13.88 9.21 14 9.6 14 10C14 10.53 13.78 11.03 13.41 11.41C13.03 11.78 12.53 12 12 12Z" fill="#BB8E34" fill-opacity="1.000000" fill-rule="nonzero"/>
	</g>
</svg>
