<svg width="24.000000" height="24.000000" viewBox="0 0 24 24" fill="none" xmlns="http://www.w3.org/2000/svg" xmlns:xlink="http://www.w3.org/1999/xlink">
	<desc>
			Created with Pixso.
	</desc>
	<defs>
		<clipPath id="clip7_18538">
			<rect id="fi-rr-headset" rx="0.000000" width="23.000000" height="23.000000" transform="translate(0.500000 0.500000)" fill="white" fill-opacity="0"/>
		</clipPath>
	</defs>
	<rect id="fi-rr-headset" rx="0.000000" width="23.000000" height="23.000000" transform="translate(0.500000 0.500000)" fill="#FFFFFF" fill-opacity="0"/>
	<g clip-path="url(#clip7_18538)">
		<path id="Vector" d="M21 12.42L21 11C21 8.61 20.05 6.32 18.36 4.63C16.67 2.94 14.38 2 12 2C9.61 2 7.32 2.94 5.63 4.63C3.94 6.32 3 8.61 3 11L3 12.42C1.95 12.88 1.09 13.69 0.56 14.71C0.04 15.73 -0.12 16.9 0.12 18.02C0.35 19.14 0.96 20.15 1.85 20.87C2.74 21.59 3.85 21.99 5 22C5.53 22 6.03 21.78 6.41 21.41C6.78 21.03 7 20.53 7 20L7 14C7 13.46 6.78 12.96 6.41 12.58C6.03 12.21 5.53 12 5 12L5 11C5 9.14 5.73 7.36 7.04 6.05C8.36 4.73 10.14 4 12 4C13.85 4 15.63 4.73 16.94 6.05C18.26 7.36 19 9.14 19 11L19 12C18.46 12 17.96 12.21 17.58 12.58C17.2 12.96 17 13.46 17 14L17 20L14 20C13.73 20 13.48 20.1 13.29 20.29C13.1 20.48 13 20.73 13 21C13 21.26 13.1 21.51 13.29 21.7C13.48 21.89 13.73 22 14 22L19 22C20.14 21.99 21.25 21.59 22.14 20.87C23.03 20.15 23.64 19.14 23.87 18.02C24.11 16.9 23.95 15.73 23.43 14.71C22.9 13.69 22.04 12.88 21 12.42ZM5 20C4.2 20 3.44 19.68 2.87 19.12C2.31 18.55 2 17.79 2 17C2 16.2 2.31 15.44 2.87 14.87C3.44 14.31 4.2 14 5 14L5 20ZM19 20L19 14C19.79 14 20.55 14.31 21.12 14.87C21.68 15.44 22 16.2 22 17C22 17.79 21.68 18.55 21.12 19.12C20.55 19.68 19.79 20 19 20Z" fill="#BB8E34" fill-opacity="1.000000" fill-rule="nonzero"/>
	</g>
</svg>
