<svg width="58.000000" height="45.059937" viewBox="0 0 58 45.0599" fill="none" xmlns="http://www.w3.org/2000/svg" xmlns:xlink="http://www.w3.org/1999/xlink">
	<desc>
			Created with Pixso.
	</desc>
	<defs/>
	<path id="Vector" d="M25.37 11.14L25.37 37.24C25.38 37.41 25.35 37.59 25.28 37.75C25.21 37.91 25.11 38.06 24.97 38.2C24.84 38.33 24.66 38.43 24.5 38.5C24.31 38.56 24.12 38.61 23.91 38.61C23.73 38.61 23.53 38.56 23.35 38.5C23.16 38.43 23.01 38.33 22.87 38.2C22.74 38.06 22.63 37.91 22.56 37.75C22.5 37.59 22.47 37.41 22.48 37.24L22.48 17.67C22.46 16.82 22.05 16.01 21.39 15.41C20.71 14.82 19.79 14.48 18.85 14.48C17.9 14.48 16.99 14.82 16.3 15.41C15.64 16.01 15.25 16.82 15.23 17.67L15.23 37.24C15.24 37.41 15.2 37.59 15.14 37.75C15.06 37.91 14.96 38.06 14.83 38.2C14.68 38.33 14.53 38.43 14.35 38.5C14.17 38.56 13.97 38.61 13.78 38.61C13.58 38.61 13.39 38.56 13.21 38.5C13.02 38.43 12.86 38.33 12.73 38.2C12.59 38.06 12.49 37.91 12.42 37.75C12.35 37.59 12.31 37.41 12.33 37.24L12.33 24.2C12.34 23.76 12.25 23.33 12.08 22.93C11.9 22.52 11.63 22.15 11.3 21.84C10.96 21.53 10.55 21.29 10.1 21.12C9.66 20.95 9.18 20.86 8.69 20.86C8.21 20.86 7.73 20.95 7.3 21.12C6.84 21.29 6.44 21.53 6.1 21.84C5.77 22.15 5.51 22.52 5.32 22.93C5.15 23.33 5.06 23.76 5.07 24.2L5.07 37.24C5.07 39.31 6 41.3 7.63 42.77C9.26 44.24 11.47 45.05 13.78 45.05L49.29 45.05C51.6 45.05 53.81 44.24 55.45 42.77C57.08 41.3 58 39.31 58 37.24L58 23.54C58 22.28 57.65 21.03 57 19.91C56.35 18.79 55.4 17.82 54.25 17.1L54.13 17.03L34.04 4.77C33.92 4.71 33.81 4.63 33.68 4.56C32.28 3.75 30.65 3.32 28.99 3.32C27.33 3.32 25.71 3.75 24.3 4.56C24.05 4.69 23.83 4.84 23.6 5.01L22.47 5.72L22.47 3.33C22.48 2.89 22.4 2.46 22.22 2.06C22.04 1.65 21.77 1.28 21.43 0.97C21.1 0.66 20.7 0.41 20.25 0.25C19.8 0.08 19.33 0 18.84 0C18.36 0 17.87 0.08 17.43 0.25C17 0.41 16.59 0.66 16.25 0.97C15.92 1.28 15.65 1.65 15.47 2.06C15.3 2.46 15.21 2.89 15.22 3.33L15.22 10.39L3.76 17.75C2.59 18.46 1.65 19.43 0.98 20.56C0.33 21.68 0 22.93 0 24.2L0 37.68C0 38.16 0.47 38.55 1.07 38.55C1.68 38.55 2.17 38.16 2.17 37.68L2.17 24.2C2.17 23.26 2.42 22.34 2.89 21.51C3.35 20.68 4.05 19.95 4.9 19.42L17.4 11.4L17.4 3.33C17.39 3.15 17.42 2.96 17.49 2.81C17.54 2.64 17.66 2.48 17.79 2.35C17.92 2.23 18.09 2.13 18.27 2.07C18.45 2 18.65 1.96 18.84 1.96C19.04 1.96 19.24 2 19.41 2.07C19.6 2.13 19.76 2.23 19.89 2.35C20.03 2.48 20.14 2.64 20.2 2.81C20.27 2.96 20.29 3.15 20.29 3.33L20.29 9.52L20.51 9.39L21.5 8.76L25.45 6.22C26.5 5.6 27.74 5.27 29 5.27C30.25 5.27 31.49 5.6 32.53 6.22L53.11 18.78C53.95 19.32 54.63 20.04 55.11 20.86C55.58 21.69 55.81 22.61 55.81 23.54L55.81 37.23C55.81 38 55.64 38.77 55.31 39.48C55 40.18 54.52 40.84 53.9 41.37C53.29 41.93 52.58 42.36 51.78 42.66C51 42.95 50.14 43.1 49.29 43.1L13.77 43.1C12.91 43.1 12.06 42.95 11.27 42.66C10.48 42.36 9.76 41.93 9.16 41.37C8.55 40.84 8.06 40.18 7.73 39.48C7.41 38.77 7.25 38 7.25 37.23L7.25 24.2C7.26 23.86 7.42 23.54 7.69 23.31C7.96 23.08 8.31 22.95 8.69 22.95C9.06 22.95 9.42 23.08 9.69 23.31C9.96 23.54 10.13 23.86 10.14 24.2L10.14 37.24C10.13 37.66 10.22 38.09 10.4 38.5C10.58 38.91 10.84 39.28 11.17 39.59C11.51 39.9 11.92 40.15 12.36 40.31C12.8 40.48 13.29 40.56 13.77 40.56C14.25 40.56 14.73 40.48 15.17 40.31C15.62 40.15 16.02 39.9 16.36 39.59C16.7 39.28 16.95 38.91 17.14 38.5C17.31 38.09 17.41 37.66 17.39 37.24L17.39 17.67C17.39 17.5 17.41 17.32 17.48 17.15C17.54 16.99 17.66 16.84 17.79 16.7C17.92 16.58 18.09 16.48 18.27 16.41C18.45 16.34 18.65 16.31 18.84 16.31C19.04 16.31 19.23 16.34 19.41 16.41C19.59 16.48 19.76 16.58 19.89 16.7C20.03 16.84 20.12 16.99 20.2 17.15C20.27 17.32 20.29 17.5 20.29 17.67L20.29 37.24C20.28 37.66 20.37 38.09 20.54 38.5C20.72 38.91 20.99 39.28 21.33 39.59C21.66 39.9 22.06 40.15 22.51 40.31C22.96 40.48 23.42 40.56 23.91 40.56C24.4 40.56 24.88 40.48 25.31 40.31C25.77 40.15 26.16 39.9 26.51 39.59C26.85 39.28 27.11 38.91 27.29 38.5C27.47 38.09 27.54 37.66 27.54 37.24L27.54 11.14C27.53 10.97 27.55 10.79 27.63 10.63C27.7 10.46 27.79 10.31 27.93 10.18C28.08 10.05 28.24 9.95 28.41 9.88C28.6 9.81 28.79 9.77 28.99 9.77C29.18 9.77 29.38 9.81 29.55 9.88C29.74 9.95 29.91 10.05 30.03 10.18C30.16 10.31 30.28 10.46 30.35 10.63C30.41 10.79 30.45 10.97 30.43 11.14L30.43 37.24C30.42 37.66 30.51 38.09 30.68 38.5C30.87 38.91 31.13 39.28 31.47 39.59C31.8 39.9 32.21 40.15 32.65 40.31C33.09 40.48 33.58 40.56 34.05 40.56C34.54 40.56 35.02 40.48 35.47 40.31C35.9 40.15 36.31 39.9 36.65 39.59C36.99 39.28 37.25 38.91 37.43 38.5C37.61 38.09 37.7 37.66 37.68 37.24L37.68 17.67C37.71 17.34 37.87 17.02 38.14 16.79C38.4 16.56 38.75 16.43 39.14 16.43C39.5 16.43 39.87 16.56 40.14 16.79C40.4 17.02 40.56 17.34 40.58 17.67L40.58 37.24C40.58 37.66 40.67 38.09 40.86 38.49C41.03 38.87 41.3 39.24 41.65 39.54C41.98 39.84 42.38 40.09 42.81 40.25C43.26 40.41 43.73 40.5 44.21 40.5C44.68 40.5 45.15 40.41 45.6 40.25C46.03 40.09 46.43 39.84 46.77 39.54C47.11 39.24 47.38 38.87 47.55 38.49C47.74 38.09 47.83 37.66 47.83 37.24L47.83 23.54C47.85 23.21 48.01 22.89 48.27 22.66C48.54 22.43 48.9 22.3 49.27 22.3C49.65 22.3 50.01 22.43 50.27 22.66C50.54 22.89 50.71 23.21 50.73 23.54L50.73 37.56C50.74 37.81 50.86 38.06 51.06 38.23C51.27 38.41 51.53 38.5 51.81 38.5C52.1 38.5 52.37 38.41 52.56 38.23C52.77 38.06 52.89 37.81 52.9 37.56L52.9 23.54C52.89 22.69 52.5 21.88 51.81 21.28C51.14 20.68 50.23 20.35 49.27 20.35C48.33 20.35 47.41 20.68 46.75 21.28C46.06 21.88 45.67 22.69 45.65 23.54L45.65 37.24C45.66 37.41 45.64 37.59 45.56 37.75C45.5 37.91 45.39 38.06 45.26 38.2C45.12 38.33 44.96 38.43 44.77 38.5C44.6 38.56 44.4 38.61 44.21 38.61C44.01 38.61 43.81 38.56 43.64 38.5C43.46 38.43 43.28 38.33 43.15 38.2C43.02 38.06 42.91 37.91 42.85 37.75C42.77 37.59 42.75 37.41 42.76 37.24L42.76 17.67C42.74 16.82 42.35 16.01 41.66 15.41C40.99 14.82 40.08 14.48 39.13 14.48C38.18 14.48 37.28 14.82 36.59 15.41C35.91 16.01 35.53 16.82 35.5 17.67L35.5 37.24C35.52 37.41 35.49 37.59 35.41 37.75C35.34 37.91 35.25 38.06 35.11 38.2C34.98 38.33 34.8 38.43 34.63 38.5C34.45 38.56 34.25 38.61 34.05 38.61C33.86 38.61 33.66 38.56 33.49 38.5C33.3 38.43 33.15 38.33 33 38.2C32.88 38.06 32.77 37.91 32.7 37.75C32.63 37.59 32.59 37.41 32.61 37.24L32.61 11.14C32.61 10.28 32.23 9.45 31.54 8.83C30.87 8.22 29.95 7.88 28.99 7.88C28.03 7.88 27.1 8.22 26.41 8.83C25.75 9.45 25.37 10.28 25.37 11.14Z" fill="#18308B" fill-opacity="1.000000" fill-rule="evenodd"/>
</svg>
