<svg width="42.000000" height="42.000000" viewBox="0 0 42 42" fill="none" xmlns="http://www.w3.org/2000/svg" xmlns:xlink="http://www.w3.org/1999/xlink">
	<desc>
			Created with Pixso.
	</desc>
	<defs/>
	<rect id="Vector" rx="0.000000" width="41.000000" height="41.000000" transform="translate(0.500000 0.500000)" fill="#FFFFFF" fill-opacity="0"/>
	<path id="Vector" d="M28.14 23.91C27.58 23.31 26.96 22.78 26.28 22.32C29.03 20.19 30.96 17.17 31.73 13.78C31.79 13.54 31.8 13.28 31.76 13.03C31.72 12.79 31.63 12.55 31.49 12.34C31.36 12.12 31.19 11.94 30.98 11.79C30.78 11.65 30.54 11.54 30.3 11.49C30.05 11.43 29.8 11.42 29.55 11.47C29.3 11.51 29.07 11.6 28.85 11.73C28.64 11.87 28.46 12.04 28.31 12.25C28.17 12.46 28.06 12.69 28.01 12.94C27.65 14.52 26.95 16.01 25.95 17.3C24.95 18.58 23.69 19.64 22.24 20.39L22.24 13.36C22.23 13.22 22.2 13.08 22.16 12.95C22.15 12.84 22.13 12.73 22.09 12.62C22.01 12.45 21.91 12.29 21.78 12.15C21.74 12.11 21.73 12.05 21.69 12.02C21.55 11.89 21.39 11.78 21.22 11.7C21.17 11.67 21.13 11.63 21.08 11.61C20.94 11.56 20.78 11.53 20.63 11.51C20.54 11.49 20.44 11.47 20.34 11.45L19.09 11.45L19.09 11.45C18.64 11.45 18.21 11.6 17.86 11.89C17.52 12.17 17.29 12.57 17.21 13.01C17.13 13.45 17.2 13.9 17.43 14.29C17.65 14.68 18 14.98 18.42 15.13L18.42 24.47C15.39 21.33 13.39 17.34 12.67 13.04C12.63 12.8 12.54 12.56 12.41 12.35C12.27 12.14 12.1 11.95 11.9 11.81C11.69 11.66 11.46 11.56 11.22 11.5C10.97 11.45 10.72 11.44 10.47 11.48C10.22 11.52 9.99 11.61 9.78 11.75C9.56 11.88 9.38 12.05 9.23 12.26C9.09 12.46 8.98 12.69 8.93 12.94C8.87 13.18 8.87 13.43 8.91 13.68C10.02 20.33 13.73 26.26 19.22 30.18C19.29 30.23 19.38 30.27 19.46 30.31C19.53 30.34 19.59 30.38 19.67 30.41C19.88 30.49 20.11 30.54 20.33 30.54C20.62 30.54 20.89 30.47 21.14 30.35C21.16 30.34 21.18 30.35 21.2 30.34C21.37 30.25 21.53 30.13 21.66 30C21.69 29.97 21.71 29.94 21.73 29.91C21.86 29.78 21.96 29.63 22.04 29.46C22.07 29.41 22.09 29.35 22.11 29.3C22.19 29.09 22.24 28.86 22.24 28.64L22.25 24.58C23.43 24.92 24.49 25.59 25.33 26.49L28.47 29.93C28.64 30.11 28.85 30.26 29.08 30.37C29.3 30.47 29.55 30.53 29.8 30.55C30.05 30.56 30.3 30.52 30.54 30.43C30.77 30.35 30.99 30.21 31.17 30.04C31.36 29.88 31.51 29.67 31.61 29.44C31.72 29.22 31.78 28.97 31.79 28.72C31.8 28.47 31.76 28.22 31.68 27.98C31.59 27.75 31.46 27.53 31.29 27.35L28.14 23.91ZM26.86 0L15.15 0C3.39 0 0 3.39 0 15.13L0 26.84C0 38.6 3.39 42 15.13 42L26.84 42C38.6 42 42 38.6 42 26.86L42 15.15C42 3.39 38.6 0 26.86 0ZM38.18 26.86C38.18 36.48 36.48 38.18 26.84 38.18L15.13 38.18C5.5 38.18 3.81 36.48 3.81 26.84L3.81 15.13C3.81 5.51 5.51 3.81 15.15 3.81L26.86 3.81C36.49 3.81 38.18 5.51 38.18 15.15L38.18 26.86Z" fill="#BB8E34" fill-opacity="1.000000" fill-rule="nonzero"/>
</svg>
